<?xml version="1.0" encoding="us-ascii" standalone="no"?><svg xmlns="http://www.w3.org/2000/svg" xmlns:xlink="http://www.w3.org/1999/xlink" contentStyleType="text/css" height="507px" preserveAspectRatio="none" style="width:1500px;height:507px;background:#FFFFFF;" version="1.1" viewBox="0 0 1500 507" width="1500px" zoomAndPan="magnify"><defs/><g><!--cluster CpuId--><g id="cluster_CpuId"><path d="M8.5,211 L54.5,211 A3.75,3.75 0 0 1 57,213.5 L64,233.2969 L1186.5,233.2969 A2.5,2.5 0 0 1 1189,235.7969 L1189,497.78 A2.5,2.5 0 0 1 1186.5,500.28 L8.5,500.28 A2.5,2.5 0 0 1 6,497.78 L6,213.5 A2.5,2.5 0 0 1 8.5,211 " fill="none" style="stroke:#000000;stroke-width:1.5;"/><line style="stroke:#000000;stroke-width:1.5;" x1="6" x2="64" y1="233.2969" y2="233.2969"/><text fill="#000000" font-family="sans-serif" font-size="14" font-weight="bold" lengthAdjust="spacing" textLength="45" x="10" y="225.9951">CpuId</text></g><!--cluster Intel--><g id="cluster_Intel"><path d="M32.5,254 L67.5,254 A3.75,3.75 0 0 1 70,256.5 L77,276.2969 L970.5,276.2969 A2.5,2.5 0 0 1 973,278.7969 L973,473.78 A2.5,2.5 0 0 1 970.5,476.28 L32.5,476.28 A2.5,2.5 0 0 1 30,473.78 L30,256.5 A2.5,2.5 0 0 1 32.5,254 " fill="none" style="stroke:#000000;stroke-width:1.5;"/><line style="stroke:#000000;stroke-width:1.5;" x1="30" x2="77" y1="276.2969" y2="276.2969"/><text fill="#000000" font-family="sans-serif" font-size="14" font-weight="bold" lengthAdjust="spacing" textLength="34" x="34" y="268.9951">Intel</text></g><!--class WindowsCpuIdFactory--><g id="elem_WindowsCpuIdFactory"><rect codeLine="24" fill="#F1F1F1" height="32" id="WindowsCpuIdFactory" rx="2.5" ry="2.5" style="stroke:#181818;stroke-width:0.5;" width="184" x="989" y="308"/><ellipse cx="1004" cy="324" fill="#ADD1B2" rx="11" ry="11" style="stroke:#181818;stroke-width:1.0;"/><path d="M1006.9688,329.6406 Q1006.3906,329.9375 1005.75,330.0781 Q1005.1094,330.2344 1004.4063,330.2344 Q1001.9063,330.2344 1000.5781,328.5938 Q999.2656,326.9375 999.2656,323.8125 Q999.2656,320.6875 1000.5781,319.0313 Q1001.9063,317.375 1004.4063,317.375 Q1005.1094,317.375 1005.75,317.5313 Q1006.4063,317.6875 1006.9688,317.9844 L1006.9688,320.7031 Q1006.3438,320.125 1005.75,319.8594 Q1005.1563,319.5781 1004.5313,319.5781 Q1003.1875,319.5781 1002.5,320.6563 Q1001.8125,321.7188 1001.8125,323.8125 Q1001.8125,325.9063 1002.5,326.9844 Q1003.1875,328.0469 1004.5313,328.0469 Q1005.1563,328.0469 1005.75,327.7813 Q1006.3438,327.5 1006.9688,326.9219 L1006.9688,329.6406 Z " fill="#000000"/><text fill="#000000" font-family="sans-serif" font-size="14" lengthAdjust="spacing" textLength="152" x="1018" y="328.8467">WindowsCpuIdFactory</text></g><!--class X86CpuIdFactoryBase--><g id="elem_X86CpuIdFactoryBase"><rect codeLine="27" fill="#F1F1F1" height="32" id="X86CpuIdFactoryBase" rx="2.5" ry="2.5" style="stroke:#181818;stroke-width:0.5;" width="184" x="418" y="308"/><ellipse cx="433" cy="324" fill="#ADD1B2" rx="11" ry="11" style="stroke:#181818;stroke-width:1.0;"/><path d="M435.9688,329.6406 Q435.3906,329.9375 434.75,330.0781 Q434.1094,330.2344 433.4063,330.2344 Q430.9063,330.2344 429.5781,328.5938 Q428.2656,326.9375 428.2656,323.8125 Q428.2656,320.6875 429.5781,319.0313 Q430.9063,317.375 433.4063,317.375 Q434.1094,317.375 434.75,317.5313 Q435.4063,317.6875 435.9688,317.9844 L435.9688,320.7031 Q435.3438,320.125 434.75,319.8594 Q434.1563,319.5781 433.5313,319.5781 Q432.1875,319.5781 431.5,320.6563 Q430.8125,321.7188 430.8125,323.8125 Q430.8125,325.9063 431.5,326.9844 Q432.1875,328.0469 433.5313,328.0469 Q434.1563,328.0469 434.75,327.7813 Q435.3438,327.5 435.9688,326.9219 L435.9688,329.6406 Z " fill="#000000"/><text fill="#000000" font-family="sans-serif" font-size="14" lengthAdjust="spacing" textLength="152" x="447" y="328.8467">X86CpuIdFactoryBase</text></g><!--class X86CpuIdFactory--><g id="elem_X86CpuIdFactory"><rect codeLine="28" fill="#F1F1F1" height="32" id="X86CpuIdFactory" rx="2.5" ry="2.5" style="stroke:#181818;stroke-width:0.5;" width="149" x="808.5" y="424.15"/><ellipse cx="823.5" cy="440.15" fill="#ADD1B2" rx="11" ry="11" style="stroke:#181818;stroke-width:1.0;"/><path d="M826.4688,445.7906 Q825.8906,446.0875 825.25,446.2281 Q824.6094,446.3844 823.9063,446.3844 Q821.4063,446.3844 820.0781,444.7438 Q818.7656,443.0875 818.7656,439.9625 Q818.7656,436.8375 820.0781,435.1813 Q821.4063,433.525 823.9063,433.525 Q824.6094,433.525 825.25,433.6813 Q825.9063,433.8375 826.4688,434.1344 L826.4688,436.8531 Q825.8438,436.275 825.25,436.0094 Q824.6563,435.7281 824.0313,435.7281 Q822.6875,435.7281 822,436.8063 Q821.3125,437.8688 821.3125,439.9625 Q821.3125,442.0563 822,443.1344 Q822.6875,444.1969 824.0313,444.1969 Q824.6563,444.1969 825.25,443.9313 Q825.8438,443.65 826.4688,443.0719 L826.4688,445.7906 Z " fill="#000000"/><text fill="#000000" font-family="sans-serif" font-size="14" lengthAdjust="spacing" textLength="117" x="837.5" y="444.9967">X86CpuIdFactory</text></g><!--class X86CpuIdFactoryXml--><g id="elem_X86CpuIdFactoryXml"><rect codeLine="29" fill="#F1F1F1" height="32" id="X86CpuIdFactoryXml" rx="2.5" ry="2.5" style="stroke:#181818;stroke-width:0.5;" width="174" x="46" y="424.15"/><ellipse cx="61" cy="440.15" fill="#ADD1B2" rx="11" ry="11" style="stroke:#181818;stroke-width:1.0;"/><path d="M63.9688,445.7906 Q63.3906,446.0875 62.75,446.2281 Q62.1094,446.3844 61.4063,446.3844 Q58.9063,446.3844 57.5781,444.7438 Q56.2656,443.0875 56.2656,439.9625 Q56.2656,436.8375 57.5781,435.1813 Q58.9063,433.525 61.4063,433.525 Q62.1094,433.525 62.75,433.6813 Q63.4063,433.8375 63.9688,434.1344 L63.9688,436.8531 Q63.3438,436.275 62.75,436.0094 Q62.1563,435.7281 61.5313,435.7281 Q60.1875,435.7281 59.5,436.8063 Q58.8125,437.8688 58.8125,439.9625 Q58.8125,442.0563 59.5,443.1344 Q60.1875,444.1969 61.5313,444.1969 Q62.1563,444.1969 62.75,443.9313 Q63.3438,443.65 63.9688,443.0719 L63.9688,445.7906 Z " fill="#000000"/><text fill="#000000" font-family="sans-serif" font-size="14" lengthAdjust="spacing" textLength="142" x="75" y="444.9967">X86CpuIdFactoryXml</text></g><!--class GenuineIntelCpu--><g id="elem_GenuineIntelCpu"><rect codeLine="31" fill="#F1F1F1" height="40.2656" id="GenuineIntelCpu" rx="2.5" ry="2.5" style="stroke:#181818;stroke-width:0.5;" width="148" x="255" y="420.01"/><ellipse cx="270" cy="440.1428" fill="#ADD1B2" rx="11" ry="11" style="stroke:#181818;stroke-width:1.0;"/><path d="M272.9688,445.7834 Q272.3906,446.0803 271.75,446.2209 Q271.1094,446.3772 270.4063,446.3772 Q267.9063,446.3772 266.5781,444.7366 Q265.2656,443.0803 265.2656,439.9553 Q265.2656,436.8303 266.5781,435.1741 Q267.9063,433.5178 270.4063,433.5178 Q271.1094,433.5178 271.75,433.6741 Q272.4063,433.8303 272.9688,434.1272 L272.9688,436.8459 Q272.3438,436.2678 271.75,436.0022 Q271.1563,435.7209 270.5313,435.7209 Q269.1875,435.7209 268.5,436.7991 Q267.8125,437.8616 267.8125,439.9553 Q267.8125,442.0491 268.5,443.1272 Q269.1875,444.1897 270.5313,444.1897 Q271.1563,444.1897 271.75,443.9241 Q272.3438,443.6428 272.9688,443.0647 L272.9688,445.7834 Z " fill="#000000"/><text fill="#000000" font-family="sans-serif" font-size="12" font-style="italic" lengthAdjust="spacing" textLength="52" x="316" y="436.1487">&#171;ICpuId&#187;</text><text fill="#000000" font-family="sans-serif" font-size="14" lengthAdjust="spacing" textLength="116" x="284" y="451.9739">GenuineIntelCpu</text></g><!--class GenericIntelCpu--><g id="elem_GenericIntelCpu"><rect codeLine="32" fill="#F1F1F1" height="40.2656" id="GenericIntelCpu" rx="2.5" ry="2.5" style="stroke:#181818;stroke-width:0.5;" width="143" x="438.5" y="420.01"/><ellipse cx="453.5" cy="440.1428" fill="#ADD1B2" rx="11" ry="11" style="stroke:#181818;stroke-width:1.0;"/><path d="M456.4688,445.7834 Q455.8906,446.0803 455.25,446.2209 Q454.6094,446.3772 453.9063,446.3772 Q451.4063,446.3772 450.0781,444.7366 Q448.7656,443.0803 448.7656,439.9553 Q448.7656,436.8303 450.0781,435.1741 Q451.4063,433.5178 453.9063,433.5178 Q454.6094,433.5178 455.25,433.6741 Q455.9063,433.8303 456.4688,434.1272 L456.4688,436.8459 Q455.8438,436.2678 455.25,436.0022 Q454.6563,435.7209 454.0313,435.7209 Q452.6875,435.7209 452,436.7991 Q451.3125,437.8616 451.3125,439.9553 Q451.3125,442.0491 452,443.1272 Q452.6875,444.1897 454.0313,444.1897 Q454.6563,444.1897 455.25,443.9241 Q455.8438,443.6428 456.4688,443.0647 L456.4688,445.7834 Z " fill="#000000"/><text fill="#000000" font-family="sans-serif" font-size="12" font-style="italic" lengthAdjust="spacing" textLength="52" x="497" y="436.1487">&#171;ICpuId&#187;</text><text fill="#000000" font-family="sans-serif" font-size="14" lengthAdjust="spacing" textLength="111" x="467.5" y="451.9739">GenericIntelCpu</text></g><!--class AuthenticAmdCpu--><g id="elem_AuthenticAmdCpu"><rect codeLine="33" fill="#F1F1F1" height="40.2656" id="AuthenticAmdCpu" rx="2.5" ry="2.5" style="stroke:#181818;stroke-width:0.5;" width="157" x="616.5" y="420.01"/><ellipse cx="631.5" cy="440.1428" fill="#ADD1B2" rx="11" ry="11" style="stroke:#181818;stroke-width:1.0;"/><path d="M634.4688,445.7834 Q633.8906,446.0803 633.25,446.2209 Q632.6094,446.3772 631.9063,446.3772 Q629.4063,446.3772 628.0781,444.7366 Q626.7656,443.0803 626.7656,439.9553 Q626.7656,436.8303 628.0781,435.1741 Q629.4063,433.5178 631.9063,433.5178 Q632.6094,433.5178 633.25,433.6741 Q633.9063,433.8303 634.4688,434.1272 L634.4688,436.8459 Q633.8438,436.2678 633.25,436.0022 Q632.6563,435.7209 632.0313,435.7209 Q630.6875,435.7209 630,436.7991 Q629.3125,437.8616 629.3125,439.9553 Q629.3125,442.0491 630,443.1272 Q630.6875,444.1897 632.0313,444.1897 Q632.6563,444.1897 633.25,443.9241 Q633.8438,443.6428 634.4688,443.0647 L634.4688,445.7834 Z " fill="#000000"/><text fill="#000000" font-family="sans-serif" font-size="12" font-style="italic" lengthAdjust="spacing" textLength="52" x="682" y="436.1487">&#171;ICpuId&#187;</text><text fill="#000000" font-family="sans-serif" font-size="14" lengthAdjust="spacing" textLength="125" x="645.5" y="451.9739">AuthenticAmdCpu</text></g><!--class CpuVendor--><!--class ICpuId--><g id="elem_ICpuId"><rect codeLine="8" fill="#F1F1F1" height="32" id="ICpuId" rx="2.5" ry="2.5" style="stroke:#181818;stroke-width:0.5;" width="75" x="888.5" y="116"/><ellipse cx="903.5" cy="132" fill="#B4A7E5" rx="11" ry="11" style="stroke:#181818;stroke-width:1.0;"/><path d="M899.4219,127.7656 L899.4219,125.6094 L906.8125,125.6094 L906.8125,127.7656 L904.3438,127.7656 L904.3438,135.8438 L906.8125,135.8438 L906.8125,138 L899.4219,138 L899.4219,135.8438 L901.8906,135.8438 L901.8906,127.7656 L899.4219,127.7656 Z " fill="#000000"/><text fill="#000000" font-family="sans-serif" font-size="14" font-style="italic" lengthAdjust="spacing" textLength="43" x="917.5" y="136.8467">ICpuId</text></g><!--class CpuIdXmlFactory--><g id="elem_CpuIdXmlFactory"><rect codeLine="14" fill="#F1F1F1" height="32" id="CpuIdXmlFactory" rx="2.5" ry="2.5" style="stroke:#181818;stroke-width:0.5;" width="147" x="486.5" y="116"/><ellipse cx="501.5" cy="132" fill="#ADD1B2" rx="11" ry="11" style="stroke:#181818;stroke-width:1.0;"/><path d="M504.4688,137.6406 Q503.8906,137.9375 503.25,138.0781 Q502.6094,138.2344 501.9063,138.2344 Q499.4063,138.2344 498.0781,136.5938 Q496.7656,134.9375 496.7656,131.8125 Q496.7656,128.6875 498.0781,127.0313 Q499.4063,125.375 501.9063,125.375 Q502.6094,125.375 503.25,125.5313 Q503.9063,125.6875 504.4688,125.9844 L504.4688,128.7031 Q503.8438,128.125 503.25,127.8594 Q502.6563,127.5781 502.0313,127.5781 Q500.6875,127.5781 500,128.6563 Q499.3125,129.7188 499.3125,131.8125 Q499.3125,133.9063 500,134.9844 Q500.6875,136.0469 502.0313,136.0469 Q502.6563,136.0469 503.25,135.7813 Q503.8438,135.5 504.4688,134.9219 L504.4688,137.6406 Z " fill="#000000"/><text fill="#000000" font-family="sans-serif" font-size="14" lengthAdjust="spacing" textLength="115" x="515.5" y="136.8467">CpuIdXmlFactory</text></g><!--class CpuIdFactory--><g id="elem_CpuIdFactory"><rect codeLine="15" fill="#F1F1F1" height="32" id="CpuIdFactory" rx="2.5" ry="2.5" style="stroke:#181818;stroke-width:0.5;" width="122" x="668" y="116"/><ellipse cx="683" cy="132" fill="#ADD1B2" rx="11" ry="11" style="stroke:#181818;stroke-width:1.0;"/><path d="M685.9688,137.6406 Q685.3906,137.9375 684.75,138.0781 Q684.1094,138.2344 683.4063,138.2344 Q680.9063,138.2344 679.5781,136.5938 Q678.2656,134.9375 678.2656,131.8125 Q678.2656,128.6875 679.5781,127.0313 Q680.9063,125.375 683.4063,125.375 Q684.1094,125.375 684.75,125.5313 Q685.4063,125.6875 685.9688,125.9844 L685.9688,128.7031 Q685.3438,128.125 684.75,127.8594 Q684.1563,127.5781 683.5313,127.5781 Q682.1875,127.5781 681.5,128.6563 Q680.8125,129.7188 680.8125,131.8125 Q680.8125,133.9063 681.5,134.9844 Q682.1875,136.0469 683.5313,136.0469 Q684.1563,136.0469 684.75,135.7813 Q685.3438,135.5 685.9688,134.9219 L685.9688,137.6406 Z " fill="#000000"/><text fill="#000000" font-family="sans-serif" font-size="14" lengthAdjust="spacing" textLength="90" x="697" y="136.8467">CpuIdFactory</text></g><!--entity x86cpuidwin--><g id="elem_x86cpuidwin"><rect fill="#F1F1F1" height="46.2969" rx="2.5" ry="2.5" style="stroke:#181818;stroke-width:0.5;" width="127" x="1205.5" y="417"/><rect fill="#F1F1F1" height="10" style="stroke:#181818;stroke-width:0.5;" width="15" x="1312.5" y="422"/><rect fill="#F1F1F1" height="2" style="stroke:#181818;stroke-width:0.5;" width="4" x="1310.5" y="424"/><rect fill="#F1F1F1" height="2" style="stroke:#181818;stroke-width:0.5;" width="4" x="1310.5" y="428"/><text fill="#000000" font-family="sans-serif" font-size="14" lengthAdjust="spacing" textLength="87" x="1220.5" y="449.9951">x86\cpuid.dll</text></g><!--entity x64cpuidwin--><g id="elem_x64cpuidwin"><rect fill="#F1F1F1" height="46.2969" rx="2.5" ry="2.5" style="stroke:#181818;stroke-width:0.5;" width="127" x="1367.5" y="417"/><rect fill="#F1F1F1" height="10" style="stroke:#181818;stroke-width:0.5;" width="15" x="1474.5" y="422"/><rect fill="#F1F1F1" height="2" style="stroke:#181818;stroke-width:0.5;" width="4" x="1472.5" y="424"/><rect fill="#F1F1F1" height="2" style="stroke:#181818;stroke-width:0.5;" width="4" x="1472.5" y="428"/><text fill="#000000" font-family="sans-serif" font-size="14" lengthAdjust="spacing" textLength="87" x="1382.5" y="449.9951">x64\cpuid.dll</text></g><g id="elem_CpuIdXmlFactorylol8"><ellipse cx="560" cy="23" fill="#F1F1F1" rx="5" ry="5" style="stroke:#181818;stroke-width:1.5;"/></g><text fill="#000000" font-family="sans-serif" font-size="14" lengthAdjust="spacing" textLength="93" x="513.5" y="40.9951">ICpuIdFactory</text><g id="elem_CpuIdFactorylol11"><ellipse cx="729" cy="23" fill="#F1F1F1" rx="5" ry="5" style="stroke:#181818;stroke-width:1.5;"/></g><text fill="#000000" font-family="sans-serif" font-size="14" lengthAdjust="spacing" textLength="93" x="682.5" y="40.9951">ICpuIdFactory</text><!--link CpuIdXmlFactorylol8 to CpuIdXmlFactory--><g id="link_CpuIdXmlFactorylol8_CpuIdXmlFactory"><path d="M560,28.33 C560,42.95 560,90.99 560,115.83 " fill="none" id="CpuIdXmlFactorylol8-CpuIdXmlFactory" style="stroke:#181818;stroke-width:1.0;"/></g><!--link CpuIdFactorylol11 to CpuIdFactory--><g id="link_CpuIdFactorylol11_CpuIdFactory"><path d="M729,28.33 C729,42.95 729,90.99 729,115.83 " fill="none" id="CpuIdFactorylol11-CpuIdFactory" style="stroke:#181818;stroke-width:1.0;"/></g><!--reverse link X86CpuIdFactoryBase to X86CpuIdFactory--><g id="link_X86CpuIdFactoryBase_X86CpuIdFactory"><path codeLine="37" d="M592.56,345.62 C620.45,352.91 651.68,361.44 680,370 C735.95,386.91 799.63,409.09 840.51,423.71 " fill="none" id="X86CpuIdFactoryBase-backto-X86CpuIdFactory" style="stroke:#181818;stroke-width:1.0;"/><polygon fill="none" points="591.08,352.21,573.46,340.43,594.58,338.65,591.08,352.21" style="stroke:#181818;stroke-width:1.0;"/></g><!--link CpuIdFactory to WindowsCpuIdFactory--><g id="link_CpuIdFactory_WindowsCpuIdFactory"><path codeLine="39" d="M790.25,140.91 C842.07,149.77 916.67,167.78 973,203 C1014.84,229.15 1050.21,276.08 1068.22,302.85 " fill="none" id="CpuIdFactory-to-WindowsCpuIdFactory" style="stroke:#181818;stroke-width:1.0;"/><polygon fill="#181818" points="1071.38,306.6,1069.7544,296.8862,1068.623,302.4288,1063.0804,301.2974,1071.38,306.6" style="stroke:#181818;stroke-width:1.0;"/><text fill="#000000" font-family="sans-serif" font-size="13" lengthAdjust="spacing" textLength="64" x="956" y="191.0669">&#171;creates&#187;</text></g><!--link CpuIdFactory to ICpuId--><g id="link_CpuIdFactory_ICpuId"><path codeLine="40" d="M790.25,132 C819.97,132 854.99,132 882.02,132 " fill="none" id="CpuIdFactory-to-ICpuId" style="stroke:#181818;stroke-width:1.0;stroke-dasharray:7.0,7.0;"/><polygon fill="#181818" points="887.01,132,878.01,128,882.01,132,878.01,136,887.01,132" style="stroke:#181818;stroke-width:1.0;"/><text fill="#000000" font-family="sans-serif" font-size="13" lengthAdjust="spacing" textLength="62" x="808.25" y="125.0669">&#171;returns&#187;</text></g><!--link WindowsCpuIdFactory to X86CpuIdFactory--><g id="link_WindowsCpuIdFactory_X86CpuIdFactory"><path codeLine="42" d="M1054.3,340.39 C1018.03,361.3 953.3,398.62 914.64,420.91 " fill="none" id="WindowsCpuIdFactory-to-X86CpuIdFactory" style="stroke:#181818;stroke-width:1.0;"/><polygon fill="#181818" points="910.6,423.81,920.3941,422.7726,914.9297,421.3093,916.393,415.845,910.6,423.81" style="stroke:#181818;stroke-width:1.0;"/><text fill="#000000" font-family="sans-serif" font-size="13" lengthAdjust="spacing" textLength="64" x="1000" y="383.0669">&#171;creates&#187;</text></g><!--link WindowsCpuIdFactory to x86cpuidwin--><g id="link_WindowsCpuIdFactory_x86cpuidwin"><path codeLine="43" d="M1106.35,340.39 C1138.63,359.99 1194.64,394 1231.76,416.54 " fill="none" id="WindowsCpuIdFactory-x86cpuidwin" style="stroke:#181818;stroke-width:1.0;"/></g><!--link WindowsCpuIdFactory to x64cpuidwin--><g id="link_WindowsCpuIdFactory_x64cpuidwin"><path codeLine="44" d="M1128.2,340.39 C1189.87,360.51 1298.09,395.8 1367.07,418.3 " fill="none" id="WindowsCpuIdFactory-x64cpuidwin" style="stroke:#181818;stroke-width:1.0;"/></g><!--link X86CpuIdFactoryBase to GenuineIntelCpu--><g id="link_X86CpuIdFactoryBase_GenuineIntelCpu"><path codeLine="46" d="M485.32,340.37 C471.4,349.05 453.72,360.1 438,370 C413.42,385.48 385.79,403.01 364.5,416.54 " fill="none" id="X86CpuIdFactoryBase-to-GenuineIntelCpu" style="stroke:#181818;stroke-width:1.0;stroke-dasharray:7.0,7.0;"/><polygon fill="#181818" points="360.5,419.72,370.2395,418.2564,364.7165,417.0328,365.9401,411.5099,360.5,419.72" style="stroke:#181818;stroke-width:1.0;"/><text fill="#000000" font-family="sans-serif" font-size="13" lengthAdjust="spacing" textLength="62" x="439" y="383.0669">&#171;returns&#187;</text></g><!--link X86CpuIdFactoryBase to GenericIntelCpu--><g id="link_X86CpuIdFactoryBase_GenericIntelCpu"><path codeLine="47" d="M510,340.39 C510,359.27 510,391.54 510,414.03 " fill="none" id="X86CpuIdFactoryBase-to-GenericIntelCpu" style="stroke:#181818;stroke-width:1.0;stroke-dasharray:7.0,7.0;"/><polygon fill="#181818" points="510,418.81,514,409.81,510,413.81,506,409.81,510,418.81" style="stroke:#181818;stroke-width:1.0;"/><text fill="#000000" font-family="sans-serif" font-size="13" lengthAdjust="spacing" textLength="62" x="511" y="383.0669">&#171;returns&#187;</text></g><!--link X86CpuIdFactoryBase to AuthenticAmdCpu--><g id="link_X86CpuIdFactoryBase_AuthenticAmdCpu"><path codeLine="48" d="M534.95,340.39 C566.76,360.02 622,394.11 658.53,416.65 " fill="none" id="X86CpuIdFactoryBase-to-AuthenticAmdCpu" style="stroke:#181818;stroke-width:1.0;stroke-dasharray:7.0,7.0;"/><polygon fill="#181818" points="662.34,419.61,656.7959,411.4698,658.0896,416.9767,652.5827,418.2705,662.34,419.61" style="stroke:#181818;stroke-width:1.0;"/><text fill="#000000" font-family="sans-serif" font-size="13" lengthAdjust="spacing" textLength="62" x="609" y="383.0669">&#171;returns&#187;</text></g><!--link CpuIdXmlFactory to X86CpuIdFactoryXml--><g id="link_CpuIdXmlFactory_X86CpuIdFactoryXml"><path codeLine="50" d="M486.25,144.89 C439.72,154.94 379.95,172.7 334,203 C243.98,262.36 171.79,373.38 144.63,418.89 " fill="none" id="CpuIdXmlFactory-to-X86CpuIdFactoryXml" style="stroke:#181818;stroke-width:1.0;"/><polygon fill="#181818" points="141.69,422.86,149.7282,417.169,144.2457,418.5625,142.8522,413.08,141.69,422.86" style="stroke:#181818;stroke-width:1.0;"/><text fill="#000000" font-family="sans-serif" font-size="13" lengthAdjust="spacing" textLength="64" x="335" y="328.5669">&#171;creates&#187;</text></g><!--link CpuIdXmlFactory to ICpuId--><g id="link_CpuIdXmlFactory_ICpuId"><path codeLine="51" d="M614.48,115.55 C686.33,94.96 808.74,63.99 852,78.08 C872.55,84.77 892.14,99.56 905.99,111.96 " fill="none" id="CpuIdXmlFactory-to-ICpuId" style="stroke:#181818;stroke-width:1.0;stroke-dasharray:7.0,7.0;"/><polygon fill="#181818" points="909.11,114.72,905.1516,105.7016,905.4142,111.3524,899.7634,111.6149,909.11,114.72" style="stroke:#181818;stroke-width:1.0;"/><text fill="#000000" font-family="sans-serif" font-size="13" lengthAdjust="spacing" textLength="62" x="789" y="82.0669">&#171;returns&#187;</text></g><!--reverse link X86CpuIdFactoryBase to X86CpuIdFactoryXml--><g id="link_X86CpuIdFactoryBase_X86CpuIdFactoryXml"><path codeLine="52" d="M439.35,346.39 C365.01,368.9 249.85,403.77 183.94,423.72 " fill="none" id="X86CpuIdFactoryBase-backto-X86CpuIdFactoryXml" style="stroke:#181818;stroke-width:1.0;"/><polygon fill="none" points="436.99,339.49,458.16,340.39,441.04,352.89,436.99,339.49" style="stroke:#181818;stroke-width:1.0;"/></g><!--SRC=[fPJHJi8m58Rl-nIzGo_MAx8GGvQWYOONK1BnedP7QT9sIzi5YFBkTcDpxUZ027Sx_VhtdF_yWGfHR2NVSVM9DZm73BAqUon1leCs286g97uegsTGUQ6FIF-99bnPq1-K0LwwyZ9_fCmMUe-_y04DpvhYf948uA3cD4CbGhhhTtW-rs0hhKoM8SG4DGOtHoif_8Uz4x-CM27BGe6o-7KtIzThLbOy9xaGRvWQx4fDOSjLGARJ4pAT_f8exFRcDac6FOqYtJbIL88fQwTQen1sl-COBznPlJMdqzJ8u29PEij5UxsNMCrI__ezDT18dAKk4sx2lfEUUdAPuGgQLXpkbdQSFyiYaWu6pTdVu4LbDsudd2raFW8VaEl7yuB4Pfz_Tnk8Gwr2PqIIP2qTsqMTIgQ1MgXJ6KOt6udkk5h_LhIps6iZEa6UpuD-d2zvHqZOu73RuQJ_K0lYS9tQC2-nBNX_7HUyh-CUiTyJ6DltjNbqJ_m0]--></g></svg>