<?xml version="1.0" encoding="us-ascii" standalone="no"?><svg xmlns="http://www.w3.org/2000/svg" xmlns:xlink="http://www.w3.org/1999/xlink" contentStyleType="text/css" height="836px" preserveAspectRatio="none" style="width:1427px;height:836px;background:#FFFFFF;" version="1.1" viewBox="0 0 1427 836" width="1427px" zoomAndPan="magnify"><defs/><g><!--cluster Native--><g id="cluster_Native"><path d="M1215.5,598.4 L1265.5,598.4 A3.75,3.75 0 0 1 1268,600.9 L1275,620.6969 L1338.5,620.6969 A2.5,2.5 0 0 1 1341,623.1969 L1341,701.13 A2.5,2.5 0 0 1 1338.5,703.63 L1215.5,703.63 A2.5,2.5 0 0 1 1213,701.13 L1213,600.9 A2.5,2.5 0 0 1 1215.5,598.4 " fill="none" style="stroke:#000000;stroke-width:1.5;"/><line style="stroke:#000000;stroke-width:1.5;" x1="1213" x2="1275" y1="620.6969" y2="620.6969"/><text fill="#000000" font-family="sans-serif" font-size="14" font-weight="bold" lengthAdjust="spacing" textLength="49" x="1217" y="613.3951">Native</text></g><!--cluster CpuId--><g id="cluster_CpuId"><path d="M8.5,304 L54.5,304 A3.75,3.75 0 0 1 57,306.5 L64,326.2969 L1186.5,326.2969 A2.5,2.5 0 0 1 1189,328.7969 L1189,718.15 A2.5,2.5 0 0 1 1186.5,720.65 L8.5,720.65 A2.5,2.5 0 0 1 6,718.15 L6,306.5 A2.5,2.5 0 0 1 8.5,304 " fill="none" style="stroke:#000000;stroke-width:1.5;"/><line style="stroke:#000000;stroke-width:1.5;" x1="6" x2="64" y1="326.2969" y2="326.2969"/><text fill="#000000" font-family="sans-serif" font-size="14" font-weight="bold" lengthAdjust="spacing" textLength="45" x="10" y="318.9951">CpuId</text></g><!--cluster Intel--><g id="cluster_Intel"><path d="M32.5,347 L67.5,347 A3.75,3.75 0 0 1 70,349.5 L77,369.2969 L970.5,369.2969 A2.5,2.5 0 0 1 973,371.7969 L973,694.15 A2.5,2.5 0 0 1 970.5,696.65 L32.5,696.65 A2.5,2.5 0 0 1 30,694.15 L30,349.5 A2.5,2.5 0 0 1 32.5,347 " fill="none" style="stroke:#000000;stroke-width:1.5;"/><line style="stroke:#000000;stroke-width:1.5;" x1="30" x2="77" y1="369.2969" y2="369.2969"/><text fill="#000000" font-family="sans-serif" font-size="14" font-weight="bold" lengthAdjust="spacing" textLength="34" x="34" y="361.9951">Intel</text></g><!--class CpuIdLib--><g id="elem_CpuIdLib"><rect codeLine="31" fill="#B0C0F0" height="54.2344" id="CpuIdLib" rx="2.5" ry="2.5" style="stroke:#181818;stroke-width:0.5;" width="96" x="1229" y="633.4"/><ellipse cx="1244" cy="660.5172" fill="#ADD1B2" rx="11" ry="11" style="stroke:#181818;stroke-width:1.0;"/><path d="M1246.9688,666.1578 Q1246.3906,666.4547 1245.75,666.5953 Q1245.1094,666.7516 1244.4063,666.7516 Q1241.9063,666.7516 1240.5781,665.1109 Q1239.2656,663.4547 1239.2656,660.3297 Q1239.2656,657.2047 1240.5781,655.5484 Q1241.9063,653.8922 1244.4063,653.8922 Q1245.1094,653.8922 1245.75,654.0484 Q1246.4063,654.2047 1246.9688,654.5016 L1246.9688,657.2203 Q1246.3438,656.6422 1245.75,656.3766 Q1245.1563,656.0953 1244.5313,656.0953 Q1243.1875,656.0953 1242.5,657.1734 Q1241.8125,658.2359 1241.8125,660.3297 Q1241.8125,662.4234 1242.5,663.5016 Q1243.1875,664.5641 1244.5313,664.5641 Q1245.1563,664.5641 1245.75,664.2984 Q1246.3438,664.0172 1246.9688,663.4391 L1246.9688,666.1578 Z " fill="#000000"/><text fill="#000000" font-family="sans-serif" font-size="12" font-style="italic" lengthAdjust="spacing" textLength="49" x="1265.5" y="649.5387">&#171;static&#187;</text><text fill="#000000" font-family="sans-serif" font-size="12" font-style="italic" lengthAdjust="spacing" textLength="68" x="1256" y="663.5074">&#171;Windows&#187;</text><text fill="#000000" font-family="sans-serif" font-size="14" lengthAdjust="spacing" textLength="59" x="1260.5" y="679.3326">CpuIdLib</text></g><!--class WindowsCpuIdFactory--><g id="elem_WindowsCpuIdFactory"><rect codeLine="35" fill="#B0C0F0" height="40.2656" id="WindowsCpuIdFactory" rx="2.5" ry="2.5" style="stroke:#181818;stroke-width:0.5;" width="184" x="989" y="377.86"/><ellipse cx="1004" cy="397.9928" fill="#ADD1B2" rx="11" ry="11" style="stroke:#181818;stroke-width:1.0;"/><path d="M1006.9688,403.6334 Q1006.3906,403.9303 1005.75,404.0709 Q1005.1094,404.2272 1004.4063,404.2272 Q1001.9063,404.2272 1000.5781,402.5866 Q999.2656,400.9303 999.2656,397.8053 Q999.2656,394.6803 1000.5781,393.0241 Q1001.9063,391.3678 1004.4063,391.3678 Q1005.1094,391.3678 1005.75,391.5241 Q1006.4063,391.6803 1006.9688,391.9772 L1006.9688,394.6959 Q1006.3438,394.1178 1005.75,393.8522 Q1005.1563,393.5709 1004.5313,393.5709 Q1003.1875,393.5709 1002.5,394.6491 Q1001.8125,395.7116 1001.8125,397.8053 Q1001.8125,399.8991 1002.5,400.9772 Q1003.1875,402.0397 1004.5313,402.0397 Q1005.1563,402.0397 1005.75,401.7741 Q1006.3438,401.4928 1006.9688,400.9147 L1006.9688,403.6334 Z " fill="#000000"/><text fill="#000000" font-family="sans-serif" font-size="12" font-style="italic" lengthAdjust="spacing" textLength="68" x="1060" y="393.9987">&#171;Windows&#187;</text><text fill="#000000" font-family="sans-serif" font-size="14" lengthAdjust="spacing" textLength="152" x="1018" y="409.8239">WindowsCpuIdFactory</text></g><!--class X86CpuIdFactoryBase--><g id="elem_X86CpuIdFactoryBase"><rect codeLine="38" fill="#F1F1F1" height="32" id="X86CpuIdFactoryBase" rx="2.5" ry="2.5" style="stroke:#181818;stroke-width:0.5;" width="184" x="418" y="382"/><ellipse cx="433" cy="398" fill="#ADD1B2" rx="11" ry="11" style="stroke:#181818;stroke-width:1.0;"/><path d="M435.9688,403.6406 Q435.3906,403.9375 434.75,404.0781 Q434.1094,404.2344 433.4063,404.2344 Q430.9063,404.2344 429.5781,402.5938 Q428.2656,400.9375 428.2656,397.8125 Q428.2656,394.6875 429.5781,393.0313 Q430.9063,391.375 433.4063,391.375 Q434.1094,391.375 434.75,391.5313 Q435.4063,391.6875 435.9688,391.9844 L435.9688,394.7031 Q435.3438,394.125 434.75,393.8594 Q434.1563,393.5781 433.5313,393.5781 Q432.1875,393.5781 431.5,394.6563 Q430.8125,395.7188 430.8125,397.8125 Q430.8125,399.9063 431.5,400.9844 Q432.1875,402.0469 433.5313,402.0469 Q434.1563,402.0469 434.75,401.7813 Q435.3438,401.5 435.9688,400.9219 L435.9688,403.6406 Z " fill="#000000"/><text fill="#000000" font-family="sans-serif" font-size="14" lengthAdjust="spacing" textLength="152" x="447" y="402.8467">X86CpuIdFactoryBase</text></g><!--class X86CpuIdFactory--><g id="elem_X86CpuIdFactory"><rect codeLine="39" fill="#B0C0F0" height="40.2656" id="X86CpuIdFactory" rx="2.5" ry="2.5" style="stroke:#181818;stroke-width:0.5;" width="149" x="808.5" y="495.13"/><ellipse cx="823.5" cy="515.2628" fill="#ADD1B2" rx="11" ry="11" style="stroke:#181818;stroke-width:1.0;"/><path d="M826.4688,520.9034 Q825.8906,521.2003 825.25,521.3409 Q824.6094,521.4972 823.9063,521.4972 Q821.4063,521.4972 820.0781,519.8566 Q818.7656,518.2003 818.7656,515.0753 Q818.7656,511.9503 820.0781,510.2941 Q821.4063,508.6378 823.9063,508.6378 Q824.6094,508.6378 825.25,508.7941 Q825.9063,508.9503 826.4688,509.2472 L826.4688,511.9659 Q825.8438,511.3878 825.25,511.1222 Q824.6563,510.8409 824.0313,510.8409 Q822.6875,510.8409 822,511.9191 Q821.3125,512.9816 821.3125,515.0753 Q821.3125,517.1691 822,518.2472 Q822.6875,519.3097 824.0313,519.3097 Q824.6563,519.3097 825.25,519.0441 Q825.8438,518.7628 826.4688,518.1847 L826.4688,520.9034 Z " fill="#000000"/><text fill="#000000" font-family="sans-serif" font-size="12" font-style="italic" lengthAdjust="spacing" textLength="68" x="862" y="511.2687">&#171;Windows&#187;</text><text fill="#000000" font-family="sans-serif" font-size="14" lengthAdjust="spacing" textLength="117" x="837.5" y="527.0939">X86CpuIdFactory</text></g><!--class X86CpuIdFactoryXml--><g id="elem_X86CpuIdFactoryXml"><rect codeLine="40" fill="#F1F1F1" height="32" id="X86CpuIdFactoryXml" rx="2.5" ry="2.5" style="stroke:#181818;stroke-width:0.5;" width="174" x="46" y="499.26"/><ellipse cx="61" cy="515.26" fill="#ADD1B2" rx="11" ry="11" style="stroke:#181818;stroke-width:1.0;"/><path d="M63.9688,520.9006 Q63.3906,521.1975 62.75,521.3381 Q62.1094,521.4944 61.4063,521.4944 Q58.9063,521.4944 57.5781,519.8538 Q56.2656,518.1975 56.2656,515.0725 Q56.2656,511.9475 57.5781,510.2913 Q58.9063,508.635 61.4063,508.635 Q62.1094,508.635 62.75,508.7913 Q63.4063,508.9475 63.9688,509.2444 L63.9688,511.9631 Q63.3438,511.385 62.75,511.1194 Q62.1563,510.8381 61.5313,510.8381 Q60.1875,510.8381 59.5,511.9163 Q58.8125,512.9788 58.8125,515.0725 Q58.8125,517.1663 59.5,518.2444 Q60.1875,519.3069 61.5313,519.3069 Q62.1563,519.3069 62.75,519.0413 Q63.3438,518.76 63.9688,518.1819 L63.9688,520.9006 Z " fill="#000000"/><text fill="#000000" font-family="sans-serif" font-size="14" lengthAdjust="spacing" textLength="142" x="75" y="520.1067">X86CpuIdFactoryXml</text></g><!--class BasicCpu--><g id="elem_BasicCpu"><rect codeLine="42" fill="#B0C0F0" height="40.2656" id="BasicCpu" rx="2.5" ry="2.5" style="stroke:#181818;stroke-width:0.5;" width="97" x="646.5" y="640.38"/><ellipse cx="661.5" cy="660.5128" fill="#ADD1B2" rx="11" ry="11" style="stroke:#181818;stroke-width:1.0;"/><path d="M664.4688,666.1534 Q663.8906,666.4503 663.25,666.5909 Q662.6094,666.7472 661.9063,666.7472 Q659.4063,666.7472 658.0781,665.1066 Q656.7656,663.4503 656.7656,660.3253 Q656.7656,657.2003 658.0781,655.5441 Q659.4063,653.8878 661.9063,653.8878 Q662.6094,653.8878 663.25,654.0441 Q663.9063,654.2003 664.4688,654.4972 L664.4688,657.2159 Q663.8438,656.6378 663.25,656.3722 Q662.6563,656.0909 662.0313,656.0909 Q660.6875,656.0909 660,657.1691 Q659.3125,658.2316 659.3125,660.3253 Q659.3125,662.4191 660,663.4972 Q660.6875,664.5597 662.0313,664.5597 Q662.6563,664.5597 663.25,664.2941 Q663.8438,664.0128 664.4688,663.4347 L664.4688,666.1534 Z " fill="#000000"/><text fill="#000000" font-family="sans-serif" font-size="12" font-style="italic" lengthAdjust="spacing" textLength="68" x="674" y="656.5187">&#171;Windows&#187;</text><text fill="#000000" font-family="sans-serif" font-size="14" lengthAdjust="spacing" textLength="65" x="675.5" y="672.3439">BasicCpu</text></g><!--class CpuRegisters--><g id="elem_CpuRegisters"><rect codeLine="43" fill="#B0C0F0" height="40.2656" id="CpuRegisters" rx="2.5" ry="2.5" style="stroke:#181818;stroke-width:0.5;" width="126" x="804" y="640.38"/><ellipse cx="819" cy="660.5128" fill="#ADD1B2" rx="11" ry="11" style="stroke:#181818;stroke-width:1.0;"/><path d="M821.9688,666.1534 Q821.3906,666.4503 820.75,666.5909 Q820.1094,666.7472 819.4063,666.7472 Q816.9063,666.7472 815.5781,665.1066 Q814.2656,663.4503 814.2656,660.3253 Q814.2656,657.2003 815.5781,655.5441 Q816.9063,653.8878 819.4063,653.8878 Q820.1094,653.8878 820.75,654.0441 Q821.4063,654.2003 821.9688,654.4972 L821.9688,657.2159 Q821.3438,656.6378 820.75,656.3722 Q820.1563,656.0909 819.5313,656.0909 Q818.1875,656.0909 817.5,657.1691 Q816.8125,658.2316 816.8125,660.3253 Q816.8125,662.4191 817.5,663.4972 Q818.1875,664.5597 819.5313,664.5597 Q820.1563,664.5597 820.75,664.2941 Q821.3438,664.0128 821.9688,663.4347 L821.9688,666.1534 Z " fill="#000000"/><text fill="#000000" font-family="sans-serif" font-size="12" font-style="italic" lengthAdjust="spacing" textLength="68" x="846" y="656.5187">&#171;Windows&#187;</text><text fill="#000000" font-family="sans-serif" font-size="14" lengthAdjust="spacing" textLength="94" x="833" y="672.3439">CpuRegisters</text></g><!--class GenuineIntelCpu--><g id="elem_GenuineIntelCpu"><rect codeLine="45" fill="#F1F1F1" height="40.2656" id="GenuineIntelCpu" rx="2.5" ry="2.5" style="stroke:#181818;stroke-width:0.5;" width="148" x="255" y="495.13"/><ellipse cx="270" cy="515.2628" fill="#ADD1B2" rx="11" ry="11" style="stroke:#181818;stroke-width:1.0;"/><path d="M272.9688,520.9034 Q272.3906,521.2003 271.75,521.3409 Q271.1094,521.4972 270.4063,521.4972 Q267.9063,521.4972 266.5781,519.8566 Q265.2656,518.2003 265.2656,515.0753 Q265.2656,511.9503 266.5781,510.2941 Q267.9063,508.6378 270.4063,508.6378 Q271.1094,508.6378 271.75,508.7941 Q272.4063,508.9503 272.9688,509.2472 L272.9688,511.9659 Q272.3438,511.3878 271.75,511.1222 Q271.1563,510.8409 270.5313,510.8409 Q269.1875,510.8409 268.5,511.9191 Q267.8125,512.9816 267.8125,515.0753 Q267.8125,517.1691 268.5,518.2472 Q269.1875,519.3097 270.5313,519.3097 Q271.1563,519.3097 271.75,519.0441 Q272.3438,518.7628 272.9688,518.1847 L272.9688,520.9034 Z " fill="#000000"/><text fill="#000000" font-family="sans-serif" font-size="12" font-style="italic" lengthAdjust="spacing" textLength="52" x="316" y="511.2687">&#171;ICpuId&#187;</text><text fill="#000000" font-family="sans-serif" font-size="14" lengthAdjust="spacing" textLength="116" x="284" y="527.0939">GenuineIntelCpu</text></g><!--class GenericIntelCpu--><g id="elem_GenericIntelCpu"><rect codeLine="46" fill="#F1F1F1" height="40.2656" id="GenericIntelCpu" rx="2.5" ry="2.5" style="stroke:#181818;stroke-width:0.5;" width="143" x="438.5" y="495.13"/><ellipse cx="453.5" cy="515.2628" fill="#ADD1B2" rx="11" ry="11" style="stroke:#181818;stroke-width:1.0;"/><path d="M456.4688,520.9034 Q455.8906,521.2003 455.25,521.3409 Q454.6094,521.4972 453.9063,521.4972 Q451.4063,521.4972 450.0781,519.8566 Q448.7656,518.2003 448.7656,515.0753 Q448.7656,511.9503 450.0781,510.2941 Q451.4063,508.6378 453.9063,508.6378 Q454.6094,508.6378 455.25,508.7941 Q455.9063,508.9503 456.4688,509.2472 L456.4688,511.9659 Q455.8438,511.3878 455.25,511.1222 Q454.6563,510.8409 454.0313,510.8409 Q452.6875,510.8409 452,511.9191 Q451.3125,512.9816 451.3125,515.0753 Q451.3125,517.1691 452,518.2472 Q452.6875,519.3097 454.0313,519.3097 Q454.6563,519.3097 455.25,519.0441 Q455.8438,518.7628 456.4688,518.1847 L456.4688,520.9034 Z " fill="#000000"/><text fill="#000000" font-family="sans-serif" font-size="12" font-style="italic" lengthAdjust="spacing" textLength="52" x="497" y="511.2687">&#171;ICpuId&#187;</text><text fill="#000000" font-family="sans-serif" font-size="14" lengthAdjust="spacing" textLength="111" x="467.5" y="527.0939">GenericIntelCpu</text></g><!--class AuthenticAmdCpu--><g id="elem_AuthenticAmdCpu"><rect codeLine="47" fill="#F1F1F1" height="40.2656" id="AuthenticAmdCpu" rx="2.5" ry="2.5" style="stroke:#181818;stroke-width:0.5;" width="157" x="616.5" y="495.13"/><ellipse cx="631.5" cy="515.2628" fill="#ADD1B2" rx="11" ry="11" style="stroke:#181818;stroke-width:1.0;"/><path d="M634.4688,520.9034 Q633.8906,521.2003 633.25,521.3409 Q632.6094,521.4972 631.9063,521.4972 Q629.4063,521.4972 628.0781,519.8566 Q626.7656,518.2003 626.7656,515.0753 Q626.7656,511.9503 628.0781,510.2941 Q629.4063,508.6378 631.9063,508.6378 Q632.6094,508.6378 633.25,508.7941 Q633.9063,508.9503 634.4688,509.2472 L634.4688,511.9659 Q633.8438,511.3878 633.25,511.1222 Q632.6563,510.8409 632.0313,510.8409 Q630.6875,510.8409 630,511.9191 Q629.3125,512.9816 629.3125,515.0753 Q629.3125,517.1691 630,518.2472 Q630.6875,519.3097 632.0313,519.3097 Q632.6563,519.3097 633.25,519.0441 Q633.8438,518.7628 634.4688,518.1847 L634.4688,520.9034 Z " fill="#000000"/><text fill="#000000" font-family="sans-serif" font-size="12" font-style="italic" lengthAdjust="spacing" textLength="52" x="682" y="511.2687">&#171;ICpuId&#187;</text><text fill="#000000" font-family="sans-serif" font-size="14" lengthAdjust="spacing" textLength="125" x="645.5" y="527.0939">AuthenticAmdCpu</text></g><!--class CpuVendor--><!--class ICpuId--><g id="elem_ICpuId"><rect codeLine="15" fill="#F1F1F1" height="32" id="ICpuId" rx="2.5" ry="2.5" style="stroke:#181818;stroke-width:0.5;" width="75" x="287.5" y="209"/><ellipse cx="302.5" cy="225" fill="#B4A7E5" rx="11" ry="11" style="stroke:#181818;stroke-width:1.0;"/><path d="M298.4219,220.7656 L298.4219,218.6094 L305.8125,218.6094 L305.8125,220.7656 L303.3438,220.7656 L303.3438,228.8438 L305.8125,228.8438 L305.8125,231 L298.4219,231 L298.4219,228.8438 L300.8906,228.8438 L300.8906,220.7656 L298.4219,220.7656 Z " fill="#000000"/><text fill="#000000" font-family="sans-serif" font-size="14" font-style="italic" lengthAdjust="spacing" textLength="43" x="316.5" y="229.8467">ICpuId</text></g><!--class CpuIdXmlFactory--><g id="elem_CpuIdXmlFactory"><rect codeLine="21" fill="#F1F1F1" height="32" id="CpuIdXmlFactory" rx="2.5" ry="2.5" style="stroke:#181818;stroke-width:0.5;" width="147" x="114.5" y="100"/><ellipse cx="129.5" cy="116" fill="#ADD1B2" rx="11" ry="11" style="stroke:#181818;stroke-width:1.0;"/><path d="M132.4688,121.6406 Q131.8906,121.9375 131.25,122.0781 Q130.6094,122.2344 129.9063,122.2344 Q127.4063,122.2344 126.0781,120.5938 Q124.7656,118.9375 124.7656,115.8125 Q124.7656,112.6875 126.0781,111.0313 Q127.4063,109.375 129.9063,109.375 Q130.6094,109.375 131.25,109.5313 Q131.9063,109.6875 132.4688,109.9844 L132.4688,112.7031 Q131.8438,112.125 131.25,111.8594 Q130.6563,111.5781 130.0313,111.5781 Q128.6875,111.5781 128,112.6563 Q127.3125,113.7188 127.3125,115.8125 Q127.3125,117.9063 128,118.9844 Q128.6875,120.0469 130.0313,120.0469 Q130.6563,120.0469 131.25,119.7813 Q131.8438,119.5 132.4688,118.9219 L132.4688,121.6406 Z " fill="#000000"/><text fill="#000000" font-family="sans-serif" font-size="14" lengthAdjust="spacing" textLength="115" x="143.5" y="120.8467">CpuIdXmlFactory</text></g><!--class CpuIdFactory--><g id="elem_CpuIdFactory"><rect codeLine="22" fill="#F1F1F1" height="32" id="CpuIdFactory" rx="2.5" ry="2.5" style="stroke:#181818;stroke-width:0.5;" width="122" x="346" y="100"/><ellipse cx="361" cy="116" fill="#ADD1B2" rx="11" ry="11" style="stroke:#181818;stroke-width:1.0;"/><path d="M363.9688,121.6406 Q363.3906,121.9375 362.75,122.0781 Q362.1094,122.2344 361.4063,122.2344 Q358.9063,122.2344 357.5781,120.5938 Q356.2656,118.9375 356.2656,115.8125 Q356.2656,112.6875 357.5781,111.0313 Q358.9063,109.375 361.4063,109.375 Q362.1094,109.375 362.75,109.5313 Q363.4063,109.6875 363.9688,109.9844 L363.9688,112.7031 Q363.3438,112.125 362.75,111.8594 Q362.1563,111.5781 361.5313,111.5781 Q360.1875,111.5781 359.5,112.6563 Q358.8125,113.7188 358.8125,115.8125 Q358.8125,117.9063 359.5,118.9844 Q360.1875,120.0469 361.5313,120.0469 Q362.1563,120.0469 362.75,119.7813 Q363.3438,119.5 363.9688,118.9219 L363.9688,121.6406 Z " fill="#000000"/><text fill="#000000" font-family="sans-serif" font-size="14" lengthAdjust="spacing" textLength="90" x="375" y="120.8467">CpuIdFactory</text></g><!--entity x86cpuidwin--><g id="elem_x86cpuidwin"><rect fill="#B0C0F0" height="62.5938" rx="2.5" ry="2.5" style="stroke:#181818;stroke-width:0.5;" width="127" x="1132.5" y="767.65"/><rect fill="#B0C0F0" height="10" style="stroke:#181818;stroke-width:0.5;" width="15" x="1239.5" y="772.65"/><rect fill="#B0C0F0" height="2" style="stroke:#181818;stroke-width:0.5;" width="4" x="1237.5" y="774.65"/><rect fill="#B0C0F0" height="2" style="stroke:#181818;stroke-width:0.5;" width="4" x="1237.5" y="778.65"/><text fill="#000000" font-family="sans-serif" font-size="14" font-style="italic" lengthAdjust="spacing" textLength="80" x="1151" y="800.6451">&#171;Windows&#187;</text><text fill="#000000" font-family="sans-serif" font-size="14" lengthAdjust="spacing" textLength="87" x="1147.5" y="816.942">x86\cpuid.dll</text></g><!--entity x64cpuidwin--><g id="elem_x64cpuidwin"><rect fill="#B0C0F0" height="62.5938" rx="2.5" ry="2.5" style="stroke:#181818;stroke-width:0.5;" width="127" x="1294.5" y="767.65"/><rect fill="#B0C0F0" height="10" style="stroke:#181818;stroke-width:0.5;" width="15" x="1401.5" y="772.65"/><rect fill="#B0C0F0" height="2" style="stroke:#181818;stroke-width:0.5;" width="4" x="1399.5" y="774.65"/><rect fill="#B0C0F0" height="2" style="stroke:#181818;stroke-width:0.5;" width="4" x="1399.5" y="778.65"/><text fill="#000000" font-family="sans-serif" font-size="14" font-style="italic" lengthAdjust="spacing" textLength="80" x="1313" y="800.6451">&#171;Windows&#187;</text><text fill="#000000" font-family="sans-serif" font-size="14" lengthAdjust="spacing" textLength="87" x="1309.5" y="816.942">x64\cpuid.dll</text></g><g id="elem_CpuIdXmlFactorylol8"><ellipse cx="188" cy="23" fill="#F1F1F1" rx="5" ry="5" style="stroke:#181818;stroke-width:1.5;"/></g><text fill="#000000" font-family="sans-serif" font-size="14" lengthAdjust="spacing" textLength="93" x="141.5" y="40.9951">ICpuIdFactory</text><g id="elem_CpuIdFactorylol11"><ellipse cx="407" cy="23" fill="#F1F1F1" rx="5" ry="5" style="stroke:#181818;stroke-width:1.5;"/></g><text fill="#000000" font-family="sans-serif" font-size="14" lengthAdjust="spacing" textLength="93" x="360.5" y="40.9951">ICpuIdFactory</text><!--link CpuIdXmlFactorylol8 to CpuIdXmlFactory--><g id="link_CpuIdXmlFactorylol8_CpuIdXmlFactory"><path d="M188,28.39 C188,41.1 188,78.38 188,99.65 " fill="none" id="CpuIdXmlFactorylol8-CpuIdXmlFactory" style="stroke:#181818;stroke-width:1.0;"/></g><!--link CpuIdFactorylol11 to CpuIdFactory--><g id="link_CpuIdFactorylol11_CpuIdFactory"><path d="M407,28.39 C407,41.1 407,78.38 407,99.65 " fill="none" id="CpuIdFactorylol11-CpuIdFactory" style="stroke:#181818;stroke-width:1.0;"/></g><!--reverse link X86CpuIdFactoryBase to X86CpuIdFactory--><g id="link_X86CpuIdFactoryBase_X86CpuIdFactory"><path codeLine="51" d="M587.93,420 C618.32,428.42 653.38,438.42 685,448.13 C733.16,462.92 787.39,481.15 826.91,494.72 " fill="none" id="X86CpuIdFactoryBase-backto-X86CpuIdFactory" style="stroke:#181818;stroke-width:1.0;"/><polygon fill="none" points="586.17,426.5,568.74,414.45,589.88,413.01,586.17,426.5" style="stroke:#181818;stroke-width:1.0;"/></g><!--link X86CpuIdFactory to BasicCpu--><g id="link_X86CpuIdFactory_BasicCpu"><path codeLine="52" d="M808.33,535.02 C788.93,542.31 769,552.19 753,565.4 C730.58,583.9 714.38,613.45 704.9,634.51 " fill="none" id="X86CpuIdFactory-to-BasicCpu" style="stroke:#181818;stroke-width:1.0;"/><polygon fill="#181818" points="702.52,638.93,709.8018,632.2986,704.5308,634.3522,702.4772,629.0812,702.52,638.93" style="stroke:#181818;stroke-width:1.0;"/><text fill="#000000" font-family="sans-serif" font-size="13" lengthAdjust="spacing" textLength="64" x="754" y="578.4669">&#171;creates&#187;</text></g><!--reverse link GenuineIntelCpu to BasicCpu--><g id="link_GenuineIntelCpu_BasicCpu"><path codeLine="53" d="M392.04,540.94 C464.1,569.14 580.51,614.7 646.07,640.36 " fill="none" id="GenuineIntelCpu-backto-BasicCpu" style="stroke:#181818;stroke-width:1.0;"/><polygon fill="none" points="380.12,535.88,384.2488,541.7921,391.2941,540.2548,387.1653,534.3427,380.12,535.88" style="stroke:#181818;stroke-width:1.0;"/></g><!--reverse link GenericIntelCpu to BasicCpu--><g id="link_GenericIntelCpu_BasicCpu"><path codeLine="54" d="M545.97,544.12 C582.36,572.29 637.66,615.12 669.67,639.9 " fill="none" id="GenericIntelCpu-backto-BasicCpu" style="stroke:#181818;stroke-width:1.0;"/><polygon fill="none" points="536.34,535.88,538.6381,542.7151,545.8314,543.2226,543.5332,536.3875,536.34,535.88" style="stroke:#181818;stroke-width:1.0;"/></g><!--reverse link AuthenticAmdCpu to BasicCpu--><g id="link_AuthenticAmdCpu_BasicCpu"><path codeLine="55" d="M695,549.8 C695,577.88 695,616.99 695,640.13 " fill="none" id="AuthenticAmdCpu-backto-BasicCpu" style="stroke:#181818;stroke-width:1.0;"/><polygon fill="none" points="695,536.88,691,542.88,695,548.88,699,542.88,695,536.88" style="stroke:#181818;stroke-width:1.0;"/></g><!--reverse link BasicCpu to CpuRegisters--><g id="link_BasicCpu_CpuRegisters"><path codeLine="56" d="M757.35,660.51 C772.87,660.51 788.39,660.51 803.91,660.51 " fill="none" id="BasicCpu-backto-CpuRegisters" style="stroke:#181818;stroke-width:1.0;"/><polygon fill="#181818" points="744.71,660.51,750.71,664.51,756.71,660.51,750.71,656.51,744.71,660.51" style="stroke:#181818;stroke-width:1.0;"/></g><!--link CpuRegisters to CpuIdLib--><g id="link_CpuRegisters_CpuIdLib"><path codeLine="57" d="M930.26,660.51 C1029.7,660.51 1129.14,660.51 1228.58,660.51 " fill="none" id="CpuRegisters-CpuIdLib" style="stroke:#181818;stroke-width:1.0;"/></g><!--link CpuIdFactory to WindowsCpuIdFactory--><g id="link_CpuIdFactory_WindowsCpuIdFactory"><path codeLine="59" d="M468.46,127.16 C576.48,146.97 804.85,197.68 973,296 C1008.11,316.53 1041.13,350.33 1061.2,373.12 " fill="none" id="CpuIdFactory-to-WindowsCpuIdFactory" style="stroke:#181818;stroke-width:1.0;"/><polygon fill="#181818" points="1065.03,376.52,1062.134,367.1065,1061.7456,372.75,1056.1021,372.3616,1065.03,376.52" style="stroke:#181818;stroke-width:1.0;"/><text fill="#000000" font-family="sans-serif" font-size="13" lengthAdjust="spacing" textLength="64" x="861" y="229.5669">&#171;creates&#187;</text></g><!--link CpuIdFactory to ICpuId--><g id="link_CpuIdFactory_ICpuId"><path codeLine="60" d="M392.86,132.48 C385.26,141 375.86,151.87 368,162 C357.43,175.61 346.37,191.6 338.12,203.93 " fill="none" id="CpuIdFactory-to-ICpuId" style="stroke:#181818;stroke-width:1.0;stroke-dasharray:7.0,7.0;"/><polygon fill="#181818" points="334.98,207.64,343.3005,202.3703,337.7535,203.4797,336.6441,197.9327,334.98,207.64" style="stroke:#181818;stroke-width:1.0;"/><text fill="#000000" font-family="sans-serif" font-size="13" lengthAdjust="spacing" textLength="62" x="369" y="175.0669">&#171;returns&#187;</text></g><!--link WindowsCpuIdFactory to X86CpuIdFactory--><g id="link_WindowsCpuIdFactory_X86CpuIdFactory"><path codeLine="62" d="M1047.41,418.55 C1012.46,438.9 957.82,470.71 921.24,492 " fill="none" id="WindowsCpuIdFactory-to-X86CpuIdFactory" style="stroke:#181818;stroke-width:1.0;"/><polygon fill="#181818" points="917.42,494.81,927.2099,493.7343,921.7399,492.2924,923.1818,486.8224,917.42,494.81" style="stroke:#181818;stroke-width:1.0;"/><text fill="#000000" font-family="sans-serif" font-size="13" lengthAdjust="spacing" textLength="64" x="994" y="461.1969">&#171;creates&#187;</text></g><!--link WindowsCpuIdFactory to CpuIdLib--><g id="link_WindowsCpuIdFactory_CpuIdLib"><path codeLine="63" d="M1095.73,418.58 C1130.54,464.85 1217.9,580.96 1257.25,633.26 " fill="none" id="WindowsCpuIdFactory-CpuIdLib" style="stroke:#181818;stroke-width:1.0;"/></g><!--link CpuIdLib to x86cpuidwin--><g id="link_CpuIdLib_x86cpuidwin"><path codeLine="64" d="M1261.38,687.82 C1247.87,710.58 1228.31,743.52 1214.11,767.43 " fill="none" id="CpuIdLib-x86cpuidwin" style="stroke:#181818;stroke-width:1.0;"/></g><!--link CpuIdLib to x64cpuidwin--><g id="link_CpuIdLib_x64cpuidwin"><path codeLine="65" d="M1292.62,687.82 C1306.13,710.58 1325.69,743.52 1339.89,767.43 " fill="none" id="CpuIdLib-x64cpuidwin" style="stroke:#181818;stroke-width:1.0;"/></g><!--link X86CpuIdFactoryBase to GenuineIntelCpu--><g id="link_X86CpuIdFactoryBase_GenuineIntelCpu"><path codeLine="67" d="M485.96,414.3 C454.86,434.11 400.4,468.79 364.52,491.64 " fill="none" id="X86CpuIdFactoryBase-to-GenuineIntelCpu" style="stroke:#181818;stroke-width:1.0;stroke-dasharray:7.0,7.0;"/><polygon fill="#181818" points="360.8,494.65,370.5395,493.1864,365.0165,491.9628,366.2401,486.4399,360.8,494.65" style="stroke:#181818;stroke-width:1.0;"/><text fill="#000000" font-family="sans-serif" font-size="13" lengthAdjust="spacing" textLength="62" x="431" y="461.1969">&#171;returns&#187;</text></g><!--link X86CpuIdFactoryBase to GenericIntelCpu--><g id="link_X86CpuIdFactoryBase_GenericIntelCpu"><path codeLine="68" d="M510,414.07 C510,433.11 510,466.17 510,489.08 " fill="none" id="X86CpuIdFactoryBase-to-GenericIntelCpu" style="stroke:#181818;stroke-width:1.0;stroke-dasharray:7.0,7.0;"/><polygon fill="#181818" points="510,493.96,514,484.96,510,488.96,506,484.96,510,493.96" style="stroke:#181818;stroke-width:1.0;"/><text fill="#000000" font-family="sans-serif" font-size="13" lengthAdjust="spacing" textLength="62" x="511" y="461.1969">&#171;returns&#187;</text></g><!--link X86CpuIdFactoryBase to AuthenticAmdCpu--><g id="link_X86CpuIdFactoryBase_AuthenticAmdCpu"><path codeLine="69" d="M534.57,414.3 C566.36,434.11 622.02,468.79 658.7,491.64 " fill="none" id="X86CpuIdFactoryBase-to-AuthenticAmdCpu" style="stroke:#181818;stroke-width:1.0;stroke-dasharray:7.0,7.0;"/><polygon fill="#181818" points="662.52,494.65,656.9957,486.4964,658.276,492.0064,652.7659,493.2868,662.52,494.65" style="stroke:#181818;stroke-width:1.0;"/><text fill="#000000" font-family="sans-serif" font-size="13" lengthAdjust="spacing" textLength="62" x="614" y="461.1969">&#171;returns&#187;</text></g><!--link CpuIdXmlFactory to X86CpuIdFactoryXml--><g id="link_CpuIdXmlFactory_X86CpuIdFactoryXml"><path codeLine="71" d="M185.91,132.09 C177.44,193.29 145.61,423.15 135.86,493.6 " fill="none" id="CpuIdXmlFactory-to-X86CpuIdFactoryXml" style="stroke:#181818;stroke-width:1.0;"/><polygon fill="#181818" points="135.09,498.16,140.2855,489.793,135.7751,493.2072,132.3609,488.6968,135.09,498.16" style="stroke:#181818;stroke-width:1.0;"/><text fill="#000000" font-family="sans-serif" font-size="13" lengthAdjust="spacing" textLength="64" x="167" y="284.0669">&#171;creates&#187;</text></g><!--link CpuIdXmlFactory to ICpuId--><g id="link_CpuIdXmlFactory_ICpuId"><path codeLine="72" d="M207.63,132.33 C232.25,151.56 274.44,184.51 300.97,205.23 " fill="none" id="CpuIdXmlFactory-to-ICpuId" style="stroke:#181818;stroke-width:1.0;stroke-dasharray:7.0,7.0;"/><polygon fill="#181818" points="304.41,208.7,299.7681,200.0136,300.4655,205.6273,294.8519,206.3248,304.41,208.7" style="stroke:#181818;stroke-width:1.0;"/><text fill="#000000" font-family="sans-serif" font-size="13" lengthAdjust="spacing" textLength="62" x="265" y="175.0669">&#171;returns&#187;</text></g><!--reverse link X86CpuIdFactoryBase to X86CpuIdFactoryXml--><g id="link_X86CpuIdFactoryBase_X86CpuIdFactoryXml"><path codeLine="73" d="M439.7,420.49 C365.2,443.27 249.39,478.68 183.45,498.84 " fill="none" id="X86CpuIdFactoryBase-backto-X86CpuIdFactoryXml" style="stroke:#181818;stroke-width:1.0;"/><polygon fill="none" points="437.37,413.58,458.55,414.42,441.47,426.97,437.37,413.58" style="stroke:#181818;stroke-width:1.0;"/></g><!--SRC=[fLLDQnin5BphLmXwI5jOuKCmeIo6s91W23tqq0QQ7XH9TKHMsaNIrWcf_tlVVjWhoTgrs_gsUZEZfvadcHP5kLNoHUeDUf9SOA4gzugLK8_2M8JiizGLDLHXLgggr48x_8Om_9QKFMzCMMk-AelIvFatgNcvjOi5VhUShMOtCxJpwGMrzc-eIEXQuLLLVnLGD5rtmoUwaDe9yvCoWTUmlEOtbBdIlE8tl4DnhLsyQ2K2SB06cg4I8Nlw9vpdHhZQQ6WIeUumRUbU5Vx6NiLVHeDxtr-kvWyFhAeb9xmeVc1gCIor2rkfiUT6m9fV7h7cbqaM2a_n_aEMnRsEGlPrfAaIjceS_4oT_2NwwBpptSb7sDOwA3D8pkzWv_Fx03nw3mnQy8UWTQo1Ho9a3R4MlTGWTtyrzwMMr8fMOX9rjE4a6fmRkXfGi9LaW3iX1eWlOYCjpAHD7tJ0tiBOIotQatRANLH9OG0B8zbvuElQFS4eINQj-0XuroJdMKrIrkQ_CvxX2TIK0WRk8Y0VF6pk63E2Ej6Ca0-9FIdZ1lOQCIimvpnMxD9vhCCXFcOcXFlPex42RbZTFIFxkzK7uVbsC2vrVnBk7PunJXOZ3zcuNXR55EUOIYkjStImwBk1U0zWiZoyTAVdav2mytXwGWl-GIsOglzJYwSj5O_t3zCCmNGkpKELYCRJ69-6Cov-TcBlFm00]--></g></svg>