<?xml version="1.0" encoding="us-ascii" standalone="no"?><svg xmlns="http://www.w3.org/2000/svg" xmlns:xlink="http://www.w3.org/1999/xlink" contentStyleType="text/css" height="483px" preserveAspectRatio="none" style="width:725px;height:483px;background:#FFFFFF;" version="1.1" viewBox="0 0 725 483" width="725px" zoomAndPan="magnify"><defs/><g><!--class ICpuIdX86--><g id="elem_ICpuIdX86"><rect codeLine="2" fill="#F1F1F1" height="48" id="ICpuIdX86" rx="2.5" ry="2.5" style="stroke:#181818;stroke-width:0.5;" width="102" x="241.5" y="7"/><ellipse cx="256.5" cy="23" fill="#B4A7E5" rx="11" ry="11" style="stroke:#181818;stroke-width:1.0;"/><path d="M252.4219,18.7656 L252.4219,16.6094 L259.8125,16.6094 L259.8125,18.7656 L257.3438,18.7656 L257.3438,26.8438 L259.8125,26.8438 L259.8125,29 L252.4219,29 L252.4219,26.8438 L254.8906,26.8438 L254.8906,18.7656 L252.4219,18.7656 Z " fill="#000000"/><text fill="#000000" font-family="sans-serif" font-size="14" font-style="italic" lengthAdjust="spacing" textLength="70" x="270.5" y="27.8467">ICpuIdX86</text><line style="stroke:#181818;stroke-width:0.5;" x1="242.5" x2="342.5" y1="39" y2="39"/><line style="stroke:#181818;stroke-width:0.5;" x1="242.5" x2="342.5" y1="47" y2="47"/></g><!--class Topology--><g id="elem_Topology"><rect codeLine="4" fill="#F1F1F1" height="96.8906" id="Topology" rx="2.5" ry="2.5" style="stroke:#181818;stroke-width:0.5;" width="246" x="169.5" y="115"/><ellipse cx="256.25" cy="131" fill="#ADD1B2" rx="11" ry="11" style="stroke:#181818;stroke-width:1.0;"/><path d="M259.2188,136.6406 Q258.6406,136.9375 258,137.0781 Q257.3594,137.2344 256.6563,137.2344 Q254.1563,137.2344 252.8281,135.5938 Q251.5156,133.9375 251.5156,130.8125 Q251.5156,127.6875 252.8281,126.0313 Q254.1563,124.375 256.6563,124.375 Q257.3594,124.375 258,124.5313 Q258.6563,124.6875 259.2188,124.9844 L259.2188,127.7031 Q258.5938,127.125 258,126.8594 Q257.4063,126.5781 256.7813,126.5781 Q255.4375,126.5781 254.75,127.6563 Q254.0625,128.7188 254.0625,130.8125 Q254.0625,132.9063 254.75,133.9844 Q255.4375,135.0469 256.7813,135.0469 Q257.4063,135.0469 258,134.7813 Q258.5938,134.5 259.2188,133.9219 L259.2188,136.6406 Z " fill="#000000"/><text fill="#000000" font-family="sans-serif" font-size="14" lengthAdjust="spacing" textLength="64" x="276.75" y="135.8467">Topology</text><line style="stroke:#181818;stroke-width:0.5;" x1="170.5" x2="414.5" y1="147" y2="147"/><ellipse cx="180.5" cy="160.6484" fill="none" rx="3" ry="3" style="stroke:#038048;stroke-width:1.0;"/><text fill="#000000" font-family="sans-serif" font-size="14" lengthAdjust="spacing" textLength="80" x="189.5" y="163.9951">ApicId: long</text><ellipse cx="180.5" cy="176.9453" fill="none" rx="3" ry="3" style="stroke:#038048;stroke-width:1.0;"/><text fill="#000000" font-family="sans-serif" font-size="14" lengthAdjust="spacing" textLength="193" x="189.5" y="180.292">CoreTopology: CpuTopoList</text><ellipse cx="180.5" cy="193.2422" fill="none" rx="3" ry="3" style="stroke:#038048;stroke-width:1.0;"/><text fill="#000000" font-family="sans-serif" font-size="14" lengthAdjust="spacing" textLength="220" x="189.5" y="196.5889">CacheTopology: CacheTopoList</text><line style="stroke:#181818;stroke-width:0.5;" x1="170.5" x2="414.5" y1="203.8906" y2="203.8906"/></g><!--class CpuTopoList--><g id="elem_CpuTopoList"><rect codeLine="11" fill="#F1F1F1" height="48" id="CpuTopoList" rx="2.5" ry="2.5" style="stroke:#181818;stroke-width:0.5;" width="119" x="152" y="271.89"/><ellipse cx="167" cy="287.89" fill="#ADD1B2" rx="11" ry="11" style="stroke:#181818;stroke-width:1.0;"/><path d="M169.9688,293.5306 Q169.3906,293.8275 168.75,293.9681 Q168.1094,294.1244 167.4063,294.1244 Q164.9063,294.1244 163.5781,292.4838 Q162.2656,290.8275 162.2656,287.7025 Q162.2656,284.5775 163.5781,282.9213 Q164.9063,281.265 167.4063,281.265 Q168.1094,281.265 168.75,281.4213 Q169.4063,281.5775 169.9688,281.8744 L169.9688,284.5931 Q169.3438,284.015 168.75,283.7494 Q168.1563,283.4681 167.5313,283.4681 Q166.1875,283.4681 165.5,284.5463 Q164.8125,285.6088 164.8125,287.7025 Q164.8125,289.7963 165.5,290.8744 Q166.1875,291.9369 167.5313,291.9369 Q168.1563,291.9369 168.75,291.6713 Q169.3438,291.39 169.9688,290.8119 L169.9688,293.5306 Z " fill="#000000"/><text fill="#000000" font-family="sans-serif" font-size="14" lengthAdjust="spacing" textLength="87" x="181" y="292.7367">CpuTopoList</text><line style="stroke:#181818;stroke-width:0.5;" x1="153" x2="270" y1="303.89" y2="303.89"/><line style="stroke:#181818;stroke-width:0.5;" x1="153" x2="270" y1="311.89" y2="311.89"/></g><!--class CpuTopo--><g id="elem_CpuTopo"><rect codeLine="12" fill="#F1F1F1" height="96.8906" id="CpuTopo" rx="2.5" ry="2.5" style="stroke:#181818;stroke-width:0.5;" width="203" x="7" y="379.89"/><ellipse cx="72.25" cy="395.89" fill="#ADD1B2" rx="11" ry="11" style="stroke:#181818;stroke-width:1.0;"/><path d="M75.2188,401.5306 Q74.6406,401.8275 74,401.9681 Q73.3594,402.1244 72.6563,402.1244 Q70.1563,402.1244 68.8281,400.4838 Q67.5156,398.8275 67.5156,395.7025 Q67.5156,392.5775 68.8281,390.9213 Q70.1563,389.265 72.6563,389.265 Q73.3594,389.265 74,389.4213 Q74.6563,389.5775 75.2188,389.8744 L75.2188,392.5931 Q74.5938,392.015 74,391.7494 Q73.4063,391.4681 72.7813,391.4681 Q71.4375,391.4681 70.75,392.5463 Q70.0625,393.6088 70.0625,395.7025 Q70.0625,397.7963 70.75,398.8744 Q71.4375,399.9369 72.7813,399.9369 Q73.4063,399.9369 74,399.6713 Q74.5938,399.39 75.2188,398.8119 L75.2188,401.5306 Z " fill="#000000"/><text fill="#000000" font-family="sans-serif" font-size="14" lengthAdjust="spacing" textLength="64" x="92.75" y="400.7367">CpuTopo</text><line style="stroke:#181818;stroke-width:0.5;" x1="8" x2="209" y1="411.89" y2="411.89"/><ellipse cx="18" cy="425.5384" fill="none" rx="3" ry="3" style="stroke:#038048;stroke-width:1.0;"/><text fill="#000000" font-family="sans-serif" font-size="14" lengthAdjust="spacing" textLength="51" x="27" y="428.8851">Id: long</text><ellipse cx="18" cy="441.8353" fill="none" rx="3" ry="3" style="stroke:#038048;stroke-width:1.0;"/><text fill="#000000" font-family="sans-serif" font-size="14" lengthAdjust="spacing" textLength="75" x="27" y="445.182">Mask: long</text><ellipse cx="18" cy="458.1322" fill="none" rx="3" ry="3" style="stroke:#038048;stroke-width:1.0;"/><text fill="#000000" font-family="sans-serif" font-size="14" lengthAdjust="spacing" textLength="177" x="27" y="461.4789">TopoType: CpuTopoType</text><line style="stroke:#181818;stroke-width:0.5;" x1="8" x2="209" y1="468.7806" y2="468.7806"/></g><!--class CacheType--><g id="elem_CacheType"><rect codeLine="17" fill="#F1F1F1" height="48" id="CacheType" rx="2.5" ry="2.5" style="stroke:#181818;stroke-width:0.5;" width="110" x="608.5" y="404.33"/><ellipse cx="623.5" cy="420.33" fill="#EB937F" rx="11" ry="11" style="stroke:#181818;stroke-width:1.0;"/><path d="M627.6094,426.33 L619.8906,426.33 L619.8906,413.9394 L627.6094,413.9394 L627.6094,416.0956 L622.3438,416.0956 L622.3438,418.7675 L627.1094,418.7675 L627.1094,420.9238 L622.3438,420.9238 L622.3438,424.1738 L627.6094,424.1738 L627.6094,426.33 Z " fill="#000000"/><text fill="#000000" font-family="sans-serif" font-size="14" lengthAdjust="spacing" textLength="78" x="637.5" y="425.1767">CacheType</text><line style="stroke:#181818;stroke-width:0.5;" x1="609.5" x2="717.5" y1="436.33" y2="436.33"/><line style="stroke:#181818;stroke-width:0.5;" x1="609.5" x2="717.5" y1="444.33" y2="444.33"/></g><!--class CacheTopo--><g id="elem_CacheTopo"><rect codeLine="23" fill="#F1F1F1" height="80.5938" id="CacheTopo" rx="2.5" ry="2.5" style="stroke:#181818;stroke-width:0.5;" width="191" x="382" y="388.04"/><ellipse cx="433.25" cy="404.04" fill="#ADD1B2" rx="11" ry="11" style="stroke:#181818;stroke-width:1.0;"/><path d="M436.2188,409.6806 Q435.6406,409.9775 435,410.1181 Q434.3594,410.2744 433.6563,410.2744 Q431.1563,410.2744 429.8281,408.6337 Q428.5156,406.9775 428.5156,403.8525 Q428.5156,400.7275 429.8281,399.0712 Q431.1563,397.415 433.6563,397.415 Q434.3594,397.415 435,397.5712 Q435.6563,397.7275 436.2188,398.0244 L436.2188,400.7431 Q435.5938,400.165 435,399.8994 Q434.4063,399.6181 433.7813,399.6181 Q432.4375,399.6181 431.75,400.6962 Q431.0625,401.7587 431.0625,403.8525 Q431.0625,405.9462 431.75,407.0244 Q432.4375,408.0869 433.7813,408.0869 Q434.4063,408.0869 435,407.8212 Q435.5938,407.54 436.2188,406.9619 L436.2188,409.6806 Z " fill="#000000"/><text fill="#000000" font-family="sans-serif" font-size="14" lengthAdjust="spacing" textLength="80" x="453.75" y="408.8867">CacheTopo</text><line style="stroke:#181818;stroke-width:0.5;" x1="383" x2="572" y1="420.04" y2="420.04"/><ellipse cx="393" cy="433.6884" fill="none" rx="3" ry="3" style="stroke:#038048;stroke-width:1.0;"/><text fill="#000000" font-family="sans-serif" font-size="14" lengthAdjust="spacing" textLength="61" x="402" y="437.0351">Level: int</text><ellipse cx="393" cy="449.9853" fill="none" rx="3" ry="3" style="stroke:#038048;stroke-width:1.0;"/><text fill="#000000" font-family="sans-serif" font-size="14" lengthAdjust="spacing" textLength="165" x="402" y="453.332">CacheType: CacheType</text><line style="stroke:#181818;stroke-width:0.5;" x1="383" x2="572" y1="460.6337" y2="460.6337"/></g><!--class CacheTopoList--><g id="elem_CacheTopoList"><rect codeLine="22" fill="#F1F1F1" height="48" id="CacheTopoList" rx="2.5" ry="2.5" style="stroke:#181818;stroke-width:0.5;" width="135" x="358" y="271.89"/><ellipse cx="373" cy="287.89" fill="#ADD1B2" rx="11" ry="11" style="stroke:#181818;stroke-width:1.0;"/><path d="M375.9688,293.5306 Q375.3906,293.8275 374.75,293.9681 Q374.1094,294.1244 373.4063,294.1244 Q370.9063,294.1244 369.5781,292.4838 Q368.2656,290.8275 368.2656,287.7025 Q368.2656,284.5775 369.5781,282.9213 Q370.9063,281.265 373.4063,281.265 Q374.1094,281.265 374.75,281.4213 Q375.4063,281.5775 375.9688,281.8744 L375.9688,284.5931 Q375.3438,284.015 374.75,283.7494 Q374.1563,283.4681 373.5313,283.4681 Q372.1875,283.4681 371.5,284.5463 Q370.8125,285.6088 370.8125,287.7025 Q370.8125,289.7963 371.5,290.8744 Q372.1875,291.9369 373.5313,291.9369 Q374.1563,291.9369 374.75,291.6713 Q375.3438,291.39 375.9688,290.8119 L375.9688,293.5306 Z " fill="#000000"/><text fill="#000000" font-family="sans-serif" font-size="14" lengthAdjust="spacing" textLength="103" x="387" y="292.7367">CacheTopoList</text><line style="stroke:#181818;stroke-width:0.5;" x1="359" x2="492" y1="303.89" y2="303.89"/><line style="stroke:#181818;stroke-width:0.5;" x1="359" x2="492" y1="311.89" y2="311.89"/></g><!--class TopoType--><g id="elem_TopoType"><rect codeLine="27" fill="#F1F1F1" height="48" id="TopoType" rx="2.5" ry="2.5" style="stroke:#181818;stroke-width:0.5;" width="102" x="244.5" y="404.33"/><ellipse cx="259.5" cy="420.33" fill="#EB937F" rx="11" ry="11" style="stroke:#181818;stroke-width:1.0;"/><path d="M263.6094,426.33 L255.8906,426.33 L255.8906,413.9394 L263.6094,413.9394 L263.6094,416.0956 L258.3438,416.0956 L258.3438,418.7675 L263.1094,418.7675 L263.1094,420.9238 L258.3438,420.9238 L258.3438,424.1738 L263.6094,424.1738 L263.6094,426.33 Z " fill="#000000"/><text fill="#000000" font-family="sans-serif" font-size="14" lengthAdjust="spacing" textLength="70" x="273.5" y="425.1767">TopoType</text><line style="stroke:#181818;stroke-width:0.5;" x1="245.5" x2="345.5" y1="436.33" y2="436.33"/><line style="stroke:#181818;stroke-width:0.5;" x1="245.5" x2="345.5" y1="444.33" y2="444.33"/></g><!--reverse link ICpuIdX86 to Topology--><g id="link_ICpuIdX86_Topology"><path codeLine="9" d="M292.5,69.16 C292.5,83.34 292.5,99.71 292.5,114.74 " fill="none" id="ICpuIdX86-backto-Topology" style="stroke:#181818;stroke-width:1.0;"/><polygon fill="#181818" points="292.5,56.32,288.5,62.32,292.5,68.32,296.5,62.32,292.5,56.32" style="stroke:#181818;stroke-width:1.0;"/></g><!--link CacheTopo to CacheType--><g id="link_CacheTopo_CacheType"><path codeLine="18" d="M573.41,428.33 C585.02,428.33 596.63,428.33 608.25,428.33 " fill="none" id="CacheTopo-CacheType" style="stroke:#181818;stroke-width:1.0;"/></g><!--reverse link Topology to CpuTopoList--><g id="link_Topology_CpuTopoList"><path codeLine="19" d="M255.62,223.84 C245.11,240.76 234.29,258.19 225.99,271.56 " fill="none" id="Topology-backto-CpuTopoList" style="stroke:#181818;stroke-width:1.0;"/><polygon fill="#181818" points="262.8,213.28,256.2367,216.2671,256.4697,223.4745,263.033,220.4873,262.8,213.28" style="stroke:#181818;stroke-width:1.0;"/></g><!--reverse link CpuTopoList to CpuTopo--><g id="link_CpuTopoList_CpuTopo"><path codeLine="20" d="M184.6,330.95 C172.87,345.81 158.91,363.5 146.16,379.63 " fill="none" id="CpuTopoList-backto-CpuTopo" style="stroke:#181818;stroke-width:1.0;"/><polygon fill="#181818" points="193.09,321.21,186.232,323.4389,185.6517,330.6266,192.5097,328.3977,193.09,321.21" style="stroke:#181818;stroke-width:1.0;"/><text fill="#000000" font-family="sans-serif" font-size="13" lengthAdjust="spacing" textLength="8" x="179.6276" y="340.0492">1</text><text fill="#000000" font-family="sans-serif" font-size="13" lengthAdjust="spacing" textLength="7" x="143.9638" y="368.8024">*</text></g><!--link CpuTopo to TopoType--><g id="link_CpuTopo_TopoType"><path codeLine="28" d="M210.4,428.33 C221.7,428.33 233,428.33 244.31,428.33 " fill="none" id="CpuTopo-TopoType" style="stroke:#181818;stroke-width:1.0;"/></g><!--reverse link Topology to CacheTopoList--><g id="link_Topology_CacheTopoList"><path codeLine="29" d="M351.08,221.9 C368.93,239.41 387.56,257.68 401.72,271.56 " fill="none" id="Topology-backto-CacheTopoList" style="stroke:#181818;stroke-width:1.0;"/><polygon fill="#181818" points="342.27,213.28,343.75,220.3376,350.834,221.6859,349.3539,214.6283,342.27,213.28" style="stroke:#181818;stroke-width:1.0;"/></g><!--reverse link CacheTopoList to CacheTopo--><g id="link_CacheTopoList_CacheTopo"><path codeLine="30" d="M439.89,332.98 C446.65,349.93 454.72,370.19 461.65,387.58 " fill="none" id="CacheTopoList-backto-CacheTopo" style="stroke:#181818;stroke-width:1.0;"/><polygon fill="#181818" points="434.8,321.21,433.3044,328.2643,439.2408,332.3581,440.7364,325.3038,434.8,321.21" style="stroke:#181818;stroke-width:1.0;"/><text fill="#000000" font-family="sans-serif" font-size="13" lengthAdjust="spacing" textLength="8" x="428.0919" y="340.0492">1</text><text fill="#000000" font-family="sans-serif" font-size="13" lengthAdjust="spacing" textLength="7" x="451.5661" y="376.9665">*</text></g><!--SRC=[NP2z3eCW58LtdkB6qOQXIzEuDKucTdFeIf1QKWh4doQcwRjN56v1ftikHyvta7eK_Prn0LLffwgzdK-4SCM60HfZZJBT31y2otUuMCchjW1bTBTjIjEBu2fW-T-9MWwZFsRy4Py7kJg-10CXfot5k10VNvTi0a_AScN3CzREsSnM89SJIwhGqykZk0LEG1Nz8n8ilxB5BD4CsJ7R35cU1HFo9tLtkz2X5c-X2f0wUR8D6nazD9O8muRiKtV0INYYTj3O-0S0]--></g></svg>