<?xml version="1.0" encoding="us-ascii" standalone="no"?><svg xmlns="http://www.w3.org/2000/svg" xmlns:xlink="http://www.w3.org/1999/xlink" contentStyleType="text/css" height="500px" preserveAspectRatio="none" style="width:725px;height:500px;background:#FFFFFF;" version="1.1" viewBox="0 0 725 500" width="725px" zoomAndPan="magnify"><defs/><g><!--class ICpuIdX86--><g id="elem_ICpuIdX86"><rect codeLine="2" fill="#F1F1F1" height="48" id="ICpuIdX86" rx="2.5" ry="2.5" style="stroke:#181818;stroke-width:0.5;" width="102" x="241.5" y="7"/><ellipse cx="256.5" cy="23" fill="#B4A7E5" rx="11" ry="11" style="stroke:#181818;stroke-width:1.0;"/><path d="M252.4219,18.7656 L252.4219,16.6094 L259.8125,16.6094 L259.8125,18.7656 L257.3438,18.7656 L257.3438,26.8438 L259.8125,26.8438 L259.8125,29 L252.4219,29 L252.4219,26.8438 L254.8906,26.8438 L254.8906,18.7656 L252.4219,18.7656 Z " fill="#000000"/><text fill="#000000" font-family="sans-serif" font-size="14" font-style="italic" lengthAdjust="spacing" textLength="70" x="270.5" y="27.8467">ICpuIdX86</text><line style="stroke:#181818;stroke-width:0.5;" x1="242.5" x2="342.5" y1="39" y2="39"/><line style="stroke:#181818;stroke-width:0.5;" x1="242.5" x2="342.5" y1="47" y2="47"/></g><!--class Topology--><g id="elem_Topology"><rect codeLine="4" fill="#F1F1F1" height="113.1875" id="Topology" rx="2.5" ry="2.5" style="stroke:#181818;stroke-width:0.5;" width="246" x="169.5" y="115"/><ellipse cx="256.25" cy="131" fill="#ADD1B2" rx="11" ry="11" style="stroke:#181818;stroke-width:1.0;"/><path d="M259.2188,136.6406 Q258.6406,136.9375 258,137.0781 Q257.3594,137.2344 256.6563,137.2344 Q254.1563,137.2344 252.8281,135.5938 Q251.5156,133.9375 251.5156,130.8125 Q251.5156,127.6875 252.8281,126.0313 Q254.1563,124.375 256.6563,124.375 Q257.3594,124.375 258,124.5313 Q258.6563,124.6875 259.2188,124.9844 L259.2188,127.7031 Q258.5938,127.125 258,126.8594 Q257.4063,126.5781 256.7813,126.5781 Q255.4375,126.5781 254.75,127.6563 Q254.0625,128.7188 254.0625,130.8125 Q254.0625,132.9063 254.75,133.9844 Q255.4375,135.0469 256.7813,135.0469 Q257.4063,135.0469 258,134.7813 Q258.5938,134.5 259.2188,133.9219 L259.2188,136.6406 Z " fill="#000000"/><text fill="#000000" font-family="sans-serif" font-size="14" lengthAdjust="spacing" textLength="64" x="276.75" y="135.8467">Topology</text><line style="stroke:#181818;stroke-width:0.5;" x1="170.5" x2="414.5" y1="147" y2="147"/><ellipse cx="180.5" cy="160.6484" fill="none" rx="3" ry="3" style="stroke:#038048;stroke-width:1.0;"/><text fill="#000000" font-family="sans-serif" font-size="14" lengthAdjust="spacing" textLength="80" x="189.5" y="163.9951">ApicId: long</text><ellipse cx="180.5" cy="176.9453" fill="none" rx="3" ry="3" style="stroke:#038048;stroke-width:1.0;"/><text fill="#000000" font-family="sans-serif" font-size="14" lengthAdjust="spacing" textLength="193" x="189.5" y="180.292">CoreTopology: CpuTopoList</text><ellipse cx="180.5" cy="193.2422" fill="none" rx="3" ry="3" style="stroke:#038048;stroke-width:1.0;"/><text fill="#000000" font-family="sans-serif" font-size="14" lengthAdjust="spacing" textLength="220" x="189.5" y="196.5889">CacheTopology: CacheTopoList</text><ellipse cx="180.5" cy="209.5391" fill="none" rx="3" ry="3" style="stroke:#038048;stroke-width:1.0;"/><text fill="#000000" font-family="sans-serif" font-size="14" lengthAdjust="spacing" textLength="120" x="189.5" y="212.8857">BigLittle: IBigLittle</text><line style="stroke:#181818;stroke-width:0.5;" x1="170.5" x2="414.5" y1="220.1875" y2="220.1875"/></g><!--class CpuTopoList--><g id="elem_CpuTopoList"><rect codeLine="12" fill="#F1F1F1" height="48" id="CpuTopoList" rx="2.5" ry="2.5" style="stroke:#181818;stroke-width:0.5;" width="119" x="152" y="288.19"/><ellipse cx="167" cy="304.19" fill="#ADD1B2" rx="11" ry="11" style="stroke:#181818;stroke-width:1.0;"/><path d="M169.9688,309.8306 Q169.3906,310.1275 168.75,310.2681 Q168.1094,310.4244 167.4063,310.4244 Q164.9063,310.4244 163.5781,308.7838 Q162.2656,307.1275 162.2656,304.0025 Q162.2656,300.8775 163.5781,299.2213 Q164.9063,297.565 167.4063,297.565 Q168.1094,297.565 168.75,297.7213 Q169.4063,297.8775 169.9688,298.1744 L169.9688,300.8931 Q169.3438,300.315 168.75,300.0494 Q168.1563,299.7681 167.5313,299.7681 Q166.1875,299.7681 165.5,300.8463 Q164.8125,301.9088 164.8125,304.0025 Q164.8125,306.0963 165.5,307.1744 Q166.1875,308.2369 167.5313,308.2369 Q168.1563,308.2369 168.75,307.9713 Q169.3438,307.69 169.9688,307.1119 L169.9688,309.8306 Z " fill="#000000"/><text fill="#000000" font-family="sans-serif" font-size="14" lengthAdjust="spacing" textLength="87" x="181" y="309.0367">CpuTopoList</text><line style="stroke:#181818;stroke-width:0.5;" x1="153" x2="270" y1="320.19" y2="320.19"/><line style="stroke:#181818;stroke-width:0.5;" x1="153" x2="270" y1="328.19" y2="328.19"/></g><!--class CpuTopo--><g id="elem_CpuTopo"><rect codeLine="13" fill="#F1F1F1" height="96.8906" id="CpuTopo" rx="2.5" ry="2.5" style="stroke:#181818;stroke-width:0.5;" width="203" x="7" y="396.19"/><ellipse cx="72.25" cy="412.19" fill="#ADD1B2" rx="11" ry="11" style="stroke:#181818;stroke-width:1.0;"/><path d="M75.2188,417.8306 Q74.6406,418.1275 74,418.2681 Q73.3594,418.4244 72.6563,418.4244 Q70.1563,418.4244 68.8281,416.7838 Q67.5156,415.1275 67.5156,412.0025 Q67.5156,408.8775 68.8281,407.2213 Q70.1563,405.565 72.6563,405.565 Q73.3594,405.565 74,405.7213 Q74.6563,405.8775 75.2188,406.1744 L75.2188,408.8931 Q74.5938,408.315 74,408.0494 Q73.4063,407.7681 72.7813,407.7681 Q71.4375,407.7681 70.75,408.8463 Q70.0625,409.9088 70.0625,412.0025 Q70.0625,414.0963 70.75,415.1744 Q71.4375,416.2369 72.7813,416.2369 Q73.4063,416.2369 74,415.9713 Q74.5938,415.69 75.2188,415.1119 L75.2188,417.8306 Z " fill="#000000"/><text fill="#000000" font-family="sans-serif" font-size="14" lengthAdjust="spacing" textLength="64" x="92.75" y="417.0367">CpuTopo</text><line style="stroke:#181818;stroke-width:0.5;" x1="8" x2="209" y1="428.19" y2="428.19"/><ellipse cx="18" cy="441.8384" fill="none" rx="3" ry="3" style="stroke:#038048;stroke-width:1.0;"/><text fill="#000000" font-family="sans-serif" font-size="14" lengthAdjust="spacing" textLength="51" x="27" y="445.1851">Id: long</text><ellipse cx="18" cy="458.1353" fill="none" rx="3" ry="3" style="stroke:#038048;stroke-width:1.0;"/><text fill="#000000" font-family="sans-serif" font-size="14" lengthAdjust="spacing" textLength="75" x="27" y="461.482">Mask: long</text><ellipse cx="18" cy="474.4322" fill="none" rx="3" ry="3" style="stroke:#038048;stroke-width:1.0;"/><text fill="#000000" font-family="sans-serif" font-size="14" lengthAdjust="spacing" textLength="177" x="27" y="477.7789">TopoType: CpuTopoType</text><line style="stroke:#181818;stroke-width:0.5;" x1="8" x2="209" y1="485.0806" y2="485.0806"/></g><!--class CacheType--><g id="elem_CacheType"><rect codeLine="18" fill="#F1F1F1" height="48" id="CacheType" rx="2.5" ry="2.5" style="stroke:#181818;stroke-width:0.5;" width="110" x="608.5" y="420.63"/><ellipse cx="623.5" cy="436.63" fill="#EB937F" rx="11" ry="11" style="stroke:#181818;stroke-width:1.0;"/><path d="M627.6094,442.63 L619.8906,442.63 L619.8906,430.2394 L627.6094,430.2394 L627.6094,432.3956 L622.3438,432.3956 L622.3438,435.0675 L627.1094,435.0675 L627.1094,437.2238 L622.3438,437.2238 L622.3438,440.4738 L627.6094,440.4738 L627.6094,442.63 Z " fill="#000000"/><text fill="#000000" font-family="sans-serif" font-size="14" lengthAdjust="spacing" textLength="78" x="637.5" y="441.4767">CacheType</text><line style="stroke:#181818;stroke-width:0.5;" x1="609.5" x2="717.5" y1="452.63" y2="452.63"/><line style="stroke:#181818;stroke-width:0.5;" x1="609.5" x2="717.5" y1="460.63" y2="460.63"/></g><!--class CacheTopo--><g id="elem_CacheTopo"><rect codeLine="24" fill="#F1F1F1" height="80.5938" id="CacheTopo" rx="2.5" ry="2.5" style="stroke:#181818;stroke-width:0.5;" width="191" x="382" y="404.34"/><ellipse cx="433.25" cy="420.34" fill="#ADD1B2" rx="11" ry="11" style="stroke:#181818;stroke-width:1.0;"/><path d="M436.2188,425.9806 Q435.6406,426.2775 435,426.4181 Q434.3594,426.5744 433.6563,426.5744 Q431.1563,426.5744 429.8281,424.9338 Q428.5156,423.2775 428.5156,420.1525 Q428.5156,417.0275 429.8281,415.3713 Q431.1563,413.715 433.6563,413.715 Q434.3594,413.715 435,413.8713 Q435.6563,414.0275 436.2188,414.3244 L436.2188,417.0431 Q435.5938,416.465 435,416.1994 Q434.4063,415.9181 433.7813,415.9181 Q432.4375,415.9181 431.75,416.9963 Q431.0625,418.0588 431.0625,420.1525 Q431.0625,422.2463 431.75,423.3244 Q432.4375,424.3869 433.7813,424.3869 Q434.4063,424.3869 435,424.1213 Q435.5938,423.84 436.2188,423.2619 L436.2188,425.9806 Z " fill="#000000"/><text fill="#000000" font-family="sans-serif" font-size="14" lengthAdjust="spacing" textLength="80" x="453.75" y="425.1867">CacheTopo</text><line style="stroke:#181818;stroke-width:0.5;" x1="383" x2="572" y1="436.34" y2="436.34"/><ellipse cx="393" cy="449.9884" fill="none" rx="3" ry="3" style="stroke:#038048;stroke-width:1.0;"/><text fill="#000000" font-family="sans-serif" font-size="14" lengthAdjust="spacing" textLength="61" x="402" y="453.3351">Level: int</text><ellipse cx="393" cy="466.2853" fill="none" rx="3" ry="3" style="stroke:#038048;stroke-width:1.0;"/><text fill="#000000" font-family="sans-serif" font-size="14" lengthAdjust="spacing" textLength="165" x="402" y="469.632">CacheType: CacheType</text><line style="stroke:#181818;stroke-width:0.5;" x1="383" x2="572" y1="476.9338" y2="476.9338"/></g><!--class CacheTopoList--><g id="elem_CacheTopoList"><rect codeLine="23" fill="#F1F1F1" height="48" id="CacheTopoList" rx="2.5" ry="2.5" style="stroke:#181818;stroke-width:0.5;" width="135" x="358" y="288.19"/><ellipse cx="373" cy="304.19" fill="#ADD1B2" rx="11" ry="11" style="stroke:#181818;stroke-width:1.0;"/><path d="M375.9688,309.8306 Q375.3906,310.1275 374.75,310.2681 Q374.1094,310.4244 373.4063,310.4244 Q370.9063,310.4244 369.5781,308.7838 Q368.2656,307.1275 368.2656,304.0025 Q368.2656,300.8775 369.5781,299.2213 Q370.9063,297.565 373.4063,297.565 Q374.1094,297.565 374.75,297.7213 Q375.4063,297.8775 375.9688,298.1744 L375.9688,300.8931 Q375.3438,300.315 374.75,300.0494 Q374.1563,299.7681 373.5313,299.7681 Q372.1875,299.7681 371.5,300.8463 Q370.8125,301.9088 370.8125,304.0025 Q370.8125,306.0963 371.5,307.1744 Q372.1875,308.2369 373.5313,308.2369 Q374.1563,308.2369 374.75,307.9713 Q375.3438,307.69 375.9688,307.1119 L375.9688,309.8306 Z " fill="#000000"/><text fill="#000000" font-family="sans-serif" font-size="14" lengthAdjust="spacing" textLength="103" x="387" y="309.0367">CacheTopoList</text><line style="stroke:#181818;stroke-width:0.5;" x1="359" x2="492" y1="320.19" y2="320.19"/><line style="stroke:#181818;stroke-width:0.5;" x1="359" x2="492" y1="328.19" y2="328.19"/></g><!--class TopoType--><g id="elem_TopoType"><rect codeLine="28" fill="#F1F1F1" height="48" id="TopoType" rx="2.5" ry="2.5" style="stroke:#181818;stroke-width:0.5;" width="102" x="244.5" y="420.63"/><ellipse cx="259.5" cy="436.63" fill="#EB937F" rx="11" ry="11" style="stroke:#181818;stroke-width:1.0;"/><path d="M263.6094,442.63 L255.8906,442.63 L255.8906,430.2394 L263.6094,430.2394 L263.6094,432.3956 L258.3438,432.3956 L258.3438,435.0675 L263.1094,435.0675 L263.1094,437.2238 L258.3438,437.2238 L258.3438,440.4738 L263.6094,440.4738 L263.6094,442.63 Z " fill="#000000"/><text fill="#000000" font-family="sans-serif" font-size="14" lengthAdjust="spacing" textLength="70" x="273.5" y="441.4767">TopoType</text><line style="stroke:#181818;stroke-width:0.5;" x1="245.5" x2="345.5" y1="452.63" y2="452.63"/><line style="stroke:#181818;stroke-width:0.5;" x1="245.5" x2="345.5" y1="460.63" y2="460.63"/></g><!--reverse link ICpuIdX86 to Topology--><g id="link_ICpuIdX86_Topology"><path codeLine="10" d="M292.5,68.88 C292.5,82.93 292.5,99.27 292.5,114.7 " fill="none" id="ICpuIdX86-backto-Topology" style="stroke:#181818;stroke-width:1.0;"/><polygon fill="#181818" points="292.5,56.2,288.5,62.2,292.5,68.2,296.5,62.2,292.5,56.2" style="stroke:#181818;stroke-width:1.0;"/></g><!--link CacheTopo to CacheType--><g id="link_CacheTopo_CacheType"><path codeLine="19" d="M573.41,444.63 C585.02,444.63 596.63,444.63 608.25,444.63 " fill="none" id="CacheTopo-CacheType" style="stroke:#181818;stroke-width:1.0;"/></g><!--reverse link Topology to CpuTopoList--><g id="link_Topology_CpuTopoList"><path codeLine="20" d="M252.9,240.35 C242.89,257.48 232.81,274.74 225.1,287.93 " fill="none" id="Topology-backto-CpuTopoList" style="stroke:#181818;stroke-width:1.0;"/><polygon fill="#181818" points="259.79,229.57,253.3102,232.7341,253.7386,239.9325,260.2185,236.7684,259.79,229.57" style="stroke:#181818;stroke-width:1.0;"/></g><!--reverse link CpuTopoList to CpuTopo--><g id="link_CpuTopoList_CpuTopo"><path codeLine="21" d="M184.6,347.25 C172.87,362.11 158.91,379.8 146.16,395.93 " fill="none" id="CpuTopoList-backto-CpuTopo" style="stroke:#181818;stroke-width:1.0;"/><polygon fill="#181818" points="193.09,337.51,186.232,339.7389,185.6517,346.9266,192.5097,344.6977,193.09,337.51" style="stroke:#181818;stroke-width:1.0;"/><text fill="#000000" font-family="sans-serif" font-size="13" lengthAdjust="spacing" textLength="8" x="179.6276" y="356.3492">1</text><text fill="#000000" font-family="sans-serif" font-size="13" lengthAdjust="spacing" textLength="7" x="143.9638" y="385.1024">*</text></g><!--link CpuTopo to TopoType--><g id="link_CpuTopo_TopoType"><path codeLine="29" d="M210.4,444.63 C221.7,444.63 233,444.63 244.31,444.63 " fill="none" id="CpuTopo-TopoType" style="stroke:#181818;stroke-width:1.0;"/></g><!--reverse link Topology to CacheTopoList--><g id="link_Topology_CacheTopoList"><path codeLine="30" d="M355.63,238.38 C372.68,256.15 390.03,274.23 403.18,287.93 " fill="none" id="Topology-backto-CacheTopoList" style="stroke:#181818;stroke-width:1.0;"/><polygon fill="#181818" points="347.21,229.57,348.4756,236.6692,355.5154,238.2314,354.2498,231.1322,347.21,229.57" style="stroke:#181818;stroke-width:1.0;"/></g><!--reverse link CacheTopoList to CacheTopo--><g id="link_CacheTopoList_CacheTopo"><path codeLine="31" d="M439.89,349.28 C446.65,366.23 454.72,386.49 461.65,403.88 " fill="none" id="CacheTopoList-backto-CacheTopo" style="stroke:#181818;stroke-width:1.0;"/><polygon fill="#181818" points="434.8,337.51,433.3044,344.5643,439.2408,348.6581,440.7364,341.6038,434.8,337.51" style="stroke:#181818;stroke-width:1.0;"/><text fill="#000000" font-family="sans-serif" font-size="13" lengthAdjust="spacing" textLength="8" x="428.0919" y="356.3492">1</text><text fill="#000000" font-family="sans-serif" font-size="13" lengthAdjust="spacing" textLength="7" x="451.5661" y="393.2665">*</text></g><!--SRC=[NP0_3y8W4CLtFiMbOms3Yp7TrAb9tJgu4egLY8NqZqbZ_EuMWIkKwTxT8-zt9xjHz7V61PGNCvNDxNWWX2is351hevLkP_WGMDxkP2GlcmAKxbhNkUXU15S1otyhAZcCVipu8vu7kJhEigtaE2fHG8ar-H9aWPms54a2MPoKT09gYdbbmpFMrbdFHY2o5KkgwAQNfxGDh80gkj8JlCkVBMQ9QiZscJDaUHPCo9zSOjCBErJYBLG1iakkwR2HqKFZ4g5mo3vr0vo49se3ZHl_0000]--></g></svg>