<?xml version="1.0" encoding="us-ascii" standalone="no"?><svg xmlns="http://www.w3.org/2000/svg" xmlns:xlink="http://www.w3.org/1999/xlink" contentStyleType="text/css" height="284px" preserveAspectRatio="none" style="width:720px;height:284px;background:#FFFFFF;" version="1.1" viewBox="0 0 720 284" width="720px" zoomAndPan="magnify"><defs/><g><!--class IBigLittle--><g id="elem_IBigLittle"><rect codeLine="2" fill="#F1F1F1" height="64.2969" id="IBigLittle" rx="2.5" ry="2.5" style="stroke:#181818;stroke-width:0.5;" width="164" x="288" y="31.45"/><ellipse cx="337.25" cy="47.45" fill="#B4A7E5" rx="11" ry="11" style="stroke:#181818;stroke-width:1.0;"/><path d="M333.1719,43.2156 L333.1719,41.0594 L340.5625,41.0594 L340.5625,43.2156 L338.0938,43.2156 L338.0938,51.2937 L340.5625,51.2937 L340.5625,53.45 L333.1719,53.45 L333.1719,51.2937 L335.6406,51.2937 L335.6406,43.2156 L333.1719,43.2156 Z " fill="#000000"/><text fill="#000000" font-family="sans-serif" font-size="14" font-style="italic" lengthAdjust="spacing" textLength="57" x="357.75" y="52.2967">IBigLittle</text><line style="stroke:#181818;stroke-width:0.5;" x1="289" x2="451" y1="63.45" y2="63.45"/><ellipse cx="299" cy="77.0984" fill="none" rx="3" ry="3" style="stroke:#038048;stroke-width:1.0;"/><text fill="#000000" font-family="sans-serif" font-size="14" lengthAdjust="spacing" textLength="138" x="308" y="80.4451">IsPerformance: bool</text><line style="stroke:#181818;stroke-width:0.5;" x1="289" x2="451" y1="87.7469" y2="87.7469"/></g><!--class Topology--><g id="elem_Topology"><rect codeLine="6" fill="#F1F1F1" height="113.1875" id="Topology" rx="2.5" ry="2.5" style="stroke:#181818;stroke-width:0.5;" width="246" x="7" y="7"/><ellipse cx="93.75" cy="23" fill="#ADD1B2" rx="11" ry="11" style="stroke:#181818;stroke-width:1.0;"/><path d="M96.7188,28.6406 Q96.1406,28.9375 95.5,29.0781 Q94.8594,29.2344 94.1563,29.2344 Q91.6563,29.2344 90.3281,27.5938 Q89.0156,25.9375 89.0156,22.8125 Q89.0156,19.6875 90.3281,18.0313 Q91.6563,16.375 94.1563,16.375 Q94.8594,16.375 95.5,16.5313 Q96.1563,16.6875 96.7188,16.9844 L96.7188,19.7031 Q96.0938,19.125 95.5,18.8594 Q94.9063,18.5781 94.2813,18.5781 Q92.9375,18.5781 92.25,19.6563 Q91.5625,20.7188 91.5625,22.8125 Q91.5625,24.9063 92.25,25.9844 Q92.9375,27.0469 94.2813,27.0469 Q94.9063,27.0469 95.5,26.7813 Q96.0938,26.5 96.7188,25.9219 L96.7188,28.6406 Z " fill="#000000"/><text fill="#000000" font-family="sans-serif" font-size="14" lengthAdjust="spacing" textLength="64" x="114.25" y="27.8467">Topology</text><line style="stroke:#181818;stroke-width:0.5;" x1="8" x2="252" y1="39" y2="39"/><ellipse cx="18" cy="52.6484" fill="none" rx="3" ry="3" style="stroke:#038048;stroke-width:1.0;"/><text fill="#000000" font-family="sans-serif" font-size="14" lengthAdjust="spacing" textLength="80" x="27" y="55.9951">ApicId: long</text><ellipse cx="18" cy="68.9453" fill="none" rx="3" ry="3" style="stroke:#038048;stroke-width:1.0;"/><text fill="#000000" font-family="sans-serif" font-size="14" lengthAdjust="spacing" textLength="193" x="27" y="72.292">CoreTopology: CpuTopoList</text><ellipse cx="18" cy="85.2422" fill="none" rx="3" ry="3" style="stroke:#038048;stroke-width:1.0;"/><text fill="#000000" font-family="sans-serif" font-size="14" lengthAdjust="spacing" textLength="220" x="27" y="88.5889">CacheTopology: CacheTopoList</text><ellipse cx="18" cy="101.5391" fill="none" rx="3" ry="3" style="stroke:#038048;stroke-width:1.0;"/><text fill="#000000" font-family="sans-serif" font-size="14" lengthAdjust="spacing" textLength="120" x="27" y="104.8857">BigLittle: IBigLittle</text><line style="stroke:#181818;stroke-width:0.5;" x1="8" x2="252" y1="112.1875" y2="112.1875"/></g><!--class BigLittleIntel--><g id="elem_BigLittleIntel"><rect codeLine="15" fill="#F1F1F1" height="96.8906" id="BigLittleIntel" rx="2.5" ry="2.5" style="stroke:#181818;stroke-width:0.5;" width="252" x="244" y="180.19"/><ellipse cx="324.25" cy="196.19" fill="#ADD1B2" rx="11" ry="11" style="stroke:#181818;stroke-width:1.0;"/><path d="M327.2188,201.8306 Q326.6406,202.1275 326,202.2681 Q325.3594,202.4244 324.6563,202.4244 Q322.1563,202.4244 320.8281,200.7838 Q319.5156,199.1275 319.5156,196.0025 Q319.5156,192.8775 320.8281,191.2213 Q322.1563,189.565 324.6563,189.565 Q325.3594,189.565 326,189.7213 Q326.6563,189.8775 327.2188,190.1744 L327.2188,192.8931 Q326.5938,192.315 326,192.0494 Q325.4063,191.7681 324.7813,191.7681 Q323.4375,191.7681 322.75,192.8463 Q322.0625,193.9088 322.0625,196.0025 Q322.0625,198.0963 322.75,199.1744 Q323.4375,200.2369 324.7813,200.2369 Q325.4063,200.2369 326,199.9713 Q326.5938,199.69 327.2188,199.1119 L327.2188,201.8306 Z " fill="#000000"/><text fill="#000000" font-family="sans-serif" font-size="14" lengthAdjust="spacing" textLength="83" x="344.75" y="201.0367">BigLittleIntel</text><line style="stroke:#181818;stroke-width:0.5;" x1="245" x2="495" y1="212.19" y2="212.19"/><ellipse cx="255" cy="225.8384" fill="none" rx="3" ry="3" style="stroke:#038048;stroke-width:1.0;"/><text fill="#000000" font-family="sans-serif" font-size="14" lengthAdjust="spacing" textLength="138" x="264" y="229.1851">IsPerformance: bool</text><ellipse cx="255" cy="242.1353" fill="none" rx="3" ry="3" style="stroke:#038048;stroke-width:1.0;"/><text fill="#000000" font-family="sans-serif" font-size="14" lengthAdjust="spacing" textLength="226" x="264" y="245.482">CoreType: BigLittleIntelCoreType</text><ellipse cx="255" cy="258.4322" fill="none" rx="3" ry="3" style="stroke:#038048;stroke-width:1.0;"/><text fill="#000000" font-family="sans-serif" font-size="14" lengthAdjust="spacing" textLength="80" x="264" y="261.7789">ModelId: int</text><line style="stroke:#181818;stroke-width:0.5;" x1="245" x2="495" y1="269.0806" y2="269.0806"/></g><!--class BigLittleIntelCoreType--><g id="elem_BigLittleIntelCoreType"><rect codeLine="21" fill="#F1F1F1" height="80.5938" id="BigLittleIntelCoreType" rx="2.5" ry="2.5" style="stroke:#181818;stroke-width:0.5;" width="182" x="531" y="188.34"/><ellipse cx="546" cy="204.34" fill="#EB937F" rx="11" ry="11" style="stroke:#181818;stroke-width:1.0;"/><path d="M550.1094,210.34 L542.3906,210.34 L542.3906,197.9494 L550.1094,197.9494 L550.1094,200.1056 L544.8438,200.1056 L544.8438,202.7775 L549.6094,202.7775 L549.6094,204.9337 L544.8438,204.9337 L544.8438,208.1837 L550.1094,208.1837 L550.1094,210.34 Z " fill="#000000"/><text fill="#000000" font-family="sans-serif" font-size="14" lengthAdjust="spacing" textLength="150" x="560" y="209.1867">BigLittleIntelCoreType</text><line style="stroke:#181818;stroke-width:0.5;" x1="532" x2="712" y1="220.34" y2="220.34"/><text fill="#000000" font-family="sans-serif" font-size="14" lengthAdjust="spacing" textLength="119" x="537" y="237.3351">IntelAtom = 0x20</text><text fill="#000000" font-family="sans-serif" font-size="14" lengthAdjust="spacing" textLength="116" x="537" y="253.632">IntelCore = 0x40</text><line style="stroke:#181818;stroke-width:0.5;" x1="532" x2="712" y1="260.9338" y2="260.9338"/></g><!--reverse link Topology to IBigLittle--><g id="link_Topology_IBigLittle"><path codeLine="13" d="M267.09,63.6 C274.04,63.6 280.98,63.6 287.93,63.6 " fill="none" id="Topology-backto-IBigLittle" style="stroke:#181818;stroke-width:1.0;"/><polygon fill="#181818" points="254.28,63.6,260.28,67.6,266.28,63.6,260.28,59.6,254.28,63.6" style="stroke:#181818;stroke-width:1.0;"/></g><!--reverse link IBigLittle to BigLittleIntel--><g id="link_IBigLittle_BigLittleIntel"><path codeLine="26" d="M370,116.98 C370,137.2 370,160.17 370,179.92 " fill="none" id="IBigLittle-backto-BigLittleIntel" style="stroke:#181818;stroke-width:1.0;stroke-dasharray:7.0,7.0;"/><polygon fill="none" points="363,117.03,370,97.03,377,117.03,363,117.03" style="stroke:#181818;stroke-width:1.0;"/></g><!--link BigLittleIntel to BigLittleIntelCoreType--><g id="link_BigLittleIntel_BigLittleIntelCoreType"><path codeLine="27" d="M496.49,228.63 C507.93,228.63 519.37,228.63 530.81,228.63 " fill="none" id="BigLittleIntel-BigLittleIntelCoreType" style="stroke:#181818;stroke-width:1.0;"/></g><!--SRC=[VP113e8m44NtFSMiDH1YN15T8AiccBZm0bWgDYaTGaiYKUyk1Gf8WjtDdpypxrSemwjxoZZGayWJOOpay2BGlYtLbxQ7LP4gnaEu8Kho8OJ9L6kuOeaIyyQPer8mceKWKUMz4cF5dIk4kAnjaGXjXdRA7lE-AoV721JEu2p1U7lZLTwyDx2D0ctJoNzn9j2cRBNVGQVthZDcNDg4GXaBmLLTh0mC5pijCbZ04OBdBfX4Q-p4VM1NpRx-yFOpVx6MBFBOq2kaNm00]--></g></svg>