<?xml version="1.0" encoding="us-ascii" standalone="no"?><svg xmlns="http://www.w3.org/2000/svg" xmlns:xlink="http://www.w3.org/1999/xlink" contentStyleType="text/css" height="460px" preserveAspectRatio="none" style="width:657px;height:460px;background:#FFFFFF;" version="1.1" viewBox="0 0 657 460" width="657px" zoomAndPan="magnify"><defs/><g><!--class ICpuId--><g id="elem_ICpuId"><rect codeLine="2" fill="#F1F1F1" height="48" id="ICpuId" rx="2.5" ry="2.5" style="stroke:#181818;stroke-width:0.5;" width="75" x="68.5" y="10"/><ellipse cx="83.5" cy="26" fill="#B4A7E5" rx="11" ry="11" style="stroke:#181818;stroke-width:1.0;"/><path d="M79.4219,21.7656 L79.4219,19.6094 L86.8125,19.6094 L86.8125,21.7656 L84.3438,21.7656 L84.3438,29.8438 L86.8125,29.8438 L86.8125,32 L79.4219,32 L79.4219,29.8438 L81.8906,29.8438 L81.8906,21.7656 L79.4219,21.7656 Z " fill="#000000"/><text fill="#000000" font-family="sans-serif" font-size="14" font-style="italic" lengthAdjust="spacing" textLength="43" x="97.5" y="30.8467">ICpuId</text><line style="stroke:#181818;stroke-width:0.5;" x1="69.5" x2="142.5" y1="42" y2="42"/><line style="stroke:#181818;stroke-width:0.5;" x1="69.5" x2="142.5" y1="50" y2="50"/></g><!--class ICpuIdX86--><g id="elem_ICpuIdX86"><rect codeLine="4" fill="#F1F1F1" height="178.375" id="ICpuIdX86" rx="2.5" ry="2.5" style="stroke:#181818;stroke-width:0.5;" width="198" x="7" y="118"/><ellipse cx="66.75" cy="134" fill="#B4A7E5" rx="11" ry="11" style="stroke:#181818;stroke-width:1.0;"/><path d="M62.6719,129.7656 L62.6719,127.6094 L70.0625,127.6094 L70.0625,129.7656 L67.5938,129.7656 L67.5938,137.8438 L70.0625,137.8438 L70.0625,140 L62.6719,140 L62.6719,137.8438 L65.1406,137.8438 L65.1406,129.7656 L62.6719,129.7656 Z " fill="#000000"/><text fill="#000000" font-family="sans-serif" font-size="14" font-style="italic" lengthAdjust="spacing" textLength="70" x="87.25" y="138.8467">ICpuIdX86</text><line style="stroke:#181818;stroke-width:0.5;" x1="8" x2="204" y1="150" y2="150"/><ellipse cx="18" cy="163.6484" fill="none" rx="3" ry="3" style="stroke:#038048;stroke-width:1.0;"/><text fill="#000000" font-family="sans-serif" font-size="14" lengthAdjust="spacing" textLength="162" x="27" y="166.9951">ProcessorSignature: int</text><ellipse cx="18" cy="179.9453" fill="none" rx="3" ry="3" style="stroke:#038048;stroke-width:1.0;"/><text fill="#000000" font-family="sans-serif" font-size="14" lengthAdjust="spacing" textLength="68" x="27" y="183.292">Family: int</text><ellipse cx="18" cy="196.2422" fill="none" rx="3" ry="3" style="stroke:#038048;stroke-width:1.0;"/><text fill="#000000" font-family="sans-serif" font-size="14" lengthAdjust="spacing" textLength="68" x="27" y="199.5889">Model: int</text><ellipse cx="18" cy="212.5391" fill="none" rx="3" ry="3" style="stroke:#038048;stroke-width:1.0;"/><text fill="#000000" font-family="sans-serif" font-size="14" lengthAdjust="spacing" textLength="88" x="27" y="215.8857">Stepping: int</text><ellipse cx="18" cy="228.8359" fill="none" rx="3" ry="3" style="stroke:#038048;stroke-width:1.0;"/><text fill="#000000" font-family="sans-serif" font-size="14" lengthAdjust="spacing" textLength="130" x="27" y="232.1826">ProcessorType: int</text><ellipse cx="18" cy="245.1328" fill="none" rx="3" ry="3" style="stroke:#038048;stroke-width:1.0;"/><text fill="#000000" font-family="sans-serif" font-size="14" lengthAdjust="spacing" textLength="129" x="27" y="248.4795">BrandString: string</text><ellipse cx="18" cy="261.4297" fill="none" rx="3" ry="3" style="stroke:#038048;stroke-width:1.0;"/><text fill="#000000" font-family="sans-serif" font-size="14" lengthAdjust="spacing" textLength="172" x="27" y="264.7764">Registers: ICpuRegisters</text><ellipse cx="18" cy="277.7266" fill="none" rx="3" ry="3" style="stroke:#038048;stroke-width:1.0;"/><text fill="#000000" font-family="sans-serif" font-size="14" lengthAdjust="spacing" textLength="137" x="27" y="281.0732">Topology: Topology</text><line style="stroke:#181818;stroke-width:0.5;" x1="8" x2="204" y1="288.375" y2="288.375"/></g><!--class ICpuRegisters--><g id="elem_ICpuRegisters"><rect codeLine="17" fill="#F1F1F1" height="80.5938" id="ICpuRegisters" rx="2.5" ry="2.5" style="stroke:#181818;stroke-width:0.5;" width="410" x="240" y="166.89"/><ellipse cx="392.25" cy="182.89" fill="#B4A7E5" rx="11" ry="11" style="stroke:#181818;stroke-width:1.0;"/><path d="M388.1719,178.6556 L388.1719,176.4994 L395.5625,176.4994 L395.5625,178.6556 L393.0938,178.6556 L393.0938,186.7338 L395.5625,186.7338 L395.5625,188.89 L388.1719,188.89 L388.1719,186.7338 L390.6406,186.7338 L390.6406,178.6556 L388.1719,178.6556 Z " fill="#000000"/><text fill="#000000" font-family="sans-serif" font-size="14" font-style="italic" lengthAdjust="spacing" textLength="97" x="412.75" y="187.7367">ICpuRegisters</text><line style="stroke:#181818;stroke-width:0.5;" x1="241" x2="649" y1="198.89" y2="198.89"/><ellipse cx="251" cy="212.5384" fill="none" rx="3" ry="3" style="stroke:#038048;stroke-width:1.0;"/><text fill="#000000" font-family="sans-serif" font-size="14" lengthAdjust="spacing" textLength="94" x="260" y="215.8851">IsOnline: bool</text><line style="stroke:#181818;stroke-width:0.5;" x1="241" x2="649" y1="223.1869" y2="223.1869"/><ellipse cx="251" cy="236.8353" fill="#84BE84" rx="3" ry="3" style="stroke:#038048;stroke-width:1.0;"/><text fill="#000000" font-family="sans-serif" font-size="14" lengthAdjust="spacing" textLength="384" x="260" y="240.182">GetCpuId(function: int, subFunction: int): CpuIdRegister</text></g><!--class IEnumerable_CpuIdRegister--><g id="elem_IEnumerable_CpuIdRegister"><rect codeLine="22" fill="#F1F1F1" height="48" id="IEnumerable_CpuIdRegister" rx="2.5" ry="2.5" style="stroke:#181818;stroke-width:0.5;" width="209" x="340.5" y="10"/><ellipse cx="355.5" cy="26" fill="#B4A7E5" rx="11" ry="11" style="stroke:#181818;stroke-width:1.0;"/><path d="M351.4219,21.7656 L351.4219,19.6094 L358.8125,19.6094 L358.8125,21.7656 L356.3438,21.7656 L356.3438,29.8438 L358.8125,29.8438 L358.8125,32 L351.4219,32 L351.4219,29.8438 L353.8906,29.8438 L353.8906,21.7656 L351.4219,21.7656 Z " fill="#000000"/><text fill="#000000" font-family="sans-serif" font-size="14" font-style="italic" lengthAdjust="spacing" textLength="86" x="369.5" y="30.8467">IEnumerable</text><rect fill="#FFFFFF" height="15.9688" style="stroke:#181818;stroke-width:1.0;stroke-dasharray:2.0,2.0;" width="89" x="463.5" y="7"/><text fill="#000000" font-family="sans-serif" font-size="12" font-style="italic" lengthAdjust="spacing" textLength="87" x="464.5" y="19.1387">CpuIdRegister</text><line style="stroke:#181818;stroke-width:0.5;" x1="341.5" x2="548.5" y1="42" y2="42"/><line style="stroke:#181818;stroke-width:0.5;" x1="341.5" x2="548.5" y1="50" y2="50"/></g><!--class CpuIdRegister--><g id="elem_CpuIdRegister"><rect codeLine="24" fill="#F1F1F1" height="96.8906" id="CpuIdRegister" rx="2.5" ry="2.5" style="stroke:#181818;stroke-width:0.5;" width="302" x="294" y="356.38"/><ellipse cx="391.75" cy="372.38" fill="#ADD1B2" rx="11" ry="11" style="stroke:#181818;stroke-width:1.0;"/><path d="M394.7188,378.0206 Q394.1406,378.3175 393.5,378.4581 Q392.8594,378.6144 392.1563,378.6144 Q389.6563,378.6144 388.3281,376.9738 Q387.0156,375.3175 387.0156,372.1925 Q387.0156,369.0675 388.3281,367.4113 Q389.6563,365.755 392.1563,365.755 Q392.8594,365.755 393.5,365.9113 Q394.1563,366.0675 394.7188,366.3644 L394.7188,369.0831 Q394.0938,368.505 393.5,368.2394 Q392.9063,367.9581 392.2813,367.9581 Q390.9375,367.9581 390.25,369.0363 Q389.5625,370.0988 389.5625,372.1925 Q389.5625,374.2863 390.25,375.3644 Q390.9375,376.4269 392.2813,376.4269 Q392.9063,376.4269 393.5,376.1613 Q394.0938,375.88 394.7188,375.3019 L394.7188,378.0206 Z " fill="#000000"/><text fill="#000000" font-family="sans-serif" font-size="14" lengthAdjust="spacing" textLength="98" x="412.25" y="377.2267">CpuIdRegister</text><line style="stroke:#181818;stroke-width:0.5;" x1="295" x2="595" y1="388.38" y2="388.38"/><ellipse cx="305" cy="402.0284" fill="none" rx="3" ry="3" style="stroke:#038048;stroke-width:1.0;"/><text fill="#000000" font-family="sans-serif" font-size="14" lengthAdjust="spacing" textLength="86" x="314" y="405.3751">Function: int</text><ellipse cx="305" cy="418.3253" fill="none" rx="3" ry="3" style="stroke:#038048;stroke-width:1.0;"/><text fill="#000000" font-family="sans-serif" font-size="14" lengthAdjust="spacing" textLength="113" x="314" y="421.672">SubFunction: int</text><ellipse cx="305" cy="434.6222" fill="none" rx="3" ry="3" style="stroke:#038048;stroke-width:1.0;"/><text fill="#000000" font-family="sans-serif" font-size="14" lengthAdjust="spacing" textLength="276" x="314" y="437.9689">Result: IList&lt;int&gt; &#171;ReadOnlyCollection&#187;</text><line style="stroke:#181818;stroke-width:0.5;" x1="295" x2="595" y1="445.2706" y2="445.2706"/></g><!--reverse link ICpuId to ICpuIdX86--><g id="link_ICpuId_ICpuIdX86"><path codeLine="15" d="M106,79.21 C106,91.08 106,104.35 106,117.72 " fill="none" id="ICpuId-backto-ICpuIdX86" style="stroke:#181818;stroke-width:1.0;stroke-dasharray:7.0,7.0;"/><polygon fill="none" points="99,79.45,106,59.45,113,79.45,99,79.45" style="stroke:#181818;stroke-width:1.0;"/></g><!--reverse link IEnumerable_CpuIdRegister to ICpuRegisters--><g id="link_IEnumerable_CpuIdRegister_ICpuRegisters"><path codeLine="30" d="M445,79.11 C445,106.15 445,140.48 445,166.64 " fill="none" id="IEnumerable_CpuIdRegister-backto-ICpuRegisters" style="stroke:#181818;stroke-width:1.0;stroke-dasharray:7.0,7.0;"/><polygon fill="none" points="438,79.45,445,59.45,452,79.45,438,79.45" style="stroke:#181818;stroke-width:1.0;"/></g><!--reverse link ICpuIdX86 to ICpuRegisters--><g id="link_ICpuIdX86_ICpuRegisters"><path codeLine="31" d="M219.12,207.19 C226.07,207.19 233.01,207.19 239.96,207.19 " fill="none" id="ICpuIdX86-backto-ICpuRegisters" style="stroke:#181818;stroke-width:1.0;"/><polygon fill="#181818" points="206.32,207.19,212.32,211.19,218.32,207.19,212.32,203.19,206.32,207.19" style="stroke:#181818;stroke-width:1.0;"/></g><!--reverse link ICpuRegisters to CpuIdRegister--><g id="link_ICpuRegisters_CpuIdRegister"><path codeLine="32" d="M445,261.65 C445,291.14 445,327.45 445,356 " fill="none" id="ICpuRegisters-backto-CpuIdRegister" style="stroke:#181818;stroke-width:1.0;"/><polygon fill="#181818" points="445,248.78,441,254.78,445,260.78,449,254.78,445,248.78" style="stroke:#181818;stroke-width:1.0;"/><text fill="#000000" font-family="sans-serif" font-size="13" lengthAdjust="spacing" textLength="8" x="436.3625" y="267.5223">1</text><text fill="#000000" font-family="sans-serif" font-size="13" lengthAdjust="spacing" textLength="7" x="437.5078" y="345.1555">*</text></g><!--SRC=[TL9DIyGm5BpdLuISTBKBNaHAwS75bOAYRFVWJTBcRGbaavAFGr7_kp6nRLgqbpJlpPlCJCAb1NsYBU1grxkA8SHNbRUxM_o1iF-kNhLgmHYbQzv9Qfs677juRExfcOiXAJmh1YBPrnRwdiikAKs4nw5FkUurbQosEg1DM6FZ01qtNf_9Wxff6xj7rIkXEYzY_4DV24KRkFZSiktiQMrqeXhDFe8Ds8kJawtbIWPzrzYuPfzMBdCSS2D1dAxCYnHSUbEDKk97ndmSgHwaEuEcZO1YCLiIJ0rEskzBQjGAQipol57lGjHluYkfOuR62Ui3VFBpXI-Nk2WEG9bNFEoK410coZA4zv-M9C_v5kONiybqzaTpJfdS40zY6IORiWhm6m00]--></g></svg>