<?xml version="1.0" encoding="us-ascii" standalone="no"?><svg xmlns="http://www.w3.org/2000/svg" xmlns:xlink="http://www.w3.org/1999/xlink" contentStyleType="text/css" height="170px" preserveAspectRatio="none" style="width:712px;height:170px;background:#FFFFFF;" version="1.1" viewBox="0 0 712 170" width="712px" zoomAndPan="magnify"><defs/><g><!--class CacheTopo--><g id="elem_CacheTopo"><rect codeLine="2" fill="#F1F1F1" height="48" id="CacheTopo" rx="2.5" ry="2.5" style="stroke:#181818;stroke-width:0.5;" width="112" x="289" y="7"/><ellipse cx="304" cy="23" fill="#ADD1B2" rx="11" ry="11" style="stroke:#181818;stroke-width:1.0;"/><path d="M306.9688,28.6406 Q306.3906,28.9375 305.75,29.0781 Q305.1094,29.2344 304.4063,29.2344 Q301.9063,29.2344 300.5781,27.5938 Q299.2656,25.9375 299.2656,22.8125 Q299.2656,19.6875 300.5781,18.0313 Q301.9063,16.375 304.4063,16.375 Q305.1094,16.375 305.75,16.5313 Q306.4063,16.6875 306.9688,16.9844 L306.9688,19.7031 Q306.3438,19.125 305.75,18.8594 Q305.1563,18.5781 304.5313,18.5781 Q303.1875,18.5781 302.5,19.6563 Q301.8125,20.7188 301.8125,22.8125 Q301.8125,24.9063 302.5,25.9844 Q303.1875,27.0469 304.5313,27.0469 Q305.1563,27.0469 305.75,26.7813 Q306.3438,26.5 306.9688,25.9219 L306.9688,28.6406 Z " fill="#000000"/><text fill="#000000" font-family="sans-serif" font-size="14" lengthAdjust="spacing" textLength="80" x="318" y="27.8467">CacheTopo</text><line style="stroke:#181818;stroke-width:0.5;" x1="290" x2="400" y1="39" y2="39"/><line style="stroke:#181818;stroke-width:0.5;" x1="290" x2="400" y1="47" y2="47"/></g><!--class CacheTopoCpu--><g id="elem_CacheTopoCpu"><rect codeLine="3" fill="#F1F1F1" height="48" id="CacheTopoCpu" rx="2.5" ry="2.5" style="stroke:#181818;stroke-width:0.5;" width="140" x="7" y="115"/><ellipse cx="22" cy="131" fill="#ADD1B2" rx="11" ry="11" style="stroke:#181818;stroke-width:1.0;"/><path d="M24.9688,136.6406 Q24.3906,136.9375 23.75,137.0781 Q23.1094,137.2344 22.4063,137.2344 Q19.9063,137.2344 18.5781,135.5938 Q17.2656,133.9375 17.2656,130.8125 Q17.2656,127.6875 18.5781,126.0313 Q19.9063,124.375 22.4063,124.375 Q23.1094,124.375 23.75,124.5313 Q24.4063,124.6875 24.9688,124.9844 L24.9688,127.7031 Q24.3438,127.125 23.75,126.8594 Q23.1563,126.5781 22.5313,126.5781 Q21.1875,126.5781 20.5,127.6563 Q19.8125,128.7188 19.8125,130.8125 Q19.8125,132.9063 20.5,133.9844 Q21.1875,135.0469 22.5313,135.0469 Q23.1563,135.0469 23.75,134.7813 Q24.3438,134.5 24.9688,133.9219 L24.9688,136.6406 Z " fill="#000000"/><text fill="#000000" font-family="sans-serif" font-size="14" lengthAdjust="spacing" textLength="108" x="36" y="135.8467">CacheTopoCpu</text><line style="stroke:#181818;stroke-width:0.5;" x1="8" x2="146" y1="147" y2="147"/><line style="stroke:#181818;stroke-width:0.5;" x1="8" x2="146" y1="155" y2="155"/></g><!--class CacheTopoTrace--><g id="elem_CacheTopoTrace"><rect codeLine="4" fill="#F1F1F1" height="48" id="CacheTopoTrace" rx="2.5" ry="2.5" style="stroke:#181818;stroke-width:0.5;" width="151" x="181.5" y="115"/><ellipse cx="196.5" cy="131" fill="#ADD1B2" rx="11" ry="11" style="stroke:#181818;stroke-width:1.0;"/><path d="M199.4688,136.6406 Q198.8906,136.9375 198.25,137.0781 Q197.6094,137.2344 196.9063,137.2344 Q194.4063,137.2344 193.0781,135.5938 Q191.7656,133.9375 191.7656,130.8125 Q191.7656,127.6875 193.0781,126.0313 Q194.4063,124.375 196.9063,124.375 Q197.6094,124.375 198.25,124.5313 Q198.9063,124.6875 199.4688,124.9844 L199.4688,127.7031 Q198.8438,127.125 198.25,126.8594 Q197.6563,126.5781 197.0313,126.5781 Q195.6875,126.5781 195,127.6563 Q194.3125,128.7188 194.3125,130.8125 Q194.3125,132.9063 195,133.9844 Q195.6875,135.0469 197.0313,135.0469 Q197.6563,135.0469 198.25,134.7813 Q198.8438,134.5 199.4688,133.9219 L199.4688,136.6406 Z " fill="#000000"/><text fill="#000000" font-family="sans-serif" font-size="14" lengthAdjust="spacing" textLength="119" x="210.5" y="135.8467">CacheTopoTrace</text><line style="stroke:#181818;stroke-width:0.5;" x1="182.5" x2="331.5" y1="147" y2="147"/><line style="stroke:#181818;stroke-width:0.5;" x1="182.5" x2="331.5" y1="155" y2="155"/></g><!--class CacheTopoTlb--><g id="elem_CacheTopoTlb"><rect codeLine="5" fill="#F1F1F1" height="48" id="CacheTopoTlb" rx="2.5" ry="2.5" style="stroke:#181818;stroke-width:0.5;" width="133" x="367.5" y="115"/><ellipse cx="382.5" cy="131" fill="#ADD1B2" rx="11" ry="11" style="stroke:#181818;stroke-width:1.0;"/><path d="M385.4688,136.6406 Q384.8906,136.9375 384.25,137.0781 Q383.6094,137.2344 382.9063,137.2344 Q380.4063,137.2344 379.0781,135.5938 Q377.7656,133.9375 377.7656,130.8125 Q377.7656,127.6875 379.0781,126.0313 Q380.4063,124.375 382.9063,124.375 Q383.6094,124.375 384.25,124.5313 Q384.9063,124.6875 385.4688,124.9844 L385.4688,127.7031 Q384.8438,127.125 384.25,126.8594 Q383.6563,126.5781 383.0313,126.5781 Q381.6875,126.5781 381,127.6563 Q380.3125,128.7188 380.3125,130.8125 Q380.3125,132.9063 381,133.9844 Q381.6875,135.0469 383.0313,135.0469 Q383.6563,135.0469 384.25,134.7813 Q384.8438,134.5 385.4688,133.9219 L385.4688,136.6406 Z " fill="#000000"/><text fill="#000000" font-family="sans-serif" font-size="14" lengthAdjust="spacing" textLength="101" x="396.5" y="135.8467">CacheTopoTlb</text><line style="stroke:#181818;stroke-width:0.5;" x1="368.5" x2="499.5" y1="147" y2="147"/><line style="stroke:#181818;stroke-width:0.5;" x1="368.5" x2="499.5" y1="155" y2="155"/></g><!--class CacheTopoPrefetch--><g id="elem_CacheTopoPrefetch"><rect codeLine="6" fill="#F1F1F1" height="48" id="CacheTopoPrefetch" rx="2.5" ry="2.5" style="stroke:#181818;stroke-width:0.5;" width="170" x="535" y="115"/><ellipse cx="550" cy="131" fill="#ADD1B2" rx="11" ry="11" style="stroke:#181818;stroke-width:1.0;"/><path d="M552.9688,136.6406 Q552.3906,136.9375 551.75,137.0781 Q551.1094,137.2344 550.4063,137.2344 Q547.9063,137.2344 546.5781,135.5938 Q545.2656,133.9375 545.2656,130.8125 Q545.2656,127.6875 546.5781,126.0313 Q547.9063,124.375 550.4063,124.375 Q551.1094,124.375 551.75,124.5313 Q552.4063,124.6875 552.9688,124.9844 L552.9688,127.7031 Q552.3438,127.125 551.75,126.8594 Q551.1563,126.5781 550.5313,126.5781 Q549.1875,126.5781 548.5,127.6563 Q547.8125,128.7188 547.8125,130.8125 Q547.8125,132.9063 548.5,133.9844 Q549.1875,135.0469 550.5313,135.0469 Q551.1563,135.0469 551.75,134.7813 Q552.3438,134.5 552.9688,133.9219 L552.9688,136.6406 Z " fill="#000000"/><text fill="#000000" font-family="sans-serif" font-size="14" lengthAdjust="spacing" textLength="138" x="564" y="135.8467">CacheTopoPrefetch</text><line style="stroke:#181818;stroke-width:0.5;" x1="536" x2="704" y1="147" y2="147"/><line style="stroke:#181818;stroke-width:0.5;" x1="536" x2="704" y1="155" y2="155"/></g><!--reverse link CacheTopo to CacheTopoCpu--><g id="link_CacheTopo_CacheTopoCpu"><path codeLine="8" d="M283.51,56.32 C239.31,73.8 180.06,97.24 136.36,114.52 " fill="none" id="CacheTopo-backto-CacheTopoCpu" style="stroke:#181818;stroke-width:1.0;"/><polygon fill="#181818" points="287.82,54.22,277.9807,53.786,283.1659,56.0474,280.9045,61.2326,287.82,54.22" style="stroke:#181818;stroke-width:1.0;"/></g><!--reverse link CacheTopo to CacheTopoTrace--><g id="link_CacheTopo_CacheTopoTrace"><path codeLine="9" d="M322.16,59.52 C307.91,76.68 289.78,98.51 276.27,114.79 " fill="none" id="CacheTopo-backto-CacheTopoTrace" style="stroke:#181818;stroke-width:1.0;"/><polygon fill="#181818" points="325.69,56.26,316.857,60.6165,322.4905,60.1023,323.0047,65.7357,325.69,56.26" style="stroke:#181818;stroke-width:1.0;"/></g><!--reverse link CacheTopo to CacheTopoTlb--><g id="link_CacheTopo_CacheTopoTlb"><path codeLine="10" d="M368.1,59.52 C382.51,76.68 400.84,98.51 414.51,114.79 " fill="none" id="CacheTopo-backto-CacheTopoTlb" style="stroke:#181818;stroke-width:1.0;"/><polygon fill="#181818" points="364.53,56.26,367.2534,65.7248,367.745,60.0894,373.3804,60.5809,364.53,56.26" style="stroke:#181818;stroke-width:1.0;"/></g><!--reverse link CacheTopo to CacheTopoPrefetch--><g id="link_CacheTopo_CacheTopoPrefetch"><path codeLine="11" d="M406.79,55.82 C452.4,73.4 514.16,97.2 559.47,114.67 " fill="none" id="CacheTopo-backto-CacheTopoPrefetch" style="stroke:#181818;stroke-width:1.0;"/><polygon fill="#181818" points="402.31,53.71,409.2699,60.6785,406.9756,55.5078,412.1463,53.2135,402.31,53.71" style="stroke:#181818;stroke-width:1.0;"/></g><!--SRC=[Iyv9B2vMS4vCpaWDoI_8vqf6vJiNbA8BXHGb9gTY2EOaeGi55AMcfPOaPt1nmOKKR7HJT54DnoK7iGMdBD0wN79mUm40]--></g></svg>