<?xml version="1.0" encoding="UTF-8" standalone="no"?><svg xmlns="http://www.w3.org/2000/svg" xmlns:xlink="http://www.w3.org/1999/xlink" contentScriptType="application/ecmascript" contentStyleType="text/css" height="506px" preserveAspectRatio="none" style="width:1432px;height:506px;background:#FFFFFF;" version="1.1" viewBox="0 0 1432 506" width="1432px" zoomAndPan="magnify"><defs><filter height="300%" id="f4iflsukjz0a2" width="300%" x="-1" y="-1"><feGaussianBlur result="blurOut" stdDeviation="2.0"/><feColorMatrix in="blurOut" result="blurOut2" type="matrix" values="0 0 0 0 0 0 0 0 0 0 0 0 0 0 0 0 0 0 .4 0"/><feOffset dx="4.0" dy="4.0" in="blurOut2" result="blurOut3"/><feBlend in="SourceGraphic" in2="blurOut3" mode="normal"/></filter></defs><g><!--MD5=[0b3d0186f438bbea9fce914c782a218a]
cluster CpuId--><polygon fill="#FFFFFF" filter="url(#f4iflsukjz0a2)" points="16,211,67,211,74,233.2969,1113,233.2969,1113,499,16,499,16,211" style="stroke:#000000;stroke-width:1.5;"/><line style="stroke:#000000;stroke-width:1.5;" x1="16" x2="74" y1="233.2969" y2="233.2969"/><text fill="#000000" font-family="sans-serif" font-size="14" font-weight="bold" lengthAdjust="spacing" textLength="45" x="20" y="225.9951">CpuId</text><!--MD5=[643cdd70765536128cd25785f7b83548]
cluster CpuId.Intel--><polygon fill="#FFFFFF" filter="url(#f4iflsukjz0a2)" points="40,254,80,254,87,276.2969,915,276.2969,915,475,40,475,40,254" style="stroke:#000000;stroke-width:1.5;"/><line style="stroke:#000000;stroke-width:1.5;" x1="40" x2="87" y1="276.2969" y2="276.2969"/><text fill="#000000" font-family="sans-serif" font-size="14" font-weight="bold" lengthAdjust="spacing" textLength="34" x="44" y="268.9951">Intel</text><!--MD5=[dd42fe967802bb9cb4598e3ca6997176]
class CpuId.WindowsCpuIdFactory--><rect codeLine="24" fill="#FEFECE" filter="url(#f4iflsukjz0a2)" height="32" id="CpuId.WindowsCpuIdFactory" style="stroke:#A80036;stroke-width:1.5;" width="167" x="930.5" y="308"/><ellipse cx="945.5" cy="324" fill="#ADD1B2" rx="11" ry="11" style="stroke:#A80036;stroke-width:1.0;"/><path d="M948.4688,329.6406 Q947.8906,329.9375 947.25,330.0781 Q946.6094,330.2344 945.9063,330.2344 Q943.4063,330.2344 942.0781,328.5938 Q940.7656,326.9375 940.7656,323.8125 Q940.7656,320.6875 942.0781,319.0313 Q943.4063,317.375 945.9063,317.375 Q946.6094,317.375 947.25,317.5313 Q947.9063,317.6875 948.4688,317.9844 L948.4688,320.7031 Q947.8438,320.125 947.25,319.8594 Q946.6563,319.5781 946.0313,319.5781 Q944.6875,319.5781 944,320.6563 Q943.3125,321.7188 943.3125,323.8125 Q943.3125,325.9063 944,326.9844 Q944.6875,328.0469 946.0313,328.0469 Q946.6563,328.0469 947.25,327.7813 Q947.8438,327.5 948.4688,326.9219 L948.4688,329.6406 Z " fill="#000000"/><text fill="#000000" font-family="sans-serif" font-size="12" lengthAdjust="spacing" textLength="135" x="959.5" y="328.1543">WindowsCpuIdFactory</text><!--MD5=[c741de83004758325c6504a706cb0d94]
class CpuId.Intel.X86CpuIdFactoryBase--><rect codeLine="27" fill="#FEFECE" filter="url(#f4iflsukjz0a2)" height="32" id="CpuId.Intel.X86CpuIdFactoryBase" style="stroke:#A80036;stroke-width:1.5;" width="167" x="400.5" y="308"/><ellipse cx="415.5" cy="324" fill="#ADD1B2" rx="11" ry="11" style="stroke:#A80036;stroke-width:1.0;"/><path d="M418.4688,329.6406 Q417.8906,329.9375 417.25,330.0781 Q416.6094,330.2344 415.9063,330.2344 Q413.4063,330.2344 412.0781,328.5938 Q410.7656,326.9375 410.7656,323.8125 Q410.7656,320.6875 412.0781,319.0313 Q413.4063,317.375 415.9063,317.375 Q416.6094,317.375 417.25,317.5313 Q417.9063,317.6875 418.4688,317.9844 L418.4688,320.7031 Q417.8438,320.125 417.25,319.8594 Q416.6563,319.5781 416.0313,319.5781 Q414.6875,319.5781 414,320.6563 Q413.3125,321.7188 413.3125,323.8125 Q413.3125,325.9063 414,326.9844 Q414.6875,328.0469 416.0313,328.0469 Q416.6563,328.0469 417.25,327.7813 Q417.8438,327.5 418.4688,326.9219 L418.4688,329.6406 Z " fill="#000000"/><text fill="#000000" font-family="sans-serif" font-size="12" lengthAdjust="spacing" textLength="135" x="429.5" y="328.1543">X86CpuIdFactoryBase</text><!--MD5=[af90932831eca563a24a31802b7817b2]
class CpuId.Intel.X86CpuIdFactory--><rect codeLine="28" fill="#FEFECE" filter="url(#f4iflsukjz0a2)" height="32" id="CpuId.Intel.X86CpuIdFactory" style="stroke:#A80036;stroke-width:1.5;" width="136" x="763" y="424"/><ellipse cx="778" cy="440" fill="#ADD1B2" rx="11" ry="11" style="stroke:#A80036;stroke-width:1.0;"/><path d="M780.9688,445.6406 Q780.3906,445.9375 779.75,446.0781 Q779.1094,446.2344 778.4063,446.2344 Q775.9063,446.2344 774.5781,444.5938 Q773.2656,442.9375 773.2656,439.8125 Q773.2656,436.6875 774.5781,435.0313 Q775.9063,433.375 778.4063,433.375 Q779.1094,433.375 779.75,433.5313 Q780.4063,433.6875 780.9688,433.9844 L780.9688,436.7031 Q780.3438,436.125 779.75,435.8594 Q779.1563,435.5781 778.5313,435.5781 Q777.1875,435.5781 776.5,436.6563 Q775.8125,437.7188 775.8125,439.8125 Q775.8125,441.9063 776.5,442.9844 Q777.1875,444.0469 778.5313,444.0469 Q779.1563,444.0469 779.75,443.7813 Q780.3438,443.5 780.9688,442.9219 L780.9688,445.6406 Z " fill="#000000"/><text fill="#000000" font-family="sans-serif" font-size="12" lengthAdjust="spacing" textLength="104" x="792" y="444.1543">X86CpuIdFactory</text><!--MD5=[b34dfa4bd2b297667ad8f866154d9cab]
class CpuId.Intel.X86CpuIdFactoryXml--><rect codeLine="29" fill="#FEFECE" filter="url(#f4iflsukjz0a2)" height="32" id="CpuId.Intel.X86CpuIdFactoryXml" style="stroke:#A80036;stroke-width:1.5;" width="157" x="56.5" y="424"/><ellipse cx="71.5" cy="440" fill="#ADD1B2" rx="11" ry="11" style="stroke:#A80036;stroke-width:1.0;"/><path d="M74.4688,445.6406 Q73.8906,445.9375 73.25,446.0781 Q72.6094,446.2344 71.9063,446.2344 Q69.4063,446.2344 68.0781,444.5938 Q66.7656,442.9375 66.7656,439.8125 Q66.7656,436.6875 68.0781,435.0313 Q69.4063,433.375 71.9063,433.375 Q72.6094,433.375 73.25,433.5313 Q73.9063,433.6875 74.4688,433.9844 L74.4688,436.7031 Q73.8438,436.125 73.25,435.8594 Q72.6563,435.5781 72.0313,435.5781 Q70.6875,435.5781 70,436.6563 Q69.3125,437.7188 69.3125,439.8125 Q69.3125,441.9063 70,442.9844 Q70.6875,444.0469 72.0313,444.0469 Q72.6563,444.0469 73.25,443.7813 Q73.8438,443.5 74.4688,442.9219 L74.4688,445.6406 Z " fill="#000000"/><text fill="#000000" font-family="sans-serif" font-size="12" lengthAdjust="spacing" textLength="125" x="85.5" y="444.1543">X86CpuIdFactoryXml</text><!--MD5=[34e7af146c31d87bba3043997c16e818]
class CpuId.Intel.GenuineIntelCpu--><rect codeLine="31" fill="#FEFECE" filter="url(#f4iflsukjz0a2)" height="37.9375" id="CpuId.Intel.GenuineIntelCpu" style="stroke:#A80036;stroke-width:1.5;" width="135" x="248.5" y="421"/><ellipse cx="263.5" cy="439.9688" fill="#ADD1B2" rx="11" ry="11" style="stroke:#A80036;stroke-width:1.0;"/><path d="M266.4688,445.6094 Q265.8906,445.9063 265.25,446.0469 Q264.6094,446.2031 263.9063,446.2031 Q261.4063,446.2031 260.0781,444.5625 Q258.7656,442.9063 258.7656,439.7813 Q258.7656,436.6563 260.0781,435 Q261.4063,433.3438 263.9063,433.3438 Q264.6094,433.3438 265.25,433.5 Q265.9063,433.6563 266.4688,433.9531 L266.4688,436.6719 Q265.8438,436.0938 265.25,435.8281 Q264.6563,435.5469 264.0313,435.5469 Q262.6875,435.5469 262,436.625 Q261.3125,437.6875 261.3125,439.7813 Q261.3125,441.875 262,442.9531 Q262.6875,444.0156 264.0313,444.0156 Q264.6563,444.0156 265.25,443.75 Q265.8438,443.4688 266.4688,442.8906 L266.4688,445.6094 Z " fill="#000000"/><text fill="#000000" font-family="sans-serif" font-size="12" font-style="italic" lengthAdjust="spacing" textLength="52" x="303" y="437.1387">«ICpuId»</text><text fill="#000000" font-family="sans-serif" font-size="12" lengthAdjust="spacing" textLength="103" x="277.5" y="451.1074">GenuineIntelCpu</text><!--MD5=[c4434723eab3d99b978e1b814d0ca060]
class CpuId.Intel.GenericIntelCpu--><rect codeLine="32" fill="#FEFECE" filter="url(#f4iflsukjz0a2)" height="37.9375" id="CpuId.Intel.GenericIntelCpu" style="stroke:#A80036;stroke-width:1.5;" width="131" x="418.5" y="421"/><ellipse cx="433.5" cy="439.9688" fill="#ADD1B2" rx="11" ry="11" style="stroke:#A80036;stroke-width:1.0;"/><path d="M436.4688,445.6094 Q435.8906,445.9063 435.25,446.0469 Q434.6094,446.2031 433.9063,446.2031 Q431.4063,446.2031 430.0781,444.5625 Q428.7656,442.9063 428.7656,439.7813 Q428.7656,436.6563 430.0781,435 Q431.4063,433.3438 433.9063,433.3438 Q434.6094,433.3438 435.25,433.5 Q435.9063,433.6563 436.4688,433.9531 L436.4688,436.6719 Q435.8438,436.0938 435.25,435.8281 Q434.6563,435.5469 434.0313,435.5469 Q432.6875,435.5469 432,436.625 Q431.3125,437.6875 431.3125,439.7813 Q431.3125,441.875 432,442.9531 Q432.6875,444.0156 434.0313,444.0156 Q434.6563,444.0156 435.25,443.75 Q435.8438,443.4688 436.4688,442.8906 L436.4688,445.6094 Z " fill="#000000"/><text fill="#000000" font-family="sans-serif" font-size="12" font-style="italic" lengthAdjust="spacing" textLength="52" x="471" y="437.1387">«ICpuId»</text><text fill="#000000" font-family="sans-serif" font-size="12" lengthAdjust="spacing" textLength="99" x="447.5" y="451.1074">GenericIntelCpu</text><!--MD5=[9fda58a7955213559f9e80ca8acf9348]
class CpuId.Intel.AuthenticAmdCpu--><rect codeLine="33" fill="#FEFECE" filter="url(#f4iflsukjz0a2)" height="37.9375" id="CpuId.Intel.AuthenticAmdCpu" style="stroke:#A80036;stroke-width:1.5;" width="143" x="584.5" y="421"/><ellipse cx="599.5" cy="439.9688" fill="#ADD1B2" rx="11" ry="11" style="stroke:#A80036;stroke-width:1.0;"/><path d="M602.4688,445.6094 Q601.8906,445.9063 601.25,446.0469 Q600.6094,446.2031 599.9063,446.2031 Q597.4063,446.2031 596.0781,444.5625 Q594.7656,442.9063 594.7656,439.7813 Q594.7656,436.6563 596.0781,435 Q597.4063,433.3438 599.9063,433.3438 Q600.6094,433.3438 601.25,433.5 Q601.9063,433.6563 602.4688,433.9531 L602.4688,436.6719 Q601.8438,436.0938 601.25,435.8281 Q600.6563,435.5469 600.0313,435.5469 Q598.6875,435.5469 598,436.625 Q597.3125,437.6875 597.3125,439.7813 Q597.3125,441.875 598,442.9531 Q598.6875,444.0156 600.0313,444.0156 Q600.6563,444.0156 601.25,443.75 Q601.8438,443.4688 602.4688,442.8906 L602.4688,445.6094 Z " fill="#000000"/><text fill="#000000" font-family="sans-serif" font-size="12" font-style="italic" lengthAdjust="spacing" textLength="52" x="643" y="437.1387">«ICpuId»</text><text fill="#000000" font-family="sans-serif" font-size="12" lengthAdjust="spacing" textLength="111" x="613.5" y="451.1074">AuthenticAmdCpu</text><!--MD5=[a1053553dc372860ebc9abf97fbd60a3]
class CpuVendor--><!--MD5=[6d45f72aca59e527318766c0d31b3710]
class ICpuId--><rect codeLine="8" fill="#FEFECE" filter="url(#f4iflsukjz0a2)" height="32" id="ICpuId" style="stroke:#A80036;stroke-width:1.5;" width="70" x="841" y="116"/><ellipse cx="856" cy="132" fill="#B4A7E5" rx="11" ry="11" style="stroke:#A80036;stroke-width:1.0;"/><path d="M851.9219,127.7656 L851.9219,125.6094 L859.3125,125.6094 L859.3125,127.7656 L856.8438,127.7656 L856.8438,135.8438 L859.3125,135.8438 L859.3125,138 L851.9219,138 L851.9219,135.8438 L854.3906,135.8438 L854.3906,127.7656 L851.9219,127.7656 Z " fill="#000000"/><text fill="#000000" font-family="sans-serif" font-size="12" font-style="italic" lengthAdjust="spacing" textLength="38" x="870" y="136.1543">ICpuId</text><!--MD5=[83a8f9bac152e1519f0fb993a1d4f37d]
class CpuIdXmlFactory--><rect codeLine="14" fill="#FEFECE" filter="url(#f4iflsukjz0a2)" height="32" id="CpuIdXmlFactory" style="stroke:#A80036;stroke-width:1.5;" width="134" x="460" y="116"/><ellipse cx="475" cy="132" fill="#ADD1B2" rx="11" ry="11" style="stroke:#A80036;stroke-width:1.0;"/><path d="M477.9688,137.6406 Q477.3906,137.9375 476.75,138.0781 Q476.1094,138.2344 475.4063,138.2344 Q472.9063,138.2344 471.5781,136.5938 Q470.2656,134.9375 470.2656,131.8125 Q470.2656,128.6875 471.5781,127.0313 Q472.9063,125.375 475.4063,125.375 Q476.1094,125.375 476.75,125.5313 Q477.4063,125.6875 477.9688,125.9844 L477.9688,128.7031 Q477.3438,128.125 476.75,127.8594 Q476.1563,127.5781 475.5313,127.5781 Q474.1875,127.5781 473.5,128.6563 Q472.8125,129.7188 472.8125,131.8125 Q472.8125,133.9063 473.5,134.9844 Q474.1875,136.0469 475.5313,136.0469 Q476.1563,136.0469 476.75,135.7813 Q477.3438,135.5 477.9688,134.9219 L477.9688,137.6406 Z " fill="#000000"/><text fill="#000000" font-family="sans-serif" font-size="12" lengthAdjust="spacing" textLength="102" x="489" y="136.1543">CpuIdXmlFactory</text><!--MD5=[622e9bcad37ae1b3b91c635667c1e00f]
class CpuIdFactory--><rect codeLine="15" fill="#FEFECE" filter="url(#f4iflsukjz0a2)" height="32" id="CpuIdFactory" style="stroke:#A80036;stroke-width:1.5;" width="113" x="629.5" y="116"/><ellipse cx="644.5" cy="132" fill="#ADD1B2" rx="11" ry="11" style="stroke:#A80036;stroke-width:1.0;"/><path d="M647.4688,137.6406 Q646.8906,137.9375 646.25,138.0781 Q645.6094,138.2344 644.9063,138.2344 Q642.4063,138.2344 641.0781,136.5938 Q639.7656,134.9375 639.7656,131.8125 Q639.7656,128.6875 641.0781,127.0313 Q642.4063,125.375 644.9063,125.375 Q645.6094,125.375 646.25,125.5313 Q646.9063,125.6875 647.4688,125.9844 L647.4688,128.7031 Q646.8438,128.125 646.25,127.8594 Q645.6563,127.5781 645.0313,127.5781 Q643.6875,127.5781 643,128.6563 Q642.3125,129.7188 642.3125,131.8125 Q642.3125,133.9063 643,134.9844 Q643.6875,136.0469 645.0313,136.0469 Q645.6563,136.0469 646.25,135.7813 Q646.8438,135.5 647.4688,134.9219 L647.4688,137.6406 Z " fill="#000000"/><text fill="#000000" font-family="sans-serif" font-size="12" lengthAdjust="spacing" textLength="81" x="658.5" y="136.1543">CpuIdFactory</text><!--MD5=[7875bc7bab64ea092a758d1c9f94b24e]
entity x86cpuidwin--><rect fill="#FEFECE" filter="url(#f4iflsukjz0a2)" height="46.2969" style="stroke:#A80036;stroke-width:1.5;" width="127" x="1129.5" y="417"/><rect fill="#FEFECE" height="10" style="stroke:#A80036;stroke-width:1.5;" width="15" x="1236.5" y="422"/><rect fill="#FEFECE" height="2" style="stroke:#A80036;stroke-width:1.5;" width="4" x="1234.5" y="424"/><rect fill="#FEFECE" height="2" style="stroke:#A80036;stroke-width:1.5;" width="4" x="1234.5" y="428"/><text fill="#000000" font-family="sans-serif" font-size="14" lengthAdjust="spacing" textLength="87" x="1144.5" y="449.9951">x86\cpuid.dll</text><!--MD5=[31b3a7f180063d97e0c2baccf242f897]
entity x64cpuidwin--><rect fill="#FEFECE" filter="url(#f4iflsukjz0a2)" height="46.2969" style="stroke:#A80036;stroke-width:1.5;" width="127" x="1291.5" y="417"/><rect fill="#FEFECE" height="10" style="stroke:#A80036;stroke-width:1.5;" width="15" x="1398.5" y="422"/><rect fill="#FEFECE" height="2" style="stroke:#A80036;stroke-width:1.5;" width="4" x="1396.5" y="424"/><rect fill="#FEFECE" height="2" style="stroke:#A80036;stroke-width:1.5;" width="4" x="1396.5" y="428"/><text fill="#000000" font-family="sans-serif" font-size="14" lengthAdjust="spacing" textLength="87" x="1306.5" y="449.9951">x64\cpuid.dll</text><ellipse cx="527" cy="23" fill="#FEFECE" filter="url(#f4iflsukjz0a2)" rx="5" ry="5" style="stroke:#A80036;stroke-width:1.5;"/><text fill="#000000" font-family="sans-serif" font-size="12" lengthAdjust="spacing" textLength="84" x="485" y="39.1387">ICpuIdFactory</text><ellipse cx="686" cy="23" fill="#FEFECE" filter="url(#f4iflsukjz0a2)" rx="5" ry="5" style="stroke:#A80036;stroke-width:1.5;"/><text fill="#000000" font-family="sans-serif" font-size="12" lengthAdjust="spacing" textLength="84" x="644" y="39.1387">ICpuIdFactory</text><!--MD5=[e1f19adb9461d67695a5c467495cb985]
link CpuIdXmlFactorylol3198 to CpuIdXmlFactory--><path d="M527,28.06 C527,42.34 527,90.69 527,115.71 " fill="none" id="CpuIdXmlFactorylol3198-CpuIdXmlFactory" style="stroke:#A80036;stroke-width:1.0;"/><!--MD5=[5fcd272716339d345172d6951494ab24]
link CpuIdFactorylol3201 to CpuIdFactory--><path d="M686,28.06 C686,42.34 686,90.69 686,115.71 " fill="none" id="CpuIdFactorylol3201-CpuIdFactory" style="stroke:#A80036;stroke-width:1.0;"/><!--MD5=[9fd16874f50f185ea6699b83b839c4db]
reverse link CpuId.Intel.X86CpuIdFactoryBase to CpuId.Intel.X86CpuIdFactory--><path codeLine="37" d="M565.72,345.03 C593.31,352.28 624.16,360.93 652,370 C702.51,386.45 759.57,409.19 795.4,423.99 " fill="none" id="CpuId.Intel.X86CpuIdFactoryBase-backto-CpuId.Intel.X86CpuIdFactory" style="stroke:#A80036;stroke-width:1.0;"/><polygon fill="none" points="563.91,351.79,546.3,340.01,567.41,338.23,563.91,351.79" style="stroke:#A80036;stroke-width:1.0;"/><!--MD5=[bd01c60c284f629bf43169138a0ec59d]
link CpuIdFactory to CpuId.WindowsCpuIdFactory--><path codeLine="39" d="M742.66,140.9 C791.57,149.81 862.45,167.9 915,203 C954.7,229.52 986.78,276.63 1002.83,303.25 " fill="none" id="CpuIdFactory-to-CpuId.WindowsCpuIdFactory" style="stroke:#A80036;stroke-width:1.0;"/><polygon fill="#A80036" points="1005.45,307.66,1004.2878,297.88,1002.8943,303.3625,997.4118,301.969,1005.45,307.66" style="stroke:#A80036;stroke-width:1.0;"/><text fill="#000000" font-family="sans-serif" font-size="13" lengthAdjust="spacing" textLength="64" x="899" y="191.0669">«creates»</text><!--MD5=[f64a6e9f3422ae409e97cbc937fbabbb]
link CpuIdFactory to ICpuId--><path codeLine="40" d="M742.75,132 C772.58,132 808.45,132 835.46,132 " fill="none" id="CpuIdFactory-to-ICpuId" style="stroke:#A80036;stroke-width:1.0;stroke-dasharray:7.0,7.0;"/><polygon fill="#A80036" points="840.74,132,831.74,128,835.74,132,831.74,136,840.74,132" style="stroke:#A80036;stroke-width:1.0;"/><text fill="#000000" font-family="sans-serif" font-size="13" lengthAdjust="spacing" textLength="62" x="760.75" y="125.0669">«returns»</text><!--MD5=[f25f4ebcd0d276b8089dccf960211fac]
link CpuId.WindowsCpuIdFactory to CpuId.Intel.X86CpuIdFactory--><path codeLine="42" d="M989.7,340.14 C956.11,361.06 895.59,398.76 859.78,421.07 " fill="none" id="CpuId.WindowsCpuIdFactory-to-CpuId.Intel.X86CpuIdFactory" style="stroke:#A80036;stroke-width:1.0;"/><polygon fill="#A80036" points="855.11,423.98,864.8641,422.6168,859.354,421.3364,860.6343,415.8264,855.11,423.98" style="stroke:#A80036;stroke-width:1.0;"/><text fill="#000000" font-family="sans-serif" font-size="13" lengthAdjust="spacing" textLength="64" x="939" y="383.0669">«creates»</text><!--MD5=[662880dc046b7604dfeb746029289210]
link CpuId.WindowsCpuIdFactory to x86cpuidwin--><path codeLine="43" d="M1037.77,340.14 C1068.68,359.82 1122.89,394.35 1158.37,416.95 " fill="none" id="CpuId.WindowsCpuIdFactory-x86cpuidwin" style="stroke:#A80036;stroke-width:1.0;"/><!--MD5=[478fc836689dec64d272314302d31e5a]
link CpuId.WindowsCpuIdFactory to x64cpuidwin--><path codeLine="44" d="M1058.93,340.02 C1118.43,359.91 1223.71,395.11 1291.37,417.73 " fill="none" id="CpuId.WindowsCpuIdFactory-x64cpuidwin" style="stroke:#A80036;stroke-width:1.0;"/><!--MD5=[0a15b01ed8c3ce1c67cdd0eebec91be8]
link CpuId.Intel.X86CpuIdFactoryBase to CpuId.Intel.GenuineIntelCpu--><path codeLine="46" d="M459.09,340.02 C445.11,348.59 427.42,359.65 412,370 C388.86,385.52 363.27,403.98 344.34,417.9 " fill="none" id="CpuId.Intel.X86CpuIdFactoryBase-to-CpuId.Intel.GenuineIntelCpu" style="stroke:#A80036;stroke-width:1.0;stroke-dasharray:7.0,7.0;"/><polygon fill="#A80036" points="340.16,420.98,349.7821,418.8789,344.1907,418.0213,345.0482,412.4299,340.16,420.98" style="stroke:#A80036;stroke-width:1.0;"/><text fill="#000000" font-family="sans-serif" font-size="13" lengthAdjust="spacing" textLength="62" x="413" y="383.0669">«returns»</text><!--MD5=[c17df404e8e4e8c847946a98d4c22131]
link CpuId.Intel.X86CpuIdFactoryBase to CpuId.Intel.GenericIntelCpu--><path codeLine="47" d="M484,340.37 C484,359.73 484,393.16 484,415.68 " fill="none" id="CpuId.Intel.X86CpuIdFactoryBase-to-CpuId.Intel.GenericIntelCpu" style="stroke:#A80036;stroke-width:1.0;stroke-dasharray:7.0,7.0;"/><polygon fill="#A80036" points="484,420.87,488,411.87,484,415.87,480,411.87,484,420.87" style="stroke:#A80036;stroke-width:1.0;"/><text fill="#000000" font-family="sans-serif" font-size="13" lengthAdjust="spacing" textLength="62" x="485" y="383.0669">«returns»</text><!--MD5=[fba062ce4587eb0c3ed21f86440d4c9f]
link CpuId.Intel.X86CpuIdFactoryBase to CpuId.Intel.AuthenticAmdCpu--><path codeLine="48" d="M508.84,340.14 C522.79,348.74 540.48,359.8 556,370 C579.76,385.61 606.23,403.92 625.96,417.75 " fill="none" id="CpuId.Intel.X86CpuIdFactoryBase-to-CpuId.Intel.AuthenticAmdCpu" style="stroke:#A80036;stroke-width:1.0;stroke-dasharray:7.0,7.0;"/><polygon fill="#A80036" points="630.32,420.8,625.2566,412.3524,626.2292,417.925,620.6566,418.8976,630.32,420.8" style="stroke:#A80036;stroke-width:1.0;"/><text fill="#000000" font-family="sans-serif" font-size="13" lengthAdjust="spacing" textLength="62" x="581" y="383.0669">«returns»</text><!--MD5=[cee70b500b7842dcc6c8f8008fb3b94e]
link CpuIdXmlFactory to CpuId.Intel.X86CpuIdFactoryXml--><path codeLine="50" d="M459.91,144.77 C416.21,154.86 359.6,172.73 317,203 C232.36,263.15 168.57,374.03 144.96,419.13 " fill="none" id="CpuIdXmlFactory-to-CpuId.Intel.X86CpuIdFactoryXml" style="stroke:#A80036;stroke-width:1.0;"/><polygon fill="#A80036" points="142.54,423.8,150.2298,417.6464,144.8387,419.3597,143.1254,413.9686,142.54,423.8" style="stroke:#A80036;stroke-width:1.0;"/><text fill="#000000" font-family="sans-serif" font-size="13" lengthAdjust="spacing" textLength="64" x="318" y="328.5669">«creates»</text><!--MD5=[cb35fc52455662b0b78132d5d85f444b]
link CpuIdXmlFactory to ICpuId--><path codeLine="51" d="M577.83,115.93 C646.58,95.27 765.4,63.66 807,78 C826.68,84.79 845.04,99.75 857.86,112.2 " fill="none" id="CpuIdXmlFactory-to-ICpuId" style="stroke:#A80036;stroke-width:1.0;stroke-dasharray:7.0,7.0;"/><polygon fill="#A80036" points="861.66,115.98,858.0873,106.802,858.1102,112.4588,852.4534,112.4817,861.66,115.98" style="stroke:#A80036;stroke-width:1.0;"/><text fill="#000000" font-family="sans-serif" font-size="13" lengthAdjust="spacing" textLength="62" x="744" y="82.0669">«returns»</text><!--MD5=[ae82c3745565b23e6811ea3b8183da2f]
reverse link CpuId.Intel.X86CpuIdFactoryBase to CpuId.Intel.X86CpuIdFactoryXml--><path codeLine="52" d="M418.72,346.32 C349.51,368.93 241.95,404.06 181.09,423.95 " fill="none" id="CpuId.Intel.X86CpuIdFactoryBase-backto-CpuId.Intel.X86CpuIdFactoryXml" style="stroke:#A80036;stroke-width:1.0;"/><polygon fill="none" points="416.83,339.58,438.02,340.02,421.18,352.88,416.83,339.58" style="stroke:#A80036;stroke-width:1.0;"/><!--MD5=[da1cd60df9bbd706ef91bee815ada73a]
@startuml
allowmixing
hide empty members

enum CpuVendor
hide CpuVendor

'interface ICpuIdFactory { }
interface ICpuId { }
'hide ICpuIdFactory
'hide ICpuId

'ICpuIdFactory .. ICpuId : <<returns>>

class CpuIdXmlFactory { }
class CpuIdFactory { }

component [x86\\cpuid.dll] as x86cpuidwin
component [x64\\cpuid.dll] as x64cpuidwin

ICpuIdFactory ()- - CpuIdXmlFactory
ICpuIdFactory ()- - CpuIdFactory

namespace CpuId {
    class WindowsCpuIdFactory { }

    namespace CpuId.Intel {
        class X86CpuIdFactoryBase { }
        class X86CpuIdFactory { }
        class X86CpuIdFactoryXml { }

        class GenuineIntelCpu <<ICpuId>> { }
        class GenericIntelCpu <<ICpuId>> { }
        class AuthenticAmdCpu <<ICpuId>> { }
    }
}

CpuId.Intel.X86CpuIdFactoryBase <|- - CpuId.Intel.X86CpuIdFactory

CpuIdFactory - -> CpuId.WindowsCpuIdFactory : <<creates>>
CpuIdFactory .> ICpuId : <<returns>>

CpuId.WindowsCpuIdFactory - -> CpuId.Intel.X86CpuIdFactory : <<creates>>
CpuId.WindowsCpuIdFactory - - x86cpuidwin
CpuId.WindowsCpuIdFactory - - x64cpuidwin

CpuId.Intel.X86CpuIdFactoryBase ..> CpuId.Intel.GenuineIntelCpu : <<returns>>
CpuId.Intel.X86CpuIdFactoryBase ..> CpuId.Intel.GenericIntelCpu : <<returns>>
CpuId.Intel.X86CpuIdFactoryBase ..> CpuId.Intel.AuthenticAmdCpu : <<returns>>

CpuIdXmlFactory - -> CpuId.Intel.X86CpuIdFactoryXml : <<creates>>
CpuIdXmlFactory .> ICpuId : <<returns>>
CpuId.Intel.X86CpuIdFactoryBase <|- - CpuId.Intel.X86CpuIdFactoryXml
@enduml

@startuml
allowmixing
hide empty members

enum CpuVendor
hide CpuVendor

interface ICpuId { }


class CpuIdXmlFactory { }
class CpuIdFactory { }

component [x86\\cpuid.dll] as x86cpuidwin
component [x64\\cpuid.dll] as x64cpuidwin

ICpuIdFactory ()- - CpuIdXmlFactory
ICpuIdFactory ()- - CpuIdFactory

namespace CpuId {
    class WindowsCpuIdFactory { }

    namespace CpuId.Intel {
        class X86CpuIdFactoryBase { }
        class X86CpuIdFactory { }
        class X86CpuIdFactoryXml { }

        class GenuineIntelCpu <<ICpuId>> { }
        class GenericIntelCpu <<ICpuId>> { }
        class AuthenticAmdCpu <<ICpuId>> { }
    }
}

CpuId.Intel.X86CpuIdFactoryBase <|- - CpuId.Intel.X86CpuIdFactory

CpuIdFactory - -> CpuId.WindowsCpuIdFactory : <<creates>>
CpuIdFactory .> ICpuId : <<returns>>

CpuId.WindowsCpuIdFactory - -> CpuId.Intel.X86CpuIdFactory : <<creates>>
CpuId.WindowsCpuIdFactory - - x86cpuidwin
CpuId.WindowsCpuIdFactory - - x64cpuidwin

CpuId.Intel.X86CpuIdFactoryBase ..> CpuId.Intel.GenuineIntelCpu : <<returns>>
CpuId.Intel.X86CpuIdFactoryBase ..> CpuId.Intel.GenericIntelCpu : <<returns>>
CpuId.Intel.X86CpuIdFactoryBase ..> CpuId.Intel.AuthenticAmdCpu : <<returns>>

CpuIdXmlFactory - -> CpuId.Intel.X86CpuIdFactoryXml : <<creates>>
CpuIdXmlFactory .> ICpuId : <<returns>>
CpuId.Intel.X86CpuIdFactoryBase <|- - CpuId.Intel.X86CpuIdFactoryXml
@enduml

PlantUML version 1.2021.14(Fri Nov 12 16:46:50 UTC 2021)
(GPL source distribution)
Java Runtime: OpenJDK Runtime Environment
JVM: OpenJDK 64-Bit Server VM
Default Encoding: UTF-8
Language: en
Country: null
--></g></svg>