<?xml version="1.0" encoding="us-ascii" standalone="no"?><svg xmlns="http://www.w3.org/2000/svg" xmlns:xlink="http://www.w3.org/1999/xlink" contentStyleType="text/css" height="753px" preserveAspectRatio="none" style="width:1172px;height:753px;background:#FFFFFF;" version="1.1" viewBox="0 0 1172 753" width="1172px" zoomAndPan="magnify"><defs/><g><!--cluster rjcp--><g id="cluster_rjcp"><path d="M8.5,6 L39.5,6 A3.75,3.75 0 0 1 42,8.5 L49,28.2969 L822.5,28.2969 A2.5,2.5 0 0 1 825,30.7969 L825,744.27 A2.5,2.5 0 0 1 822.5,746.77 L8.5,746.77 A2.5,2.5 0 0 1 6,744.27 L6,8.5 A2.5,2.5 0 0 1 8.5,6 " fill="none" style="stroke:#000000;stroke-width:1.5;"/><line style="stroke:#000000;stroke-width:1.5;" x1="6" x2="49" y1="28.2969" y2="28.2969"/><text fill="#000000" font-family="sans-serif" font-size="14" font-weight="bold" lengthAdjust="spacing" textLength="30" x="10" y="20.9951">rjcp</text></g><!--cluster diagnostics--><g id="cluster_diagnostics"><path d="M136.5,49 L227.5,49 A3.75,3.75 0 0 1 230,51.5 L237,71.2969 L798.5,71.2969 A2.5,2.5 0 0 1 801,73.7969 L801,277.68 A2.5,2.5 0 0 1 798.5,280.18 L136.5,280.18 A2.5,2.5 0 0 1 134,277.68 L134,51.5 A2.5,2.5 0 0 1 136.5,49 " fill="none" style="stroke:#000000;stroke-width:1.5;"/><line style="stroke:#000000;stroke-width:1.5;" x1="134" x2="237" y1="71.2969" y2="71.2969"/><text fill="#000000" font-family="sans-serif" font-size="14" font-weight="bold" lengthAdjust="spacing" textLength="90" x="138" y="63.9951">diagnostics</text></g><!--cluster cpuid--><g id="cluster_cpuid"><path d="M160.5,92 L204.5,92 A3.75,3.75 0 0 1 207,94.5 L214,114.2969 L774.5,114.2969 A2.5,2.5 0 0 1 777,116.7969 L777,253.68 A2.5,2.5 0 0 1 774.5,256.18 L160.5,256.18 A2.5,2.5 0 0 1 158,253.68 L158,94.5 A2.5,2.5 0 0 1 160.5,92 " fill="none" style="stroke:#000000;stroke-width:1.5;"/><line style="stroke:#000000;stroke-width:1.5;" x1="158" x2="214" y1="114.2969" y2="114.2969"/><text fill="#000000" font-family="sans-serif" font-size="14" font-weight="bold" lengthAdjust="spacing" textLength="43" x="162" y="106.9951">cpuid</text></g><!--cluster native--><g id="cluster_native"><path d="M32.5,313.18 L81.5,313.18 A3.75,3.75 0 0 1 84,315.68 L91,335.4769 L798.5,335.4769 A2.5,2.5 0 0 1 801,337.9769 L801,720.27 A2.5,2.5 0 0 1 798.5,722.77 L32.5,722.77 A2.5,2.5 0 0 1 30,720.27 L30,315.68 A2.5,2.5 0 0 1 32.5,313.18 " fill="none" style="stroke:#000000;stroke-width:1.5;"/><line style="stroke:#000000;stroke-width:1.5;" x1="30" x2="91" y1="335.4769" y2="335.4769"/><text fill="#000000" font-family="sans-serif" font-size="14" font-weight="bold" lengthAdjust="spacing" textLength="48" x="34" y="328.1751">native</text></g><!--cluster win32--><g id="cluster_win32"><path d="M56.5,356.18 L105.5,356.18 A3.75,3.75 0 0 1 108,358.68 L115,378.4769 L774.5,378.4769 A2.5,2.5 0 0 1 777,380.9769 L777,696.27 A2.5,2.5 0 0 1 774.5,698.77 L56.5,698.77 A2.5,2.5 0 0 1 54,696.27 L54,358.68 A2.5,2.5 0 0 1 56.5,356.18 " fill="none" style="stroke:#000000;stroke-width:1.5;"/><line style="stroke:#000000;stroke-width:1.5;" x1="54" x2="115" y1="378.4769" y2="378.4769"/><text fill="#000000" font-family="sans-serif" font-size="14" font-weight="bold" lengthAdjust="spacing" textLength="48" x="58" y="371.1751">win32</text></g><!--cluster kernel32--><g id="cluster_kernel32"><path d="M109.5,399.18 L180.5,399.18 A3.75,3.75 0 0 1 183,401.68 L190,421.4769 L426.5,421.4769 A2.5,2.5 0 0 1 429,423.9769 L429,528.28 A2.5,2.5 0 0 1 426.5,530.78 L109.5,530.78 A2.5,2.5 0 0 1 107,528.28 L107,401.68 A2.5,2.5 0 0 1 109.5,399.18 " fill="none" style="stroke:#000000;stroke-width:1.5;"/><line style="stroke:#000000;stroke-width:1.5;" x1="107" x2="190" y1="421.4769" y2="421.4769"/><text fill="#000000" font-family="sans-serif" font-size="14" font-weight="bold" lengthAdjust="spacing" textLength="70" x="111" y="414.1751">kernel32</text></g><!--class CpuIdNative--><g id="elem_CpuIdNative"><rect codeLine="3" fill="#F1F1F1" height="113.1875" id="CpuIdNative" rx="2.5" ry="2.5" style="stroke:#181818;stroke-width:0.5;" width="356" x="174" y="127"/><ellipse cx="306.75" cy="143" fill="#ADD1B2" rx="11" ry="11" style="stroke:#181818;stroke-width:1.0;"/><path d="M309.7188,148.6406 Q309.1406,148.9375 308.5,149.0781 Q307.8594,149.2344 307.1563,149.2344 Q304.6563,149.2344 303.3281,147.5938 Q302.0156,145.9375 302.0156,142.8125 Q302.0156,139.6875 303.3281,138.0313 Q304.6563,136.375 307.1563,136.375 Q307.8594,136.375 308.5,136.5313 Q309.1563,136.6875 309.7188,136.9844 L309.7188,139.7031 Q309.0938,139.125 308.5,138.8594 Q307.9063,138.5781 307.2813,138.5781 Q305.9375,138.5781 305.25,139.6563 Q304.5625,140.7188 304.5625,142.8125 Q304.5625,144.9063 305.25,145.9844 Q305.9375,147.0469 307.2813,147.0469 Q307.9063,147.0469 308.5,146.7813 Q309.0938,146.5 309.7188,145.9219 L309.7188,148.6406 Z " fill="#000000"/><text fill="#000000" font-family="sans-serif" font-size="14" lengthAdjust="spacing" textLength="82" x="327.25" y="147.8467">CpuIdNative</text><line style="stroke:#181818;stroke-width:0.5;" x1="175" x2="529" y1="159" y2="159"/><ellipse cx="185" cy="172.6484" fill="#84BE84" rx="3" ry="3" style="stroke:#038048;stroke-width:1.0;"/><text fill="#000000" font-family="sans-serif" font-size="14" lengthAdjust="spacing" textLength="92" x="194" y="175.9951">CpuIdNative()</text><ellipse cx="185" cy="188.9453" fill="#84BE84" rx="3" ry="3" style="stroke:#038048;stroke-width:1.0;"/><text fill="#000000" font-family="sans-serif" font-size="14" lengthAdjust="spacing" textLength="244" x="194" y="192.292">CpuIdNative(cpunum: unsigned int)</text><line style="stroke:#181818;stroke-width:1.0;" x1="175" x2="529" y1="199.5938" y2="199.5938"/><ellipse cx="185" cy="221.3906" fill="#84BE84" rx="3" ry="3" style="stroke:#038048;stroke-width:1.0;"/><text fill="#000000" font-family="sans-serif" font-size="14" lengthAdjust="spacing" textLength="330" x="194" y="216.5889">GetCpuId(eax: std::uint32_t, ecx: std::uint32_t):</text><text fill="#000000" font-family="sans-serif" font-size="14" lengthAdjust="spacing" textLength="209" x="198" y="232.8857">std::optional&lt;CpuIdRegister&gt;</text></g><!--class CpuIdRegister--><g id="elem_CpuIdRegister"><rect codeLine="10" fill="#F1F1F1" height="48" id="CpuIdRegister" rx="2.5" ry="2.5" style="stroke:#181818;stroke-width:0.5;" width="130" x="631" y="159.59"/><ellipse cx="646" cy="175.59" fill="#ADD1B2" rx="11" ry="11" style="stroke:#181818;stroke-width:1.0;"/><path d="M648.9688,181.2306 Q648.3906,181.5275 647.75,181.6681 Q647.1094,181.8244 646.4063,181.8244 Q643.9063,181.8244 642.5781,180.1838 Q641.2656,178.5275 641.2656,175.4025 Q641.2656,172.2775 642.5781,170.6213 Q643.9063,168.965 646.4063,168.965 Q647.1094,168.965 647.75,169.1213 Q648.4063,169.2775 648.9688,169.5744 L648.9688,172.2931 Q648.3438,171.715 647.75,171.4494 Q647.1563,171.1681 646.5313,171.1681 Q645.1875,171.1681 644.5,172.2463 Q643.8125,173.3088 643.8125,175.4025 Q643.8125,177.4963 644.5,178.5744 Q645.1875,179.6369 646.5313,179.6369 Q647.1563,179.6369 647.75,179.3713 Q648.3438,179.09 648.9688,178.5119 L648.9688,181.2306 Z " fill="#000000"/><text fill="#000000" font-family="sans-serif" font-size="14" lengthAdjust="spacing" textLength="98" x="660" y="180.4367">CpuIdRegister</text><line style="stroke:#181818;stroke-width:0.5;" x1="632" x2="760" y1="191.59" y2="191.59"/><line style="stroke:#181818;stroke-width:0.5;" x1="632" x2="760" y1="199.59" y2="199.59"/></g><!--class Thread--><g id="elem_Thread"><rect codeLine="12" fill="#F1F1F1" height="113.1875" id="Thread" rx="2.5" ry="2.5" style="stroke:#181818;stroke-width:0.5;" width="237" x="495.5" y="417.89"/><ellipse cx="585.25" cy="433.89" fill="#ADD1B2" rx="11" ry="11" style="stroke:#181818;stroke-width:1.0;"/><path d="M588.2188,439.5306 Q587.6406,439.8275 587,439.9681 Q586.3594,440.1244 585.6563,440.1244 Q583.1563,440.1244 581.8281,438.4838 Q580.5156,436.8275 580.5156,433.7025 Q580.5156,430.5775 581.8281,428.9213 Q583.1563,427.265 585.6563,427.265 Q586.3594,427.265 587,427.4213 Q587.6563,427.5775 588.2188,427.8744 L588.2188,430.5931 Q587.5938,430.015 587,429.7494 Q586.4063,429.4681 585.7813,429.4681 Q584.4375,429.4681 583.75,430.5463 Q583.0625,431.6088 583.0625,433.7025 Q583.0625,435.7963 583.75,436.8744 Q584.4375,437.9369 585.7813,437.9369 Q586.4063,437.9369 587,437.6713 Q587.5938,437.39 588.2188,436.8119 L588.2188,439.5306 Z " fill="#000000"/><text fill="#000000" font-family="sans-serif" font-size="14" lengthAdjust="spacing" textLength="49" x="605.75" y="438.7367">Thread</text><line style="stroke:#181818;stroke-width:0.5;" x1="496.5" x2="731.5" y1="449.89" y2="449.89"/><ellipse cx="506.5" cy="463.5384" fill="#84BE84" rx="3" ry="3" style="stroke:#038048;stroke-width:1.0;"/><text fill="#000000" font-family="sans-serif" font-size="14" lengthAdjust="spacing" textLength="59" x="515.5" y="466.8851">Thread()</text><ellipse cx="506.5" cy="479.8353" fill="#84BE84" rx="3" ry="3" style="stroke:#038048;stroke-width:1.0;"/><text fill="#000000" font-family="sans-serif" font-size="14" lengthAdjust="spacing" textLength="211" x="515.5" y="483.182">Thread(cpunum: unsigned int)</text><ellipse cx="506.5" cy="496.1322" fill="#84BE84" rx="3" ry="3" style="stroke:#038048;stroke-width:1.0;"/><text fill="#000000" font-family="sans-serif" font-size="14" lengthAdjust="spacing" textLength="71" x="515.5" y="499.4789">~Thread()</text><line style="stroke:#181818;stroke-width:1.0;" x1="496.5" x2="731.5" y1="506.7806" y2="506.7806"/><ellipse cx="506.5" cy="520.4291" fill="#84BE84" rx="3" ry="3" style="stroke:#038048;stroke-width:1.0;"/><text fill="#000000" font-family="sans-serif" font-size="14" lengthAdjust="spacing" textLength="108" x="515.5" y="523.7757">IsPinned(): bool</text></g><!--class ModuleGet--><g id="elem_ModuleGet"><rect codeLine="33" fill="#F1F1F1" height="80.5938" id="ModuleGet" rx="2.5" ry="2.5" style="stroke:#181818;stroke-width:0.5;" width="328" x="70" y="602.18"/><ellipse cx="191.75" cy="618.18" fill="#ADD1B2" rx="11" ry="11" style="stroke:#181818;stroke-width:1.0;"/><path d="M194.7188,623.8206 Q194.1406,624.1175 193.5,624.2581 Q192.8594,624.4144 192.1563,624.4144 Q189.6563,624.4144 188.3281,622.7738 Q187.0156,621.1175 187.0156,617.9925 Q187.0156,614.8675 188.3281,613.2113 Q189.6563,611.555 192.1563,611.555 Q192.8594,611.555 193.5,611.7113 Q194.1563,611.8675 194.7188,612.1644 L194.7188,614.8831 Q194.0938,614.305 193.5,614.0394 Q192.9063,613.7581 192.2813,613.7581 Q190.9375,613.7581 190.25,614.8363 Q189.5625,615.8988 189.5625,617.9925 Q189.5625,620.0863 190.25,621.1644 Q190.9375,622.2269 192.2813,622.2269 Q192.9063,622.2269 193.5,621.9613 Q194.0938,621.68 194.7188,621.1019 L194.7188,623.8206 Z " fill="#000000"/><text fill="#000000" font-family="sans-serif" font-size="14" lengthAdjust="spacing" textLength="76" x="212.25" y="623.0267">ModuleGet</text><line style="stroke:#181818;stroke-width:0.5;" x1="71" x2="397" y1="634.18" y2="634.18"/><line style="stroke:#181818;stroke-width:0.5;" x1="71" x2="397" y1="642.18" y2="642.18"/><text fill="#000000" font-family="sans-serif" font-size="14" lengthAdjust="spacing" textLength="223" x="76" y="659.1751">ModuleGet(file_name: LPCTSTR)</text><text fill="#000000" font-family="sans-serif" font-size="14" lengthAdjust="spacing" textLength="316" x="76" y="675.472">operator[](proc_name: LPCSTR): ProcAddress</text></g><!--class LibraryLoad--><g id="elem_LibraryLoad"><rect codeLine="38" fill="#F1F1F1" height="80.5938" id="LibraryLoad" rx="2.5" ry="2.5" style="stroke:#181818;stroke-width:0.5;" width="328" x="433" y="602.18"/><ellipse cx="554.25" cy="618.18" fill="#ADD1B2" rx="11" ry="11" style="stroke:#181818;stroke-width:1.0;"/><path d="M557.2188,623.8206 Q556.6406,624.1175 556,624.2581 Q555.3594,624.4144 554.6563,624.4144 Q552.1563,624.4144 550.8281,622.7738 Q549.5156,621.1175 549.5156,617.9925 Q549.5156,614.8675 550.8281,613.2113 Q552.1563,611.555 554.6563,611.555 Q555.3594,611.555 556,611.7113 Q556.6563,611.8675 557.2188,612.1644 L557.2188,614.8831 Q556.5938,614.305 556,614.0394 Q555.4063,613.7581 554.7813,613.7581 Q553.4375,613.7581 552.75,614.8363 Q552.0625,615.8988 552.0625,617.9925 Q552.0625,620.0863 552.75,621.1644 Q553.4375,622.2269 554.7813,622.2269 Q555.4063,622.2269 556,621.9613 Q556.5938,621.68 557.2188,621.1019 L557.2188,623.8206 Z " fill="#000000"/><text fill="#000000" font-family="sans-serif" font-size="14" lengthAdjust="spacing" textLength="77" x="574.75" y="623.0267">LibraryLoad</text><line style="stroke:#181818;stroke-width:0.5;" x1="434" x2="760" y1="634.18" y2="634.18"/><line style="stroke:#181818;stroke-width:0.5;" x1="434" x2="760" y1="642.18" y2="642.18"/><text fill="#000000" font-family="sans-serif" font-size="14" lengthAdjust="spacing" textLength="224" x="439" y="659.1751">LibraryLoad(file_name: LPCTSTR)</text><text fill="#000000" font-family="sans-serif" font-size="14" lengthAdjust="spacing" textLength="316" x="439" y="675.472">operator[](proc_name: LPCSTR): ProcAddress</text></g><!--class Kernel32--><g id="elem_Kernel32"><rect codeLine="28" fill="#F1F1F1" height="80.5938" id="Kernel32" rx="2.5" ry="2.5" style="stroke:#181818;stroke-width:0.5;" width="289" x="123.5" y="434.18"/><ellipse cx="232.75" cy="450.18" fill="#ADD1B2" rx="11" ry="11" style="stroke:#181818;stroke-width:1.0;"/><path d="M235.7188,455.8206 Q235.1406,456.1175 234.5,456.2581 Q233.8594,456.4144 233.1563,456.4144 Q230.6563,456.4144 229.3281,454.7738 Q228.0156,453.1175 228.0156,449.9925 Q228.0156,446.8675 229.3281,445.2113 Q230.6563,443.555 233.1563,443.555 Q233.8594,443.555 234.5,443.7113 Q235.1563,443.8675 235.7188,444.1644 L235.7188,446.8831 Q235.0938,446.305 234.5,446.0394 Q233.9063,445.7581 233.2813,445.7581 Q231.9375,445.7581 231.25,446.8363 Q230.5625,447.8988 230.5625,449.9925 Q230.5625,452.0863 231.25,453.1644 Q231.9375,454.2269 233.2813,454.2269 Q233.9063,454.2269 234.5,453.9613 Q235.0938,453.68 235.7188,453.1019 L235.7188,455.8206 Z " fill="#000000"/><text fill="#000000" font-family="sans-serif" font-size="14" lengthAdjust="spacing" textLength="62" x="253.25" y="455.0267">Kernel32</text><line style="stroke:#181818;stroke-width:0.5;" x1="124.5" x2="411.5" y1="466.18" y2="466.18"/><line style="stroke:#181818;stroke-width:0.5;" x1="124.5" x2="411.5" y1="474.18" y2="474.18"/><text fill="#000000" font-family="sans-serif" font-size="14" lengthAdjust="spacing" textLength="152" x="129.5" y="491.1751">instance(): Kernel32&amp;</text><text fill="#000000" font-family="sans-serif" font-size="14" lengthAdjust="spacing" textLength="277" x="129.5" y="507.472">GetCurrentProcessorNumber(): DWORD</text></g><g id="elem_GMN10"><path d="M841,592.07 L841,692.8669 A0,0 0 0 0 841,692.8669 L1165,692.8669 A0,0 0 0 0 1165,692.8669 L1165,602.07 L1155,592.07 L890.24,592.07 L732.83,526.19 L882.24,592.07 L841,592.07 A0,0 0 0 0 841,592.07 " fill="#FEFFDD" style="stroke:#181818;stroke-width:0.5;"/><path d="M1155,592.07 L1155,602.07 L1165,602.07 L1155,592.07 " fill="#FEFFDD" style="stroke:#181818;stroke-width:0.5;"/><text fill="#000000" font-family="sans-serif" font-size="13" lengthAdjust="spacing" textLength="284" x="847" y="609.1369">When called with `cpunum`, pins the current</text><text fill="#000000" font-family="sans-serif" font-size="13" lengthAdjust="spacing" textLength="247" x="847" y="624.2697">thread on that core. Affinity is restored</text><text fill="#000000" font-family="sans-serif" font-size="13" lengthAdjust="spacing" textLength="187" x="847" y="639.4025">when the destructor is called.</text><text fill="#000000" font-family="sans-serif" font-size="13" lengthAdjust="spacing" textLength="4" x="847" y="654.5353">&#160;</text><text fill="#000000" font-family="sans-serif" font-size="13" lengthAdjust="spacing" textLength="303" x="847" y="669.6681">When no `cpunum` is used, pins on the current</text><text fill="#000000" font-family="sans-serif" font-size="13" lengthAdjust="spacing" textLength="178" x="847" y="684.801">core or (Core #0 on WinXP).</text></g><!--link CpuIdNative to CpuIdRegister--><g id="link_CpuIdNative_CpuIdRegister"><path codeLine="43" d="M530.3,183.59 C563.78,183.59 596.95,183.59 624.71,183.59 " fill="none" id="CpuIdNative-to-CpuIdRegister" style="stroke:#181818;stroke-width:1.0;"/><polygon fill="#181818" points="629.55,183.59,620.55,179.59,624.55,183.59,620.55,187.59,629.55,183.59" style="stroke:#181818;stroke-width:1.0;"/><text fill="#000000" font-family="sans-serif" font-size="13" lengthAdjust="spacing" textLength="64" x="548.5" y="176.6569">&#171;creates&#187;</text></g><!--link CpuIdNative to Thread--><g id="link_CpuIdNative_Thread"><path codeLine="45" d="M402.83,240.63 C449.11,291.66 517.08,366.61 563.31,417.59 " fill="none" id="CpuIdNative-Thread" style="stroke:#181818;stroke-width:1.0;"/></g><!--link Thread to Kernel32--><g id="link_Thread_Kernel32"><path codeLine="47" d="M495.19,474.48 C470.58,474.48 444.35,474.48 418.77,474.48 " fill="none" id="Thread-to-Kernel32" style="stroke:#181818;stroke-width:1.0;"/><polygon fill="#181818" points="413.98,474.48,422.98,478.48,418.98,474.48,422.98,470.48,413.98,474.48" style="stroke:#181818;stroke-width:1.0;"/><text fill="#000000" font-family="sans-serif" font-size="13" lengthAdjust="spacing" textLength="46" x="431" y="467.5469">&#171;uses&#187;</text></g><!--link Kernel32 to ModuleGet--><g id="link_Kernel32_ModuleGet"><path codeLine="49" d="M259.86,515.24 C254.49,541.42 247.5,575.57 242.14,601.75 " fill="none" id="Kernel32-ModuleGet" style="stroke:#181818;stroke-width:1.0;"/></g><!--link Kernel32 to LibraryLoad--><g id="link_Kernel32_LibraryLoad"><path codeLine="50" d="M346.8,515.24 C398.7,541.42 466.39,575.57 518.27,601.75 " fill="none" id="Kernel32-LibraryLoad" style="stroke:#181818;stroke-width:1.0;"/></g><!--SRC=[hLFRQXin47tVhnWeb3N9cfAy2MC83fHGDpMkmOMs9B8qjjMkHuiqgXjAy-sLzXRRePU7xjDezfmvPqOZZmmUA-aaMmT2P9agfVVWlgXA26taXgndexmGgWf62p6fmes-bMo-8Vp887vd1wbyy3mLYHHs0W9vio7KO8WRM54qwDV8DI57-Ls0voWJ8kZouexF0TLfRY0-KPEn5HjBiXpLz3bkZ6Tqu-pdF_RHCOxXLFiMOc_eyaA8nTQXr5sppQdhiptzliMpnoD2r_6DdncAm7mWO6Lj6HsJPOmniztLcEKM2PGiorXkRtWBzutA_JbKXZpm5a45vv2undDZqrAC98Eo3eTmjLuRClm09ZQ7FbuowXgzJzLJ2HspBgXq_H7Jw0sp9mTaU-4421vrQy3ICmz956AbV9A25wyIPcdemsmmp90qf1x_EEklw0ZB5BrfetRkKP0bAKm3wtwzhF-avMaip9nLwBrrjs6tGfUWryjty-lJTJZHV6jrA36MQQNwSxus9TwHtA60wMooUB-ODxTeAwmVpCVFUHKrdo098I3vkD8wpjl_HNfgLawwXwdjz-iWyv_a3nziuOen76q-21YDLDmSHZyUdw1r0StsPbdx2Ee2_TKaRbo8cjWd4wiVuN7weBbV]--></g></svg>