<?xml version="1.0" encoding="us-ascii" standalone="no"?><svg xmlns="http://www.w3.org/2000/svg" xmlns:xlink="http://www.w3.org/1999/xlink" contentStyleType="text/css" height="235px" preserveAspectRatio="none" style="width:537px;height:235px;background:#FFFFFF;" version="1.1" viewBox="0 0 537 235" width="537px" zoomAndPan="magnify"><defs/><g><!--class ICpuIdDump--><g id="elem_ICpuIdDump"><rect codeLine="2" fill="#F1F1F1" height="80.5938" id="ICpuIdDump" rx="2.5" ry="2.5" style="stroke:#181818;stroke-width:0.5;" width="227" x="138" y="7"/><ellipse cx="204.75" cy="23" fill="#A9DCDF" rx="11" ry="11" style="stroke:#181818;stroke-width:1.0;"/><path d="M204.8594,18.3438 L203.7031,23.4219 L206.0313,23.4219 L204.8594,18.3438 Z M203.375,16.1094 L206.3594,16.1094 L209.7188,28.5 L207.2656,28.5 L206.5,25.4375 L203.2188,25.4375 L202.4688,28.5 L200.0313,28.5 L203.375,16.1094 Z " fill="#000000"/><text fill="#000000" font-family="sans-serif" font-size="14" font-style="italic" lengthAdjust="spacing" textLength="85" x="225.25" y="27.8467">ICpuIdDump</text><line style="stroke:#181818;stroke-width:0.5;" x1="139" x2="364" y1="39" y2="39"/><line style="stroke:#181818;stroke-width:0.5;" x1="139" x2="364" y1="47" y2="47"/><ellipse cx="149" cy="68.7969" fill="#84BE84" rx="3" ry="3" style="stroke:#038048;stroke-width:1.0;"/><text fill="#000000" font-family="sans-serif" font-size="14" lengthAdjust="spacing" textLength="187" x="158" y="63.9951">CpuIdDump(cpuid: ICpuId):</text><text fill="#000000" font-family="sans-serif" font-size="14" lengthAdjust="spacing" textLength="197" x="162" y="80.292">std::vector&lt;CpuIdRegister&gt;</text></g><!--class CpuIdDumpGeniuneIntel--><g id="elem_CpuIdDumpGeniuneIntel"><rect codeLine="6" fill="#F1F1F1" height="80.5938" id="CpuIdDumpGeniuneIntel" rx="2.5" ry="2.5" style="stroke:#181818;stroke-width:0.5;" width="227" x="7" y="147.6"/><ellipse cx="33.25" cy="163.6" fill="#ADD1B2" rx="11" ry="11" style="stroke:#181818;stroke-width:1.0;"/><path d="M36.2188,169.2406 Q35.6406,169.5375 35,169.6781 Q34.3594,169.8344 33.6563,169.8344 Q31.1563,169.8344 29.8281,168.1938 Q28.5156,166.5375 28.5156,163.4125 Q28.5156,160.2875 29.8281,158.6313 Q31.1563,156.975 33.6563,156.975 Q34.3594,156.975 35,157.1313 Q35.6563,157.2875 36.2188,157.5844 L36.2188,160.3031 Q35.5938,159.725 35,159.4594 Q34.4063,159.1781 33.7813,159.1781 Q32.4375,159.1781 31.75,160.2563 Q31.0625,161.3188 31.0625,163.4125 Q31.0625,165.5063 31.75,166.5844 Q32.4375,167.6469 33.7813,167.6469 Q34.4063,167.6469 35,167.3813 Q35.5938,167.1 36.2188,166.5219 L36.2188,169.2406 Z " fill="#000000"/><text fill="#000000" font-family="sans-serif" font-size="14" lengthAdjust="spacing" textLength="170" x="49.75" y="168.4467">CpuIdDumpGeniuneIntel</text><line style="stroke:#181818;stroke-width:0.5;" x1="8" x2="233" y1="179.6" y2="179.6"/><line style="stroke:#181818;stroke-width:0.5;" x1="8" x2="233" y1="187.6" y2="187.6"/><ellipse cx="18" cy="209.3969" fill="#84BE84" rx="3" ry="3" style="stroke:#038048;stroke-width:1.0;"/><text fill="#000000" font-family="sans-serif" font-size="14" lengthAdjust="spacing" textLength="187" x="27" y="204.5951">CpuIdDump(cpuid: ICpuId):</text><text fill="#000000" font-family="sans-serif" font-size="14" lengthAdjust="spacing" textLength="197" x="31" y="220.892">std::vector&lt;CpuIdRegister&gt;</text></g><!--class CpuIdDumpAuthenticAmd--><g id="elem_CpuIdDumpAuthenticAmd"><rect codeLine="10" fill="#F1F1F1" height="80.5938" id="CpuIdDumpAuthenticAmd" rx="2.5" ry="2.5" style="stroke:#181818;stroke-width:0.5;" width="227" x="269" y="147.6"/><ellipse cx="291.2" cy="163.6" fill="#ADD1B2" rx="11" ry="11" style="stroke:#181818;stroke-width:1.0;"/><path d="M294.1688,169.2406 Q293.5906,169.5375 292.95,169.6781 Q292.3094,169.8344 291.6063,169.8344 Q289.1063,169.8344 287.7781,168.1938 Q286.4656,166.5375 286.4656,163.4125 Q286.4656,160.2875 287.7781,158.6313 Q289.1063,156.975 291.6063,156.975 Q292.3094,156.975 292.95,157.1313 Q293.6063,157.2875 294.1688,157.5844 L294.1688,160.3031 Q293.5438,159.725 292.95,159.4594 Q292.3563,159.1781 291.7313,159.1781 Q290.3875,159.1781 289.7,160.2563 Q289.0125,161.3188 289.0125,163.4125 Q289.0125,165.5063 289.7,166.5844 Q290.3875,167.6469 291.7313,167.6469 Q292.3563,167.6469 292.95,167.3813 Q293.5438,167.1 294.1688,166.5219 L294.1688,169.2406 Z " fill="#000000"/><text fill="#000000" font-family="sans-serif" font-size="14" lengthAdjust="spacing" textLength="179" x="306.8" y="168.4467">CpuIdDumpAuthenticAmd</text><line style="stroke:#181818;stroke-width:0.5;" x1="270" x2="495" y1="179.6" y2="179.6"/><line style="stroke:#181818;stroke-width:0.5;" x1="270" x2="495" y1="187.6" y2="187.6"/><ellipse cx="280" cy="209.3969" fill="#84BE84" rx="3" ry="3" style="stroke:#038048;stroke-width:1.0;"/><text fill="#000000" font-family="sans-serif" font-size="14" lengthAdjust="spacing" textLength="187" x="289" y="204.5951">CpuIdDump(cpuid: ICpuId):</text><text fill="#000000" font-family="sans-serif" font-size="14" lengthAdjust="spacing" textLength="197" x="293" y="220.892">std::vector&lt;CpuIdRegister&gt;</text></g><!--class CpuIdRegister--><g id="elem_CpuIdRegister"><rect codeLine="14" fill="#F1F1F1" height="48" id="CpuIdRegister" rx="2.5" ry="2.5" style="stroke:#181818;stroke-width:0.5;" width="130" x="400.5" y="23.3"/><ellipse cx="415.5" cy="39.3" fill="#ADD1B2" rx="11" ry="11" style="stroke:#181818;stroke-width:1.0;"/><path d="M418.4688,44.9406 Q417.8906,45.2375 417.25,45.3781 Q416.6094,45.5344 415.9063,45.5344 Q413.4063,45.5344 412.0781,43.8938 Q410.7656,42.2375 410.7656,39.1125 Q410.7656,35.9875 412.0781,34.3313 Q413.4063,32.675 415.9063,32.675 Q416.6094,32.675 417.25,32.8313 Q417.9063,32.9875 418.4688,33.2844 L418.4688,36.0031 Q417.8438,35.425 417.25,35.1594 Q416.6563,34.8781 416.0313,34.8781 Q414.6875,34.8781 414,35.9563 Q413.3125,37.0188 413.3125,39.1125 Q413.3125,41.2063 414,42.2844 Q414.6875,43.3469 416.0313,43.3469 Q416.6563,43.3469 417.25,43.0813 Q417.8438,42.8 418.4688,42.2219 L418.4688,44.9406 Z " fill="#000000"/><text fill="#000000" font-family="sans-serif" font-size="14" lengthAdjust="spacing" textLength="98" x="429.5" y="44.1467">CpuIdRegister</text><line style="stroke:#181818;stroke-width:0.5;" x1="401.5" x2="529.5" y1="55.3" y2="55.3"/><line style="stroke:#181818;stroke-width:0.5;" x1="401.5" x2="529.5" y1="63.3" y2="63.3"/></g><!--reverse link ICpuIdDump to CpuIdDumpGeniuneIntel--><g id="link_ICpuIdDump_CpuIdDumpGeniuneIntel"><path codeLine="16" d="M199.85,102.94 C185.9,117.71 171.06,133.4 158.04,147.17 " fill="none" id="ICpuIdDump-backto-CpuIdDumpGeniuneIntel" style="stroke:#181818;stroke-width:1.0;"/><polygon fill="none" points="194.14,98.74,212.96,89.01,204.31,108.36,194.14,98.74" style="stroke:#181818;stroke-width:1.0;"/></g><!--reverse link ICpuIdDump to CpuIdDumpAuthenticAmd--><g id="link_ICpuIdDump_CpuIdDumpAuthenticAmd"><path codeLine="18" d="M303.15,102.94 C317.1,117.71 331.94,133.4 344.96,147.17 " fill="none" id="ICpuIdDump-backto-CpuIdDumpAuthenticAmd" style="stroke:#181818;stroke-width:1.0;"/><polygon fill="none" points="298.69,108.36,290.04,89.01,308.86,98.74,298.69,108.36" style="stroke:#181818;stroke-width:1.0;"/></g><!--link ICpuIdDump to CpuIdRegister--><g id="link_ICpuIdDump_CpuIdRegister"><path codeLine="20" d="M365.19,47.3 C376.81,47.3 388.44,47.3 400.06,47.3 " fill="none" id="ICpuIdDump-CpuIdRegister" style="stroke:#181818;stroke-width:1.0;"/><text fill="#000000" font-family="sans-serif" font-size="13" lengthAdjust="spacing" textLength="8" x="373.0973" y="43.8677">1</text><text fill="#000000" font-family="sans-serif" font-size="13" lengthAdjust="spacing" textLength="7" x="385.5197" y="43.5538">*</text></g><!--SRC=[IqmgBYbAJ2vHICv9B2vMy7GkAFLCSIdDBL2evb800csuW4PoGMbcYXLKYQPLJ9v2SKcAbLLPQd99Vf4DM3GeDJspk2Iro8whbeiBOY9SltjgNcPfNgfdNabg3jKDTomjoKZDAybCTinDeQhXC74kBgIWiQdHJT75xZDywf0TYQ9EoL19GRT8Lq59ImdDLW00]--></g></svg>