<?xml version="1.0" encoding="us-ascii" standalone="no"?><svg xmlns="http://www.w3.org/2000/svg" xmlns:xlink="http://www.w3.org/1999/xlink" contentStyleType="text/css" height="753px" preserveAspectRatio="none" style="width:1115px;height:753px;background:#FFFFFF;" version="1.1" viewBox="0 0 1115 753" width="1115px" zoomAndPan="magnify"><defs/><g><!--cluster rjcp--><g id="cluster_rjcp"><path d="M8.5,6 L39.5,6 A3.75,3.75 0 0 1 42,8.5 L49,28.2969 L765.5,28.2969 A2.5,2.5 0 0 1 768,30.7969 L768,744.27 A2.5,2.5 0 0 1 765.5,746.77 L8.5,746.77 A2.5,2.5 0 0 1 6,744.27 L6,8.5 A2.5,2.5 0 0 1 8.5,6 " fill="none" style="stroke:#000000;stroke-width:1.5;"/><line style="stroke:#000000;stroke-width:1.5;" x1="6" x2="49" y1="28.2969" y2="28.2969"/><text fill="#000000" font-family="sans-serif" font-size="14" font-weight="bold" lengthAdjust="spacing" textLength="30" x="10" y="20.9951">rjcp</text></g><!--cluster diagnostics--><g id="cluster_diagnostics"><path d="M79.5,49 L170.5,49 A3.75,3.75 0 0 1 173,51.5 L180,71.2969 L741.5,71.2969 A2.5,2.5 0 0 1 744,73.7969 L744,277.68 A2.5,2.5 0 0 1 741.5,280.18 L79.5,280.18 A2.5,2.5 0 0 1 77,277.68 L77,51.5 A2.5,2.5 0 0 1 79.5,49 " fill="none" style="stroke:#000000;stroke-width:1.5;"/><line style="stroke:#000000;stroke-width:1.5;" x1="77" x2="180" y1="71.2969" y2="71.2969"/><text fill="#000000" font-family="sans-serif" font-size="14" font-weight="bold" lengthAdjust="spacing" textLength="90" x="81" y="63.9951">diagnostics</text></g><!--cluster cpuid--><g id="cluster_cpuid"><path d="M103.5,92 L147.5,92 A3.75,3.75 0 0 1 150,94.5 L157,114.2969 L717.5,114.2969 A2.5,2.5 0 0 1 720,116.7969 L720,253.68 A2.5,2.5 0 0 1 717.5,256.18 L103.5,256.18 A2.5,2.5 0 0 1 101,253.68 L101,94.5 A2.5,2.5 0 0 1 103.5,92 " fill="none" style="stroke:#000000;stroke-width:1.5;"/><line style="stroke:#000000;stroke-width:1.5;" x1="101" x2="157" y1="114.2969" y2="114.2969"/><text fill="#000000" font-family="sans-serif" font-size="14" font-weight="bold" lengthAdjust="spacing" textLength="43" x="105" y="106.9951">cpuid</text></g><!--cluster native--><g id="cluster_native"><path d="M32.5,313.18 L81.5,313.18 A3.75,3.75 0 0 1 84,315.68 L91,335.4769 L741.5,335.4769 A2.5,2.5 0 0 1 744,337.9769 L744,720.27 A2.5,2.5 0 0 1 741.5,722.77 L32.5,722.77 A2.5,2.5 0 0 1 30,720.27 L30,315.68 A2.5,2.5 0 0 1 32.5,313.18 " fill="none" style="stroke:#000000;stroke-width:1.5;"/><line style="stroke:#000000;stroke-width:1.5;" x1="30" x2="91" y1="335.4769" y2="335.4769"/><text fill="#000000" font-family="sans-serif" font-size="14" font-weight="bold" lengthAdjust="spacing" textLength="48" x="34" y="328.1751">native</text></g><!--cluster win32--><g id="cluster_win32"><path d="M56.5,356.18 L105.5,356.18 A3.75,3.75 0 0 1 108,358.68 L115,378.4769 L717.5,378.4769 A2.5,2.5 0 0 1 720,380.9769 L720,696.27 A2.5,2.5 0 0 1 717.5,698.77 L56.5,698.77 A2.5,2.5 0 0 1 54,696.27 L54,358.68 A2.5,2.5 0 0 1 56.5,356.18 " fill="none" style="stroke:#000000;stroke-width:1.5;"/><line style="stroke:#000000;stroke-width:1.5;" x1="54" x2="115" y1="378.4769" y2="378.4769"/><text fill="#000000" font-family="sans-serif" font-size="14" font-weight="bold" lengthAdjust="spacing" textLength="48" x="58" y="371.1751">win32</text></g><!--cluster kernel32--><g id="cluster_kernel32"><path d="M80.5,399.18 L151.5,399.18 A3.75,3.75 0 0 1 154,401.68 L161,421.4769 L397.5,421.4769 A2.5,2.5 0 0 1 400,423.9769 L400,528.28 A2.5,2.5 0 0 1 397.5,530.78 L80.5,530.78 A2.5,2.5 0 0 1 78,528.28 L78,401.68 A2.5,2.5 0 0 1 80.5,399.18 " fill="none" style="stroke:#000000;stroke-width:1.5;"/><line style="stroke:#000000;stroke-width:1.5;" x1="78" x2="161" y1="421.4769" y2="421.4769"/><text fill="#000000" font-family="sans-serif" font-size="14" font-weight="bold" lengthAdjust="spacing" textLength="70" x="82" y="414.1751">kernel32</text></g><!--class CpuIdNative--><g id="elem_CpuIdNative"><rect codeLine="3" fill="#F1F1F1" height="113.1875" id="CpuIdNative" rx="2.5" ry="2.5" style="stroke:#181818;stroke-width:0.5;" width="356" x="117" y="127"/><ellipse cx="249.75" cy="143" fill="#ADD1B2" rx="11" ry="11" style="stroke:#181818;stroke-width:1.0;"/><path d="M252.7188,148.6406 Q252.1406,148.9375 251.5,149.0781 Q250.8594,149.2344 250.1563,149.2344 Q247.6563,149.2344 246.3281,147.5938 Q245.0156,145.9375 245.0156,142.8125 Q245.0156,139.6875 246.3281,138.0313 Q247.6563,136.375 250.1563,136.375 Q250.8594,136.375 251.5,136.5313 Q252.1563,136.6875 252.7188,136.9844 L252.7188,139.7031 Q252.0938,139.125 251.5,138.8594 Q250.9063,138.5781 250.2813,138.5781 Q248.9375,138.5781 248.25,139.6563 Q247.5625,140.7188 247.5625,142.8125 Q247.5625,144.9063 248.25,145.9844 Q248.9375,147.0469 250.2813,147.0469 Q250.9063,147.0469 251.5,146.7813 Q252.0938,146.5 252.7188,145.9219 L252.7188,148.6406 Z " fill="#000000"/><text fill="#000000" font-family="sans-serif" font-size="14" lengthAdjust="spacing" textLength="82" x="270.25" y="147.8467">CpuIdNative</text><line style="stroke:#181818;stroke-width:0.5;" x1="118" x2="472" y1="159" y2="159"/><ellipse cx="128" cy="172.6484" fill="#84BE84" rx="3" ry="3" style="stroke:#038048;stroke-width:1.0;"/><text fill="#000000" font-family="sans-serif" font-size="14" lengthAdjust="spacing" textLength="92" x="137" y="175.9951">CpuIdNative()</text><ellipse cx="128" cy="188.9453" fill="#84BE84" rx="3" ry="3" style="stroke:#038048;stroke-width:1.0;"/><text fill="#000000" font-family="sans-serif" font-size="14" lengthAdjust="spacing" textLength="244" x="137" y="192.292">CpuIdNative(cpunum: unsigned int)</text><line style="stroke:#181818;stroke-width:1.0;" x1="118" x2="472" y1="199.5938" y2="199.5938"/><ellipse cx="128" cy="221.3906" fill="#84BE84" rx="3" ry="3" style="stroke:#038048;stroke-width:1.0;"/><text fill="#000000" font-family="sans-serif" font-size="14" lengthAdjust="spacing" textLength="330" x="137" y="216.5889">GetCpuId(eax: std::uint32_t, ecx: std::uint32_t):</text><text fill="#000000" font-family="sans-serif" font-size="14" lengthAdjust="spacing" textLength="209" x="141" y="232.8857">std::optional&lt;CpuIdRegister&gt;</text></g><!--class CpuIdRegister--><g id="elem_CpuIdRegister"><rect codeLine="10" fill="#F1F1F1" height="48" id="CpuIdRegister" rx="2.5" ry="2.5" style="stroke:#181818;stroke-width:0.5;" width="130" x="574" y="159.59"/><ellipse cx="589" cy="175.59" fill="#ADD1B2" rx="11" ry="11" style="stroke:#181818;stroke-width:1.0;"/><path d="M591.9688,181.2306 Q591.3906,181.5275 590.75,181.6681 Q590.1094,181.8244 589.4063,181.8244 Q586.9063,181.8244 585.5781,180.1838 Q584.2656,178.5275 584.2656,175.4025 Q584.2656,172.2775 585.5781,170.6213 Q586.9063,168.965 589.4063,168.965 Q590.1094,168.965 590.75,169.1213 Q591.4063,169.2775 591.9688,169.5744 L591.9688,172.2931 Q591.3438,171.715 590.75,171.4494 Q590.1563,171.1681 589.5313,171.1681 Q588.1875,171.1681 587.5,172.2463 Q586.8125,173.3088 586.8125,175.4025 Q586.8125,177.4963 587.5,178.5744 Q588.1875,179.6369 589.5313,179.6369 Q590.1563,179.6369 590.75,179.3713 Q591.3438,179.09 591.9688,178.5119 L591.9688,181.2306 Z " fill="#000000"/><text fill="#000000" font-family="sans-serif" font-size="14" lengthAdjust="spacing" textLength="98" x="603" y="180.4367">CpuIdRegister</text><line style="stroke:#181818;stroke-width:0.5;" x1="575" x2="703" y1="191.59" y2="191.59"/><line style="stroke:#181818;stroke-width:0.5;" x1="575" x2="703" y1="199.59" y2="199.59"/></g><!--class Thread--><g id="elem_Thread"><rect codeLine="12" fill="#F1F1F1" height="113.1875" id="Thread" rx="2.5" ry="2.5" style="stroke:#181818;stroke-width:0.5;" width="237" x="466.5" y="417.89"/><ellipse cx="556.25" cy="433.89" fill="#ADD1B2" rx="11" ry="11" style="stroke:#181818;stroke-width:1.0;"/><path d="M559.2188,439.5306 Q558.6406,439.8275 558,439.9681 Q557.3594,440.1244 556.6563,440.1244 Q554.1563,440.1244 552.8281,438.4838 Q551.5156,436.8275 551.5156,433.7025 Q551.5156,430.5775 552.8281,428.9213 Q554.1563,427.265 556.6563,427.265 Q557.3594,427.265 558,427.4213 Q558.6563,427.5775 559.2188,427.8744 L559.2188,430.5931 Q558.5938,430.015 558,429.7494 Q557.4063,429.4681 556.7813,429.4681 Q555.4375,429.4681 554.75,430.5463 Q554.0625,431.6088 554.0625,433.7025 Q554.0625,435.7963 554.75,436.8744 Q555.4375,437.9369 556.7813,437.9369 Q557.4063,437.9369 558,437.6713 Q558.5938,437.39 559.2188,436.8119 L559.2188,439.5306 Z " fill="#000000"/><text fill="#000000" font-family="sans-serif" font-size="14" lengthAdjust="spacing" textLength="49" x="576.75" y="438.7367">Thread</text><line style="stroke:#181818;stroke-width:0.5;" x1="467.5" x2="702.5" y1="449.89" y2="449.89"/><ellipse cx="477.5" cy="463.5384" fill="#84BE84" rx="3" ry="3" style="stroke:#038048;stroke-width:1.0;"/><text fill="#000000" font-family="sans-serif" font-size="14" lengthAdjust="spacing" textLength="59" x="486.5" y="466.8851">Thread()</text><ellipse cx="477.5" cy="479.8353" fill="#84BE84" rx="3" ry="3" style="stroke:#038048;stroke-width:1.0;"/><text fill="#000000" font-family="sans-serif" font-size="14" lengthAdjust="spacing" textLength="211" x="486.5" y="483.182">Thread(cpunum: unsigned int)</text><ellipse cx="477.5" cy="496.1322" fill="#84BE84" rx="3" ry="3" style="stroke:#038048;stroke-width:1.0;"/><text fill="#000000" font-family="sans-serif" font-size="14" lengthAdjust="spacing" textLength="71" x="486.5" y="499.4789">~Thread()</text><line style="stroke:#181818;stroke-width:1.0;" x1="467.5" x2="702.5" y1="506.7806" y2="506.7806"/><ellipse cx="477.5" cy="520.4291" fill="#84BE84" rx="3" ry="3" style="stroke:#038048;stroke-width:1.0;"/><text fill="#000000" font-family="sans-serif" font-size="14" lengthAdjust="spacing" textLength="108" x="486.5" y="523.7757">IsPinned(): bool</text></g><!--class ModuleGet--><g id="elem_ModuleGet"><rect codeLine="33" fill="#F1F1F1" height="80.5938" id="ModuleGet" rx="2.5" ry="2.5" style="stroke:#181818;stroke-width:0.5;" width="328" x="75" y="602.18"/><ellipse cx="196.75" cy="618.18" fill="#ADD1B2" rx="11" ry="11" style="stroke:#181818;stroke-width:1.0;"/><path d="M199.7188,623.8206 Q199.1406,624.1175 198.5,624.2581 Q197.8594,624.4144 197.1563,624.4144 Q194.6563,624.4144 193.3281,622.7738 Q192.0156,621.1175 192.0156,617.9925 Q192.0156,614.8675 193.3281,613.2113 Q194.6563,611.555 197.1563,611.555 Q197.8594,611.555 198.5,611.7113 Q199.1563,611.8675 199.7188,612.1644 L199.7188,614.8831 Q199.0938,614.305 198.5,614.0394 Q197.9063,613.7581 197.2813,613.7581 Q195.9375,613.7581 195.25,614.8363 Q194.5625,615.8988 194.5625,617.9925 Q194.5625,620.0863 195.25,621.1644 Q195.9375,622.2269 197.2813,622.2269 Q197.9063,622.2269 198.5,621.9613 Q199.0938,621.68 199.7188,621.1019 L199.7188,623.8206 Z " fill="#000000"/><text fill="#000000" font-family="sans-serif" font-size="14" lengthAdjust="spacing" textLength="76" x="217.25" y="623.0267">ModuleGet</text><line style="stroke:#181818;stroke-width:0.5;" x1="76" x2="402" y1="634.18" y2="634.18"/><line style="stroke:#181818;stroke-width:0.5;" x1="76" x2="402" y1="642.18" y2="642.18"/><text fill="#000000" font-family="sans-serif" font-size="14" lengthAdjust="spacing" textLength="223" x="81" y="659.1751">ModuleGet(file_name: LPCTSTR)</text><text fill="#000000" font-family="sans-serif" font-size="14" lengthAdjust="spacing" textLength="316" x="81" y="675.472">operator[](proc_name: LPCSTR): ProcAddress</text></g><!--class Kernel32--><g id="elem_Kernel32"><rect codeLine="28" fill="#F1F1F1" height="80.5938" id="Kernel32" rx="2.5" ry="2.5" style="stroke:#181818;stroke-width:0.5;" width="289" x="94.5" y="434.18"/><ellipse cx="203.75" cy="450.18" fill="#ADD1B2" rx="11" ry="11" style="stroke:#181818;stroke-width:1.0;"/><path d="M206.7188,455.8206 Q206.1406,456.1175 205.5,456.2581 Q204.8594,456.4144 204.1563,456.4144 Q201.6563,456.4144 200.3281,454.7738 Q199.0156,453.1175 199.0156,449.9925 Q199.0156,446.8675 200.3281,445.2113 Q201.6563,443.555 204.1563,443.555 Q204.8594,443.555 205.5,443.7113 Q206.1563,443.8675 206.7188,444.1644 L206.7188,446.8831 Q206.0938,446.305 205.5,446.0394 Q204.9063,445.7581 204.2813,445.7581 Q202.9375,445.7581 202.25,446.8363 Q201.5625,447.8988 201.5625,449.9925 Q201.5625,452.0863 202.25,453.1644 Q202.9375,454.2269 204.2813,454.2269 Q204.9063,454.2269 205.5,453.9613 Q206.0938,453.68 206.7188,453.1019 L206.7188,455.8206 Z " fill="#000000"/><text fill="#000000" font-family="sans-serif" font-size="14" lengthAdjust="spacing" textLength="62" x="224.25" y="455.0267">Kernel32</text><line style="stroke:#181818;stroke-width:0.5;" x1="95.5" x2="382.5" y1="466.18" y2="466.18"/><line style="stroke:#181818;stroke-width:0.5;" x1="95.5" x2="382.5" y1="474.18" y2="474.18"/><text fill="#000000" font-family="sans-serif" font-size="14" lengthAdjust="spacing" textLength="152" x="100.5" y="491.1751">instance(): Kernel32&amp;</text><text fill="#000000" font-family="sans-serif" font-size="14" lengthAdjust="spacing" textLength="277" x="100.5" y="507.472">GetCurrentProcessorNumber(): DWORD</text></g><g id="elem_GMN10"><path d="M784,592.07 L784,692.8669 A0,0 0 0 0 784,692.8669 L1108,692.8669 A0,0 0 0 0 1108,692.8669 L1108,602.07 L1098,592.07 L841.74,592.07 L703.96,530.18 L833.74,592.07 L784,592.07 A0,0 0 0 0 784,592.07 " fill="#FEFFDD" style="stroke:#181818;stroke-width:0.5;"/><path d="M1098,592.07 L1098,602.07 L1108,602.07 L1098,592.07 " fill="#FEFFDD" style="stroke:#181818;stroke-width:0.5;"/><text fill="#000000" font-family="sans-serif" font-size="13" lengthAdjust="spacing" textLength="284" x="790" y="609.1369">When called with `cpunum`, pins the current</text><text fill="#000000" font-family="sans-serif" font-size="13" lengthAdjust="spacing" textLength="247" x="790" y="624.2697">thread on that core. Affinity is restored</text><text fill="#000000" font-family="sans-serif" font-size="13" lengthAdjust="spacing" textLength="187" x="790" y="639.4025">when the destructor is called.</text><text fill="#000000" font-family="sans-serif" font-size="13" lengthAdjust="spacing" textLength="4" x="790" y="654.5353">&#160;</text><text fill="#000000" font-family="sans-serif" font-size="13" lengthAdjust="spacing" textLength="303" x="790" y="669.6681">When no `cpunum` is used, pins on the current</text><text fill="#000000" font-family="sans-serif" font-size="13" lengthAdjust="spacing" textLength="178" x="790" y="684.801">core or (Core #0 on WinXP).</text></g><!--link CpuIdNative to CpuIdRegister--><g id="link_CpuIdNative_CpuIdRegister"><path codeLine="38" d="M473.3,183.59 C506.78,183.59 539.95,183.59 567.71,183.59 " fill="none" id="CpuIdNative-to-CpuIdRegister" style="stroke:#181818;stroke-width:1.0;"/><polygon fill="#181818" points="572.55,183.59,563.55,179.59,567.55,183.59,563.55,187.59,572.55,183.59" style="stroke:#181818;stroke-width:1.0;"/><text fill="#000000" font-family="sans-serif" font-size="13" lengthAdjust="spacing" textLength="64" x="491.5" y="176.6569">&#171;creates&#187;</text></g><!--link CpuIdNative to Thread--><g id="link_CpuIdNative_Thread"><path codeLine="40" d="M351.26,240.63 C402.48,291.66 477.72,366.61 528.9,417.59 " fill="none" id="CpuIdNative-Thread" style="stroke:#181818;stroke-width:1.0;"/></g><!--link Thread to Kernel32--><g id="link_Thread_Kernel32"><path codeLine="42" d="M466.19,474.48 C441.58,474.48 415.35,474.48 389.77,474.48 " fill="none" id="Thread-to-Kernel32" style="stroke:#181818;stroke-width:1.0;"/><polygon fill="#181818" points="384.98,474.48,393.98,478.48,389.98,474.48,393.98,470.48,384.98,474.48" style="stroke:#181818;stroke-width:1.0;"/><text fill="#000000" font-family="sans-serif" font-size="13" lengthAdjust="spacing" textLength="46" x="402" y="467.5469">&#171;uses&#187;</text></g><!--link Kernel32 to ModuleGet--><g id="link_Kernel32_ModuleGet"><path codeLine="44" d="M239,515.24 C239,541.42 239,575.57 239,601.75 " fill="none" id="Kernel32-ModuleGet" style="stroke:#181818;stroke-width:1.0;"/></g><!--SRC=[ZLDTQrin37s_lq8mA3UqDupspOH0IM6KRLt80XbietLj9V5s8rziUTaOws-VxVlH9cLbVfBb8nqTIVR8uB6HJh9r84HHg5fw3-wRQeJGHcx8UZRA2w6QOBGGioPSwnl9vWV2xmBYENtYAaVFNJ6Gmav086ysX1eCSGkhgXRz1Za7b2X_2l0SQK84NPpVyXcWElQDn1TgFRPXOqdMano-m8tnZ6vQ_FbF7Nt48PnotKBi3LsS2x7SEfIw5zlUUftTxTyIJnyE0dh5rtvkA0BBaO1xQ-jOCLd6Q3FRNSQijaYWP5t7T7l3MxXhMUxEe37aWRS8AZY7n1dFRPcMeYKPb7KuXilrsf3XNs2YEFHnoAWpUf-ofnGwUbrGQVmHq_ADYySAo0x42H0ywgu0IyzgIAGGCvMpPBnwdJ0hGv_cet61f25fVB7Ntz4HribwsrbTtoCXIrAO6jO_dUINj3nj2NDd5NfltKtOtQDBqAlLXyNLyJeSSRwtEjGOqtHKmxrScnflIUvGmBlvRFbnkMYdQ1lC7-RprxA9d8-GX12GwhZKElRR9-gdFwPorHGELWy4J2OgZexHJwT7Q5r1kpv5qMrXJZ3q9iN6YUJ0mPcY1Wr_0G00]--></g></svg>