<?xml version="1.0" encoding="us-ascii" standalone="no"?><svg xmlns="http://www.w3.org/2000/svg" xmlns:xlink="http://www.w3.org/1999/xlink" contentStyleType="text/css" height="320px" preserveAspectRatio="none" style="width:1202px;height:320px;background:#FFFFFF;" version="1.1" viewBox="0 0 1202 320" width="1202px" zoomAndPan="magnify"><defs/><g><!--class ICpuIdFactory--><g id="elem_ICpuIdFactory"><rect codeLine="2" fill="#F1F1F1" height="48" id="ICpuIdFactory" rx="2.5" ry="2.5" style="stroke:#181818;stroke-width:0.5;" width="125" x="606" y="116"/><ellipse cx="621" cy="132" fill="#A9DCDF" rx="11" ry="11" style="stroke:#181818;stroke-width:1.0;"/><path d="M621.1094,127.3438 L619.9531,132.4219 L622.2813,132.4219 L621.1094,127.3438 Z M619.625,125.1094 L622.6094,125.1094 L625.9688,137.5 L623.5156,137.5 L622.75,134.4375 L619.4688,134.4375 L618.7188,137.5 L616.2813,137.5 L619.625,125.1094 Z " fill="#000000"/><text fill="#000000" font-family="sans-serif" font-size="14" font-style="italic" lengthAdjust="spacing" textLength="93" x="635" y="136.8467">ICpuIdFactory</text><line style="stroke:#181818;stroke-width:0.5;" x1="607" x2="730" y1="148" y2="148"/><line style="stroke:#181818;stroke-width:0.5;" x1="607" x2="730" y1="156" y2="156"/></g><!--class ICpuId--><g id="elem_ICpuId"><rect codeLine="3" fill="#F1F1F1" height="48" id="ICpuId" rx="2.5" ry="2.5" style="stroke:#181818;stroke-width:0.5;" width="75" x="870" y="116"/><ellipse cx="885" cy="132" fill="#A9DCDF" rx="11" ry="11" style="stroke:#181818;stroke-width:1.0;"/><path d="M885.1094,127.3438 L883.9531,132.4219 L886.2813,132.4219 L885.1094,127.3438 Z M883.625,125.1094 L886.6094,125.1094 L889.9688,137.5 L887.5156,137.5 L886.75,134.4375 L883.4688,134.4375 L882.7188,137.5 L880.2813,137.5 L883.625,125.1094 Z " fill="#000000"/><text fill="#000000" font-family="sans-serif" font-size="14" font-style="italic" lengthAdjust="spacing" textLength="43" x="899" y="136.8467">ICpuId</text><line style="stroke:#181818;stroke-width:0.5;" x1="871" x2="944" y1="148" y2="148"/><line style="stroke:#181818;stroke-width:0.5;" x1="871" x2="944" y1="156" y2="156"/></g><!--class ICpuIdConfig--><g id="elem_ICpuIdConfig"><rect codeLine="4" fill="#F1F1F1" height="48" id="ICpuIdConfig" rx="2.5" ry="2.5" style="stroke:#181818;stroke-width:0.5;" width="119" x="187" y="7"/><ellipse cx="202" cy="23" fill="#A9DCDF" rx="11" ry="11" style="stroke:#181818;stroke-width:1.0;"/><path d="M202.1094,18.3438 L200.9531,23.4219 L203.2813,23.4219 L202.1094,18.3438 Z M200.625,16.1094 L203.6094,16.1094 L206.9688,28.5 L204.5156,28.5 L203.75,25.4375 L200.4688,25.4375 L199.7188,28.5 L197.2813,28.5 L200.625,16.1094 Z " fill="#000000"/><text fill="#000000" font-family="sans-serif" font-size="14" font-style="italic" lengthAdjust="spacing" textLength="87" x="216" y="27.8467">ICpuIdConfig</text><line style="stroke:#181818;stroke-width:0.5;" x1="188" x2="305" y1="39" y2="39"/><line style="stroke:#181818;stroke-width:0.5;" x1="188" x2="305" y1="47" y2="47"/></g><!--class CpuIdNativeFactory--><g id="elem_CpuIdNativeFactory"><rect codeLine="6" fill="#F1F1F1" height="48" id="CpuIdNativeFactory" rx="2.5" ry="2.5" style="stroke:#181818;stroke-width:0.5;" width="164" x="586.5" y="253.28"/><ellipse cx="601.5" cy="269.28" fill="#ADD1B2" rx="11" ry="11" style="stroke:#181818;stroke-width:1.0;"/><path d="M604.4688,274.9206 Q603.8906,275.2175 603.25,275.3581 Q602.6094,275.5144 601.9063,275.5144 Q599.4063,275.5144 598.0781,273.8738 Q596.7656,272.2175 596.7656,269.0925 Q596.7656,265.9675 598.0781,264.3113 Q599.4063,262.655 601.9063,262.655 Q602.6094,262.655 603.25,262.8113 Q603.9063,262.9675 604.4688,263.2644 L604.4688,265.9831 Q603.8438,265.405 603.25,265.1394 Q602.6563,264.8581 602.0313,264.8581 Q600.6875,264.8581 600,265.9363 Q599.3125,266.9988 599.3125,269.0925 Q599.3125,271.1863 600,272.2644 Q600.6875,273.3269 602.0313,273.3269 Q602.6563,273.3269 603.25,273.0613 Q603.8438,272.78 604.4688,272.2019 L604.4688,274.9206 Z " fill="#000000"/><text fill="#000000" font-family="sans-serif" font-size="14" lengthAdjust="spacing" textLength="132" x="615.5" y="274.1267">CpuIdNativeFactory</text><line style="stroke:#181818;stroke-width:0.5;" x1="587.5" x2="749.5" y1="285.28" y2="285.28"/><line style="stroke:#181818;stroke-width:0.5;" x1="587.5" x2="749.5" y1="293.28" y2="293.28"/></g><!--class CpuIdNative--><g id="elem_CpuIdNative"><rect codeLine="7" fill="#F1F1F1" height="48" id="CpuIdNative" rx="2.5" ry="2.5" style="stroke:#181818;stroke-width:0.5;" width="114" x="850.5" y="253.28"/><ellipse cx="865.5" cy="269.28" fill="#ADD1B2" rx="11" ry="11" style="stroke:#181818;stroke-width:1.0;"/><path d="M868.4688,274.9206 Q867.8906,275.2175 867.25,275.3581 Q866.6094,275.5144 865.9063,275.5144 Q863.4063,275.5144 862.0781,273.8738 Q860.7656,272.2175 860.7656,269.0925 Q860.7656,265.9675 862.0781,264.3113 Q863.4063,262.655 865.9063,262.655 Q866.6094,262.655 867.25,262.8113 Q867.9063,262.9675 868.4688,263.2644 L868.4688,265.9831 Q867.8438,265.405 867.25,265.1394 Q866.6563,264.8581 866.0313,264.8581 Q864.6875,264.8581 864,265.9363 Q863.3125,266.9988 863.3125,269.0925 Q863.3125,271.1863 864,272.2644 Q864.6875,273.3269 866.0313,273.3269 Q866.6563,273.3269 867.25,273.0613 Q867.8438,272.78 868.4688,272.2019 L868.4688,274.9206 Z " fill="#000000"/><text fill="#000000" font-family="sans-serif" font-size="14" lengthAdjust="spacing" textLength="82" x="879.5" y="274.1267">CpuIdNative</text><line style="stroke:#181818;stroke-width:0.5;" x1="851.5" x2="963.5" y1="285.28" y2="285.28"/><line style="stroke:#181818;stroke-width:0.5;" x1="851.5" x2="963.5" y1="293.28" y2="293.28"/></g><!--class CpuIdNativeConfig--><g id="elem_CpuIdNativeConfig"><rect codeLine="8" fill="#F1F1F1" height="48" id="CpuIdNativeConfig" rx="2.5" ry="2.5" style="stroke:#181818;stroke-width:0.5;" width="158" x="167.5" y="116"/><ellipse cx="182.5" cy="132" fill="#ADD1B2" rx="11" ry="11" style="stroke:#181818;stroke-width:1.0;"/><path d="M185.4688,137.6406 Q184.8906,137.9375 184.25,138.0781 Q183.6094,138.2344 182.9063,138.2344 Q180.4063,138.2344 179.0781,136.5938 Q177.7656,134.9375 177.7656,131.8125 Q177.7656,128.6875 179.0781,127.0313 Q180.4063,125.375 182.9063,125.375 Q183.6094,125.375 184.25,125.5313 Q184.9063,125.6875 185.4688,125.9844 L185.4688,128.7031 Q184.8438,128.125 184.25,127.8594 Q183.6563,127.5781 183.0313,127.5781 Q181.6875,127.5781 181,128.6563 Q180.3125,129.7188 180.3125,131.8125 Q180.3125,133.9063 181,134.9844 Q181.6875,136.0469 183.0313,136.0469 Q183.6563,136.0469 184.25,135.7813 Q184.8438,135.5 185.4688,134.9219 L185.4688,137.6406 Z " fill="#000000"/><text fill="#000000" font-family="sans-serif" font-size="14" lengthAdjust="spacing" textLength="126" x="196.5" y="136.8467">CpuIdNativeConfig</text><line style="stroke:#181818;stroke-width:0.5;" x1="168.5" x2="324.5" y1="148" y2="148"/><line style="stroke:#181818;stroke-width:0.5;" x1="168.5" x2="324.5" y1="156" y2="156"/></g><!--class CpuIdRegister--><g id="elem_CpuIdRegister"><rect codeLine="9" fill="#F1F1F1" height="48" id="CpuIdRegister" rx="2.5" ry="2.5" style="stroke:#181818;stroke-width:0.5;" width="130" x="1065.5" y="253.28"/><ellipse cx="1080.5" cy="269.28" fill="#ADD1B2" rx="11" ry="11" style="stroke:#181818;stroke-width:1.0;"/><path d="M1083.4688,274.9206 Q1082.8906,275.2175 1082.25,275.3581 Q1081.6094,275.5144 1080.9063,275.5144 Q1078.4063,275.5144 1077.0781,273.8738 Q1075.7656,272.2175 1075.7656,269.0925 Q1075.7656,265.9675 1077.0781,264.3113 Q1078.4063,262.655 1080.9063,262.655 Q1081.6094,262.655 1082.25,262.8113 Q1082.9063,262.9675 1083.4688,263.2644 L1083.4688,265.9831 Q1082.8438,265.405 1082.25,265.1394 Q1081.6563,264.8581 1081.0313,264.8581 Q1079.6875,264.8581 1079,265.9363 Q1078.3125,266.9988 1078.3125,269.0925 Q1078.3125,271.1863 1079,272.2644 Q1079.6875,273.3269 1081.0313,273.3269 Q1081.6563,273.3269 1082.25,273.0613 Q1082.8438,272.78 1083.4688,272.2019 L1083.4688,274.9206 Z " fill="#000000"/><text fill="#000000" font-family="sans-serif" font-size="14" lengthAdjust="spacing" textLength="98" x="1094.5" y="274.1267">CpuIdRegister</text><line style="stroke:#181818;stroke-width:0.5;" x1="1066.5" x2="1194.5" y1="285.28" y2="285.28"/><line style="stroke:#181818;stroke-width:0.5;" x1="1066.5" x2="1194.5" y1="293.28" y2="293.28"/></g><!--class MakeCpuIdFactory--><g id="elem_MakeCpuIdFactory"><rect codeLine="11" fill="#F1F1F1" height="72.5625" id="MakeCpuIdFactory" rx="2.5" ry="2.5" style="stroke:#181818;stroke-width:0.5;" width="479" x="7" y="241"/><ellipse cx="178.75" cy="261.1328" fill="#ADD1B2" rx="11" ry="11" style="stroke:#181818;stroke-width:1.0;"/><path d="M181.7188,266.7734 Q181.1406,267.0703 180.5,267.2109 Q179.8594,267.3672 179.1563,267.3672 Q176.6563,267.3672 175.3281,265.7266 Q174.0156,264.0703 174.0156,260.9453 Q174.0156,257.8203 175.3281,256.1641 Q176.6563,254.5078 179.1563,254.5078 Q179.8594,254.5078 180.5,254.6641 Q181.1563,254.8203 181.7188,255.1172 L181.7188,257.8359 Q181.0938,257.2578 180.5,256.9922 Q179.9063,256.7109 179.2813,256.7109 Q177.9375,256.7109 177.25,257.7891 Q176.5625,258.8516 176.5625,260.9453 Q176.5625,263.0391 177.25,264.1172 Q177.9375,265.1797 179.2813,265.1797 Q179.9063,265.1797 180.5,264.9141 Q181.0938,264.6328 181.7188,264.0547 L181.7188,266.7734 Z " fill="#000000"/><text fill="#000000" font-family="sans-serif" font-size="12" font-style="italic" lengthAdjust="spacing" textLength="94" x="215.75" y="257.1387">&#171;free function&#187;</text><text fill="#000000" font-family="sans-serif" font-size="14" lengthAdjust="spacing" textLength="127" x="199.25" y="272.9639">MakeCpuIdFactory</text><line style="stroke:#181818;stroke-width:0.5;" x1="8" x2="485" y1="281.2656" y2="281.2656"/><line style="stroke:#181818;stroke-width:0.5;" x1="8" x2="485" y1="289.2656" y2="289.2656"/><text fill="#000000" font-family="sans-serif" font-size="14" lengthAdjust="spacing" text-decoration="underline" textLength="467" x="13" y="306.2607">MakeCpuIdFactory(config: CpuIdNativeConfig&amp;): CpuIdNativeFactory</text></g><!--reverse link ICpuIdFactory to CpuIdNativeFactory--><g id="link_ICpuIdFactory_CpuIdNativeFactory"><path codeLine="15" d="M668.5,185.06 C668.5,207.65 668.5,234.25 668.5,252.87 " fill="none" id="ICpuIdFactory-backto-CpuIdNativeFactory" style="stroke:#181818;stroke-width:1.0;stroke-dasharray:7.0,7.0;"/><polygon fill="none" points="661.5,185.25,668.5,165.25,675.5,185.25,661.5,185.25" style="stroke:#181818;stroke-width:1.0;"/></g><!--reverse link ICpuId to CpuIdNative--><g id="link_ICpuId_CpuIdNative"><path codeLine="17" d="M907.5,185.06 C907.5,207.65 907.5,234.25 907.5,252.87 " fill="none" id="ICpuId-backto-CpuIdNative" style="stroke:#181818;stroke-width:1.0;stroke-dasharray:7.0,7.0;"/><polygon fill="none" points="900.5,185.25,907.5,165.25,914.5,185.25,900.5,185.25" style="stroke:#181818;stroke-width:1.0;"/></g><!--reverse link ICpuIdConfig to CpuIdNativeConfig--><g id="link_ICpuIdConfig_CpuIdNativeConfig"><path codeLine="19" d="M246.5,76.16 C246.5,89.68 246.5,104.01 246.5,115.57 " fill="none" id="ICpuIdConfig-backto-CpuIdNativeConfig" style="stroke:#181818;stroke-width:1.0;stroke-dasharray:7.0,7.0;"/><polygon fill="none" points="239.5,76.48,246.5,56.48,253.5,76.48,239.5,76.48" style="stroke:#181818;stroke-width:1.0;"/></g><!--reverse link CpuIdNativeConfig to MakeCpuIdFactory--><g id="link_CpuIdNativeConfig_MakeCpuIdFactory"><path codeLine="21" d="M246.5,170.15 C246.5,190.81 246.5,218.65 246.5,240.63 " fill="none" id="CpuIdNativeConfig-backto-MakeCpuIdFactory" style="stroke:#181818;stroke-width:1.0;"/><polygon fill="#181818" points="246.5,165.25,242.5,174.25,246.5,170.25,250.5,174.25,246.5,165.25" style="stroke:#181818;stroke-width:1.0;"/><text fill="#000000" font-family="sans-serif" font-size="13" lengthAdjust="spacing" textLength="71" x="247.5" y="207.0669">&#171;depends&#187;</text></g><!--link MakeCpuIdFactory to CpuIdNativeFactory--><g id="link_MakeCpuIdFactory_CpuIdNativeFactory"><path codeLine="23" d="M486.47,277.28 C519.91,277.28 552.35,277.28 580.37,277.28 " fill="none" id="MakeCpuIdFactory-to-CpuIdNativeFactory" style="stroke:#181818;stroke-width:1.0;"/><polygon fill="#181818" points="585.27,277.28,576.27,273.28,580.27,277.28,576.27,281.28,585.27,277.28" style="stroke:#181818;stroke-width:1.0;"/><text fill="#000000" font-family="sans-serif" font-size="13" lengthAdjust="spacing" textLength="64" x="504.25" y="270.3469">&#171;creates&#187;</text></g><!--link CpuIdNativeFactory to CpuIdNative--><g id="link_CpuIdNativeFactory_CpuIdNative"><path codeLine="25" d="M750.75,277.28 C781.51,277.28 815.93,277.28 844.66,277.28 " fill="none" id="CpuIdNativeFactory-to-CpuIdNative" style="stroke:#181818;stroke-width:1.0;"/><polygon fill="#181818" points="849.33,277.28,840.33,273.28,844.33,277.28,840.33,281.28,849.33,277.28" style="stroke:#181818;stroke-width:1.0;"/><text fill="#000000" font-family="sans-serif" font-size="13" lengthAdjust="spacing" textLength="64" x="768.5" y="270.3469">&#171;creates&#187;</text></g><!--link CpuIdNative to CpuIdRegister--><g id="link_CpuIdNative_CpuIdRegister"><path codeLine="27" d="M964.93,277.28 C993.84,277.28 1029.16,277.28 1059.73,277.28 " fill="none" id="CpuIdNative-to-CpuIdRegister" style="stroke:#181818;stroke-width:1.0;"/><polygon fill="#181818" points="1064.39,277.28,1055.39,273.28,1059.39,277.28,1055.39,281.28,1064.39,277.28" style="stroke:#181818;stroke-width:1.0;"/><text fill="#000000" font-family="sans-serif" font-size="13" lengthAdjust="spacing" textLength="64" x="983" y="270.3469">&#171;creates&#187;</text></g><!--SRC=[VL6z2iCW4Dvz2gVI3kO1Gd0953AqGz_0wYL8Ymbg2YNDkrTCX3GdTVn-xqvnTzuAwQby2kTeKmzZeyu1wEsRY1oPH-lUjBeZPC4YT1LUlo1b8G8ZQyO6lq6ddGURSY_Y0Ti9QLMr5e2sev5UzuPpEX4QtkHyY9GpSXnbB2bnx-5KvkQU2Mb-Ap-5AdBALOS5YLbwC9zkXo1QCSNmqcLOMy40HZdE2K4yiund1em-QK5uYBwCOk_yOzbeqo_jr5y0]--></g></svg>