<?xml version="1.0" encoding="us-ascii" standalone="no"?><svg xmlns="http://www.w3.org/2000/svg" xmlns:xlink="http://www.w3.org/1999/xlink" contentStyleType="text/css" height="661px" preserveAspectRatio="none" style="width:817px;height:661px;background:#FFFFFF;" version="1.1" viewBox="0 0 817 661" width="817px" zoomAndPan="magnify"><defs/><g><rect fill="#FFFFFF" height="480.2578" style="stroke:#181818;stroke-width:1.0;" width="10" x="305" y="91.2969"/><rect fill="#FFFFFF" height="405.8594" style="stroke:#181818;stroke-width:1.0;" width="10" x="458.5" y="165.6953"/><rect fill="#FFFFFF" height="269.1953" style="stroke:#181818;stroke-width:1.0;" width="10" x="589.5" y="302.3594"/><rect fill="none" height="104.5313" style="stroke:#000000;stroke-width:1.5;" width="536.5" x="10" y="98.2969"/><rect fill="none" height="140.7969" style="stroke:#000000;stroke-width:1.5;" width="801.5" x="10" y="216.8281"/><rect fill="none" height="191.9297" style="stroke:#000000;stroke-width:1.5;" width="642.5" x="10" y="371.625"/><line style="stroke:#181818;stroke-width:0.5;stroke-dasharray:5.0,5.0;" x1="39" x2="39" y1="81.2969" y2="580.5547"/><line style="stroke:#181818;stroke-width:0.5;stroke-dasharray:5.0,5.0;" x1="309.5" x2="309.5" y1="81.2969" y2="580.5547"/><line style="stroke:#181818;stroke-width:0.5;stroke-dasharray:5.0,5.0;" x1="463.5" x2="463.5" y1="81.2969" y2="580.5547"/><line style="stroke:#181818;stroke-width:0.5;stroke-dasharray:5.0,5.0;" x1="594.5" x2="594.5" y1="81.2969" y2="580.5547"/><text fill="#000000" font-family="sans-serif" font-size="14" lengthAdjust="spacing" textLength="32" x="20" y="77.9951">User</text><ellipse cx="39" cy="13.5" fill="#E2E2F0" rx="8" ry="8" style="stroke:#181818;stroke-width:0.5;"/><path d="M39,21.5 L39,48.5 M26,29.5 L52,29.5 M39,48.5 L26,63.5 M39,48.5 L52,63.5 " fill="none" style="stroke:#181818;stroke-width:0.5;"/><text fill="#000000" font-family="sans-serif" font-size="14" lengthAdjust="spacing" textLength="32" x="20" y="592.5498">User</text><ellipse cx="39" cy="604.3516" fill="#E2E2F0" rx="8" ry="8" style="stroke:#181818;stroke-width:0.5;"/><path d="M39,612.3516 L39,639.3516 M26,620.3516 L52,620.3516 M39,639.3516 L26,654.3516 M39,639.3516 L52,654.3516 " fill="none" style="stroke:#181818;stroke-width:0.5;"/><rect fill="#E2E2F0" height="30.2969" rx="2.5" ry="2.5" style="stroke:#181818;stroke-width:0.5;" width="141" x="239.5" y="50"/><text fill="#000000" font-family="sans-serif" font-size="14" lengthAdjust="spacing" textLength="127" x="246.5" y="69.9951">MakeCpuIdFactory</text><rect fill="#E2E2F0" height="30.2969" rx="2.5" ry="2.5" style="stroke:#181818;stroke-width:0.5;" width="141" x="239.5" y="579.5547"/><text fill="#000000" font-family="sans-serif" font-size="14" lengthAdjust="spacing" textLength="127" x="246.5" y="599.5498">MakeCpuIdFactory</text><rect fill="#E2E2F0" height="30.2969" rx="2.5" ry="2.5" style="stroke:#181818;stroke-width:0.5;" width="146" x="390.5" y="50"/><text fill="#000000" font-family="sans-serif" font-size="14" lengthAdjust="spacing" textLength="132" x="397.5" y="69.9951">CpuIdNativeFactory</text><rect fill="#E2E2F0" height="30.2969" rx="2.5" ry="2.5" style="stroke:#181818;stroke-width:0.5;" width="146" x="390.5" y="579.5547"/><text fill="#000000" font-family="sans-serif" font-size="14" lengthAdjust="spacing" textLength="132" x="397.5" y="599.5498">CpuIdNativeFactory</text><rect fill="#E2E2F0" height="30.2969" rx="2.5" ry="2.5" style="stroke:#181818;stroke-width:0.5;" width="96" x="546.5" y="50"/><text fill="#000000" font-family="sans-serif" font-size="14" lengthAdjust="spacing" textLength="82" x="553.5" y="69.9951">CpuIdNative</text><rect fill="#E2E2F0" height="30.2969" rx="2.5" ry="2.5" style="stroke:#181818;stroke-width:0.5;" width="96" x="546.5" y="579.5547"/><text fill="#000000" font-family="sans-serif" font-size="14" lengthAdjust="spacing" textLength="82" x="553.5" y="599.5498">CpuIdNative</text><rect fill="#FFFFFF" height="480.2578" style="stroke:#181818;stroke-width:1.0;" width="10" x="305" y="91.2969"/><rect fill="#FFFFFF" height="405.8594" style="stroke:#181818;stroke-width:1.0;" width="10" x="458.5" y="165.6953"/><rect fill="#FFFFFF" height="269.1953" style="stroke:#181818;stroke-width:1.0;" width="10" x="589.5" y="302.3594"/><path d="M10,98.2969 L141,98.2969 L141,105.4297 L131,115.4297 L10,115.4297 L10,98.2969 " fill="#EEEEEE" style="stroke:#000000;stroke-width:1.5;"/><rect fill="none" height="104.5313" style="stroke:#000000;stroke-width:1.5;" width="536.5" x="10" y="98.2969"/><text fill="#000000" font-family="sans-serif" font-size="13" font-weight="bold" lengthAdjust="spacing" textLength="86" x="25" y="111.3638">Get Factory</text><polygon fill="#181818" points="293,132.5625,303,136.5625,293,140.5625,297,136.5625" style="stroke:#181818;stroke-width:1.0;"/><line style="stroke:#181818;stroke-width:1.0;" x1="39" x2="299" y1="136.5625" y2="136.5625"/><text fill="#000000" font-family="sans-serif" font-size="13" lengthAdjust="spacing" textLength="165" x="46" y="131.4966">MakeCpuIdFactory(config)</text><polygon fill="#181818" points="446.5,161.6953,456.5,165.6953,446.5,169.6953,450.5,165.6953" style="stroke:#181818;stroke-width:1.0;"/><line style="stroke:#181818;stroke-width:1.0;" x1="315" x2="452.5" y1="165.6953" y2="165.6953"/><text fill="#000000" font-family="sans-serif" font-size="13" lengthAdjust="spacing" textLength="84" x="322" y="160.6294">&#171;instantiate&#187;</text><polygon fill="#181818" points="50,190.8281,40,194.8281,50,198.8281,46,194.8281" style="stroke:#181818;stroke-width:1.0;"/><line style="stroke:#181818;stroke-width:1.0;stroke-dasharray:2.0,2.0;" x1="44" x2="304" y1="194.8281" y2="194.8281"/><text fill="#000000" font-family="sans-serif" font-size="13" lengthAdjust="spacing" textLength="242" x="56" y="189.7622">std::unique_ptr&lt;CpuIdNativeFactory&gt;</text><path d="M10,216.8281 L190,216.8281 L190,223.9609 L180,233.9609 L10,233.9609 L10,216.8281 " fill="#EEEEEE" style="stroke:#000000;stroke-width:1.5;"/><rect fill="none" height="140.7969" style="stroke:#000000;stroke-width:1.5;" width="801.5" x="10" y="216.8281"/><text fill="#000000" font-family="sans-serif" font-size="13" font-weight="bold" lengthAdjust="spacing" textLength="135" x="25" y="229.895">Get CpuId for CPU</text><polygon fill="#181818" points="446.5,251.0938,456.5,255.0938,446.5,259.0938,450.5,255.0938" style="stroke:#181818;stroke-width:1.0;"/><line style="stroke:#181818;stroke-width:1.0;" x1="39" x2="452.5" y1="255.0938" y2="255.0938"/><text fill="#000000" font-family="sans-serif" font-size="13" lengthAdjust="spacing" textLength="80" x="46" y="250.0278">MakeCpuId()</text><polygon fill="#181818" points="577.5,298.3594,587.5,302.3594,577.5,306.3594,581.5,302.3594" style="stroke:#181818;stroke-width:1.0;"/><line style="stroke:#181818;stroke-width:1.0;" x1="468.5" x2="583.5" y1="302.3594" y2="302.3594"/><text fill="#000000" font-family="sans-serif" font-size="13" lengthAdjust="spacing" textLength="84" x="475.5" y="297.2935">&#171;instantiate&#187;</text><path d="M604,268.0938 L604,323.0938 L806,323.0938 L806,278.0938 L796,268.0938 L604,268.0938 " fill="#FEFFDD" style="stroke:#181818;stroke-width:0.5;"/><path d="M796,268.0938 L796,278.0938 L806,278.0938 L796,268.0938 " fill="#FEFFDD" style="stroke:#181818;stroke-width:0.5;"/><text fill="#000000" font-family="sans-serif" font-size="13" lengthAdjust="spacing" textLength="174" x="610" y="285.1606">If a `cpunum` is given then</text><text fill="#000000" font-family="sans-serif" font-size="13" lengthAdjust="spacing" textLength="181" x="610" y="300.2935">current thread will be pinned</text><text fill="#000000" font-family="sans-serif" font-size="13" lengthAdjust="spacing" textLength="152" x="610" y="315.4263">until object is destroyed</text><polygon fill="#181818" points="50,345.625,40,349.625,50,353.625,46,349.625" style="stroke:#181818;stroke-width:1.0;"/><line style="stroke:#181818;stroke-width:1.0;stroke-dasharray:2.0,2.0;" x1="44" x2="457.5" y1="349.625" y2="349.625"/><text fill="#000000" font-family="sans-serif" font-size="13" lengthAdjust="spacing" textLength="195" x="56" y="344.5591">std::unique_ptr&lt;CpuIdNative&gt;</text><path d="M10,371.625 L221,371.625 L221,378.7578 L211,388.7578 L10,388.7578 L10,371.625 " fill="#EEEEEE" style="stroke:#000000;stroke-width:1.5;"/><rect fill="none" height="191.9297" style="stroke:#000000;stroke-width:1.5;" width="642.5" x="10" y="371.625"/><text fill="#000000" font-family="sans-serif" font-size="13" font-weight="bold" lengthAdjust="spacing" textLength="166" x="25" y="384.6919">Get CPUID information</text><polygon fill="#181818" points="577.5,405.8906,587.5,409.8906,577.5,413.8906,581.5,409.8906" style="stroke:#181818;stroke-width:1.0;"/><line style="stroke:#181818;stroke-width:1.0;" x1="39" x2="583.5" y1="409.8906" y2="409.8906"/><text fill="#000000" font-family="sans-serif" font-size="13" lengthAdjust="spacing" textLength="122" x="46" y="404.8247">GetCpuId(eax, ecx)</text><polygon fill="#181818" points="50,435.0234,40,439.0234,50,443.0234,46,439.0234" style="stroke:#181818;stroke-width:1.0;"/><line style="stroke:#181818;stroke-width:1.0;stroke-dasharray:2.0,2.0;" x1="44" x2="588.5" y1="439.0234" y2="439.0234"/><text fill="#000000" font-family="sans-serif" font-size="13" lengthAdjust="spacing" textLength="189" x="56" y="433.9575">std::optional&lt;CpuIdRegister&gt;</text><polygon fill="#181818" points="577.5,464.1563,587.5,468.1563,577.5,472.1563,581.5,468.1563" style="stroke:#181818;stroke-width:1.0;"/><line style="stroke:#181818;stroke-width:1.0;" x1="39" x2="583.5" y1="468.1563" y2="468.1563"/><text fill="#000000" font-family="sans-serif" font-size="13" lengthAdjust="spacing" textLength="122" x="46" y="463.0903">GetCpuId(eax, ecx)</text><polygon fill="#181818" points="50,493.2891,40,497.2891,50,501.2891,46,497.2891" style="stroke:#181818;stroke-width:1.0;"/><line style="stroke:#181818;stroke-width:1.0;stroke-dasharray:2.0,2.0;" x1="44" x2="588.5" y1="497.2891" y2="497.2891"/><text fill="#000000" font-family="sans-serif" font-size="13" lengthAdjust="spacing" textLength="189" x="56" y="492.2231">std::optional&lt;CpuIdRegister&gt;</text><polygon fill="#181818" points="577.5,522.4219,587.5,526.4219,577.5,530.4219,581.5,526.4219" style="stroke:#181818;stroke-width:1.0;"/><line style="stroke:#181818;stroke-width:1.0;" x1="39" x2="583.5" y1="526.4219" y2="526.4219"/><text fill="#000000" font-family="sans-serif" font-size="13" lengthAdjust="spacing" textLength="122" x="46" y="521.356">GetCpuId(eax, ecx)</text><polygon fill="#181818" points="50,551.5547,40,555.5547,50,559.5547,46,555.5547" style="stroke:#181818;stroke-width:1.0;"/><line style="stroke:#181818;stroke-width:1.0;stroke-dasharray:2.0,2.0;" x1="44" x2="588.5" y1="555.5547" y2="555.5547"/><text fill="#000000" font-family="sans-serif" font-size="13" lengthAdjust="spacing" textLength="189" x="56" y="550.4888">std::optional&lt;CpuIdRegister&gt;</text><!--SRC=[rP51Ry8m38Nl-HK-WhJzWGhrmhI9moOqYVC8gIaUnSbIXy6_driq64gdSTtLVdxvtejruYCiMemcs2ZaA5WMUBPRd8Oqgnvj9pXUBVl5YnNQunzhOtHFUokOEvew-XJW2GM-Hnq6t9UP5efiD7AUrrIFJQRL-nnG7IOJubOKa1IdB2za0t5oKtNjwGfefIgAnFIHy2r8dEJdfK6ke8_tCsKlXBNMFPqlpba7MS_lZyPcG71zTcCsmru7aUgD69YjmSBIXSHfjmHgeLO5WsoG3RWK8-f7oYQYhU2JcWPM286OiJAGz9a6_EeTdNId5ROI_L5NNUpkbK7ccnhyhRhvOlO0n5hUJdMUX-fJPzMUQaDxk0DqXwlwCWOVEY_Rd0XUiQPMC9RcFxjV-li2]--></g></svg>